<svg id="Layer_1" data-name="Layer 1" xmlns="http://www.w3.org/2000/svg" width="17.94" height="17.94" viewBox="0 0 17.94 17.94">
  <defs>
    <style>
      .cls-1, .cls-2 {
        fill: #a3a5a8;
      }

      .cls-1 {
        fill-opacity: 1;
      }
    </style>
  </defs>
  <g>
    <rect class="cls-1" width="17.94" height="17.94"/>
    <path class="cls-2" d="M9.57,6.89a.75.75,0,0,0-.75.75v.07h1.54a.74.74,0,0,0-.68-.81Z" transform="translate(1.47 1.47)"/>
    <path class="cls-2" d="M5.63,7.72H4.71V9.17h.75c.74,0,1.07-.24,1.07-.74S6.19,7.72,5.63,7.72Z" transform="translate(1.47 1.47)"/>
    <path class="cls-2" d="M6.28,6.39c0-.39-.26-.63-.71-.63H4.71v1.3h.63C6,7.06,6.28,6.82,6.28,6.39Z" transform="translate(1.47 1.47)"/>
    <path class="cls-2" d="M7.5,0A7.48,7.48,0,1,0,15,7.5,7.47,7.47,0,0,0,7.5,0ZM5.78,9.89h-2V5h2c.88,0,1.45.46,1.45,1.2A1,1,0,0,1,6.4,7.3,1.14,1.14,0,0,1,7.51,8.46a.13.13,0,0,1,0,.06C7.5,9.39,6.76,9.89,5.78,9.89ZM8.44,5.41h2.24v.37H8.44Zm2.8,2.87H8.77v.11a.8.8,0,0,0,.71.88h.11a.68.68,0,0,0,.75-.47h.9A1.5,1.5,0,0,1,9.62,10,1.61,1.61,0,0,1,7.86,8.53a2.62,2.62,0,0,1,0-.28V7.92A1.58,1.58,0,0,1,9.32,6.24h.24a1.57,1.57,0,0,1,1.68,1.48.74.74,0,0,1,0,.21Z" transform="translate(1.47 1.47)"/>
  </g>
</svg>
