<svg id="Layer_1" data-name="Layer 1" xmlns="http://www.w3.org/2000/svg" width="15.07" height="15.07" viewBox="0 0 15.07 15.07">
  <defs>
    <style>
      .cls-1 {
        fill: #a3a5a8;
      }
    </style>
  </defs>
  <g>
    <path class="cls-1" d="M10.46,6.78a1.12,1.12,0,0,0-1.1,1h2.06A.93.93,0,0,0,10.46,6.78Z" transform="translate(0.04)"/>
    <path class="cls-1" d="M5.78,7.75H4V9.43H5.69c.26,0,.75-.08.75-.82S5.78,7.75,5.78,7.75Z" transform="translate(0.04)"/>
    <path class="cls-1" d="M7.5,0A7.54,7.54,0,1,0,15,7.54,7.54,7.54,0,0,0,7.5,0ZM9.09,4.63h2.59V5.4H9.09ZM7.78,8.69a1.87,1.87,0,0,1-2,1.86H2.51V4.26H5.78A1.61,1.61,0,0,1,7.56,5.93a1.09,1.09,0,0,1-1,1.2C7.86,7.13,7.78,8.69,7.78,8.69Zm4.85-.1H9.37a1,1,0,0,0,1.11,1.09c1,0,1-.67,1-.67h1.1c0,1.79-2.15,1.67-2.15,1.67A2.23,2.23,0,0,1,8,8.28a2.37,2.37,0,0,1,2.42-2.42C13,5.86,12.63,8.59,12.63,8.59Z" transform="translate(0.04)"/>
    <path class="cls-1" d="M6.22,6c0-.65-.44-.65-.44-.65H4v1.4H5.67C6,6.78,6.22,6.69,6.22,6Z" transform="translate(0.04)"/>
  </g>
</svg>
