<svg id="Layer_1" data-name="Layer 1" xmlns="http://www.w3.org/2000/svg" width="15" height="15" viewBox="0 0 15 15">
  <defs>
    <style>
      .cls-1 {
        fill: #a3a5a8;
		fill-opacity:1;
      }
    </style>
  </defs>
  <path class="cls-1" d="M7.5,15A7.5,7.5,0,1,0,0,7.5,7.5,7.5,0,0,0,7.5,15Zm0-1.75a5.62,5.62,0,0,1-3.28-1A8.19,8.19,0,0,1,8.37,9a25.1,25.1,0,0,1,1.11,4A5.77,5.77,0,0,1,7.5,13.25Zm3.65-1.31a26.23,26.23,0,0,0-.94-3.43c.25,0,.52,0,.78,0a9.14,9.14,0,0,1,2.12.25A5.75,5.75,0,0,1,11.15,11.94Zm1.06-7.72a5.79,5.79,0,0,1,1,2.8,15.05,15.05,0,0,0-2.46-.21,11.09,11.09,0,0,0-1.18.06l0-.07c-.08-.18-.16-.37-.25-.56A8.94,8.94,0,0,0,12.21,4.22ZM7.5,1.77A5.76,5.76,0,0,1,11.05,3,7.06,7.06,0,0,1,8.51,4.7C7.81,3.46,7.1,2.4,6.69,1.82A5.51,5.51,0,0,1,7.5,1.77Zm-2.71.67C5.13,2.92,5.87,4,6.62,5.29A23.11,23.11,0,0,1,2,5.9,5.81,5.81,0,0,1,4.79,2.44Zm2.7,4.44.18.39A10,10,0,0,0,2.93,11,5.69,5.69,0,0,1,1.76,7.68,23,23,0,0,0,7.49,6.88Z" transform="translate(0)"/>
</svg>
