<svg id="Layer_1" data-name="Layer 1" xmlns="http://www.w3.org/2000/svg" width="15" height="15" viewBox="0 0 15 15">
  <defs>
    <style>
      .cls-1 {
        fill: #a3a5a8;
		fill-opacity:1;
      }
    </style>
  </defs>
  <path class="cls-1" d="M0,7.5H0A7.5,7.5,0,0,0,7.5,15h0A7.5,7.5,0,0,0,15,7.5h0A7.5,7.5,0,0,0,7.5,0h0A7.5,7.5,0,0,0,0,7.5ZM12.46,3.55l-.8.78a.22.22,0,0,0-.09.22v5.67a.22.22,0,0,0,.09.22l.78.78v.16H8.49v-.16l.81-.79c.08-.08.08-.11.08-.23V5.62L7.12,11.37h-.3L4.18,5.62V9.47a.51.51,0,0,0,.15.44L5.39,11.2v.17h-3V11.2L3.44,9.91a.48.48,0,0,0,.14-.44V5a.37.37,0,0,0-.13-.33L2.51,3.55V3.38H5.43l2.26,5,2-5h2.78Z" transform="translate(0 0)"/>
</svg>
