<?xml version="1.0" encoding="utf-8"?>
<!-- Generator: Adobe Illustrator 24.3.0, SVG Export Plug-In . SVG Version: 6.00 Build 0)  -->
<svg version="1.1" id="Layer_1" xmlns="http://www.w3.org/2000/svg" xmlns:xlink="http://www.w3.org/1999/xlink" x="0px" y="0px"
	 viewBox="0 0 15 15" style="enable-background:new 0 0 15 15;" xml:space="preserve">
<style type="text/css">
	.st0{display:none;}
	.st1{display:inline;fill:#A3A5A8;}
	.st2{fill:#A3A5A8;}
</style>
<g id="XMLID_806_" class="st0">
	<path id="XMLID_810_" class="st1" d="M7.5,15c4.14,0,7.5-3.36,7.5-7.5C15,3.36,11.64,0,7.5,0S0,3.36,0,7.5C0,11.64,3.36,15,7.5,15z
		 M7.5,13.25c-1.19,0-2.32-0.36-3.28-1.03c0.39-0.65,1.59-2.29,4.15-3.27c0.65,1.75,0.97,3.25,1.11,3.95
		C8.85,13.13,8.18,13.25,7.5,13.25z M11.15,11.94c-0.14-0.71-0.44-1.95-0.95-3.42c0.26-0.03,0.52-0.04,0.79-0.04
		c0.93,0,1.71,0.16,2.12,0.26C12.84,9.99,12.14,11.12,11.15,11.94z M12.21,4.22c0.58,0.83,0.93,1.79,1.01,2.8
		c-0.53-0.09-1.43-0.2-2.46-0.2c-0.41,0-0.8,0.02-1.18,0.06C9.57,6.85,9.56,6.82,9.55,6.8C9.47,6.62,9.39,6.43,9.3,6.24
		C10.83,5.55,11.76,4.71,12.21,4.22z M7.5,1.77c1.29,0,2.54,0.43,3.55,1.23C10.7,3.38,9.9,4.12,8.51,4.7
		C7.81,3.46,7.1,2.4,6.69,1.82C6.96,1.78,7.23,1.77,7.5,1.77z M4.79,2.44C5.13,2.92,5.87,4,6.62,5.29C4.61,5.77,2.83,5.88,1.99,5.9
		C2.42,4.43,3.44,3.17,4.79,2.44z M7.49,6.88c0.07,0.13,0.13,0.26,0.19,0.39c-2.55,0.88-4.13,2.83-4.74,3.72
		C2.2,10.03,1.79,8.88,1.76,7.68C2.65,7.67,5.01,7.58,7.49,6.88z"/>
</g>
<g id="pinterest_2_">
	<g>
		<path class="st2" d="M7.5,0C3.36,0,0,3.36,0,7.5c0,3.07,1.85,5.71,4.49,6.87c-0.02-0.52,0-1.15,0.13-1.72
			c0.14-0.61,0.97-4.09,0.97-4.09S5.35,8.08,5.35,7.37c0-1.11,0.64-1.94,1.45-1.94c0.68,0,1.01,0.51,1.01,1.13
			c0,0.69-0.44,1.71-0.66,2.66c-0.19,0.8,0.4,1.44,1.18,1.44c1.42,0,2.38-1.83,2.38-3.99c0-1.64-1.11-2.87-3.12-2.87
			c-2.28,0-3.69,1.7-3.69,3.59c0,0.65,0.19,1.11,0.49,1.47C4.52,9.03,4.54,9.1,4.49,9.28c-0.04,0.14-0.12,0.47-0.15,0.6
			c-0.05,0.19-0.2,0.26-0.38,0.19C2.92,9.64,2.43,8.5,2.43,7.21c0-2.13,1.8-4.68,5.36-4.68c2.86,0,4.75,2.07,4.75,4.3
			c0,2.94-1.64,5.14-4.05,5.14c-0.81,0-1.57-0.44-1.83-0.94c0,0-0.44,1.73-0.53,2.06c-0.16,0.58-0.47,1.16-0.75,1.61
			C6.05,14.89,6.76,15,7.5,15c4.14,0,7.5-3.36,7.5-7.5C15,3.36,11.64,0,7.5,0z"/>
	</g>
</g>
</svg>
