<svg xmlns="http://www.w3.org/2000/svg" width="872.98" height="690.206" viewBox="0 0 872.98 690.206">
  <g id="Group_992" transform="translate(-2160 6850)">
    <path id="Path_5148" d="M429.61,61.258c-34.1-13.864-70.134-25.439-106.915-23.984-54.08,2.128-105.948,34.661-131.41,82.42-21.578,40.464-24.24,87.89-33.531,132.795-11.466,55.334-33.392,107.9-56.819,159.316-12.58,27.62-25.856,55.837-27.914,86.119C70.15,539.95,90.243,581.837,121.762,609.8s73.36,42.715,115.364,45.933c22.352,1.71,45.709.124,65.57-10.282,21-11,36.317-30.893,57.4-41.74,19.543-10.058,42.406-11.474,64.347-10.159a288.333,288.333,0,0,1,84.006,17.857c30.669,11.52,59.187,28.193,89.786,39.876s64.788,18.189,96.068,8.449c29.354-9.153,52.611-31.381,73.5-53.9A943,943,0,0,0,861.55,487.234c18.885-28.286,36.463-58.134,44.819-91.109,15.961-63.04-6.012-134.164-54.746-177.173-40.355-35.69-94.544-51.164-147.588-60.587-48.371-8.565-104.3-9.1-148.825-31.427C512.75,105.644,474.112,79.362,429.61,61.258Z" transform="translate(2087.251 -6887.15)" fill="#0058ff" opacity="0.04"/>
    <g id="Group_991" >
      <g id="Group_535" transform="translate(2653.234 -6311)">
        <path id="Path_10" d="M8,0,6.545,1.455l5.506,5.506H0V9.039H12.052L6.545,14.545,8,16l8-8Z" transform="translate(0 16) rotate(-90)" fill="#fff"/>
      </g>
      <circle id="Ellipse_910" cx="96.609" cy="96.609" r="96.609" transform="translate(2309.234 -6569.959)" fill="#f2f2f2"/>
      <circle id="Ellipse_911" cx="96.609" cy="96.609" r="96.609" transform="translate(2324.943 -6584.098)" fill="#b0bffc"/>
      <path id="Path_5775" d="M335.8,678.148A120.172,120.172,0,1,1,455.97,557.977,120.172,120.172,0,0,1,335.8,678.148Zm0-238.772a118.6,118.6,0,1,0,118.6,118.6,118.6,118.6,0,0,0-118.6-118.6Z" transform="translate(2170.58 -6963.779)" fill="#3f3d56"/>
      <path id="Path_5776" d="M729.343,221.836H726.27V137.648a48.726,48.726,0,0,0-48.726-48.726H499.179a48.726,48.726,0,0,0-48.726,48.726V599.511a48.726,48.726,0,0,0,48.726,48.726H677.543a48.726,48.726,0,0,0,48.726-48.726V281.763h3.073Z" transform="translate(2120.193 -6888.922)" fill="#3f3d56"/>
      <rect id="Rectangle_1653" width="494.187" height="1.883" transform="translate(2538.793 -6242.194)" fill="#3f3d56"/>
      <path id="Path_5777" d="M681.715,106.529H658.433a17.288,17.288,0,0,1-16.006,23.817H540.244a17.288,17.288,0,0,1-16.006-23.817H502.492A36.389,36.389,0,0,0,466.1,142.921V604.1a36.388,36.388,0,0,0,36.388,36.388H681.715A36.387,36.387,0,0,0,718.1,604.1V142.917a36.388,36.388,0,0,0-36.388-36.388Z" transform="translate(2116.9 -6892.529)" fill="#9aaeff"/>
      <rect id="Rectangle_1654" width="22.85" height="21.898" transform="translate(2966.298 -6752.43) rotate(180)" fill="#f2f2f2"/>
      <rect id="Rectangle_1655" width="21.898" height="21.898" transform="translate(2962.492 -6747.67) rotate(180)" fill="#9aaeff"/>
      <path id="Path_5787" d="M893.636,137.922h36.13v36.13h-36.13Zm34.559,1.571H895.206v32.988h32.988Z" transform="translate(2025.103 -6899.436)" fill="#3f3d56"/>
      <rect id="Rectangle_1656" width="22.85" height="21.898" transform="translate(2514.052 -6594.382)" fill="#f2f2f2"/>
      <rect id="Rectangle_1657" width="21.898" height="21.898" transform="translate(2518.812 -6598.19)" fill="#9aaeff"/>
      <path id="Path_5788" d="M430.766,353.052h-36.13v-36.13h36.13Zm-34.559-1.571H429.2V318.493H396.206Z" transform="translate(2132.171 -6937.842)" fill="#3f3d56"/>
      <g id="Group_688" transform="translate(1450.234 -7005)">
        <path id="Path_6803" d="M853.55,510.77s-13.7,28.547-4.568,29.689S860.4,514.767,860.4,514.767Z" transform="translate(581.123 98.565)" fill="#ffb9b9"/>
        <path id="Path_6804" d="M801.683,654.464l-9.135,16.189L809.1,681.014l3.954-19.116Z" transform="translate(684.947 137.575)" fill="#ffb9b9"/>
        <path id="Path_6805" d="M904.59,764.96s-5.016-8.167-6.83-6.8-9.3,7.29-9.3,7.29l-9.747,9.336s-32.931,3.482-12.006,15.02,32.489,1.971,32.489,1.971,29.307,1.524,28.835-6.653-9.925-21.113-9.925-21.113S906.2,772,904.59,764.96Z" transform="translate(578.141 45.516)" fill="#2f2e41"/>
        <path id="Path_6806" d="M904.59,764.96s-5.016-8.167-6.83-6.8-9.3,7.29-9.3,7.29l-9.747,9.336s-32.931,3.482-12.006,15.02,32.489,1.971,32.489,1.971,29.307,1.524,28.835-6.653-9.925-21.113-9.925-21.113S906.2,772,904.59,764.96Z" transform="translate(578.141 45.516)" opacity="0.1"/>
        <path id="Path_6807" d="M959.875,506.741l-8.564,103.628s-.285,61.948-9.421,73.938-9.421,17.985-9.421,17.985l-18.841-9.706s6.28-.571,3.426-4.568-11.419,0-3.426-5.71,9.706-5.9,7.708-8.372a13.8,13.8,0,0,1-2.569-5.331l5.139-63.947L914.2,493.324Z" transform="translate(567.293 102.308)" fill="#2f2e41"/>
        <path id="Path_6808" d="M959.875,506.741l-8.564,103.628s-.285,61.948-9.421,73.938-9.421,17.985-9.421,17.985l-18.841-9.706s6.28-.571,3.426-4.568-11.419,0-3.426-5.71,9.706-5.9,7.708-8.372a13.8,13.8,0,0,1-2.569-5.331l5.139-63.947L914.2,493.324Z" transform="translate(567.293 102.308)" opacity="0.1"/>
        <path id="Path_6809" d="M956.7,759.378" transform="translate(557.338 45.222)" fill="none" stroke="#3f3d56" stroke-miterlimit="10" stroke-width="1"/>
        <path id="Path_6810" d="M825.986,653.84l7.993,21.125,22.838-8.564-14.274-14.845Z" transform="translate(677.773 138.199)" fill="#ffb9b9"/>
        <path id="Path_6811" d="M948.727,756.749s-8.534-5.334-9.6-3.2-5.334,11.2-5.334,11.2l-4.8,13.334s-29.335,18.668-4.267,19.734,31.468-13.334,31.468-13.334,28.268-12.267,24-19.734-19.2-15.211-19.2-15.211S953.527,762.616,948.727,756.749Z" transform="translate(566.371 47.333)" fill="#2f2e41"/>
        <path id="Path_6812" d="M879.85,509.99l-4.568,95.349s22.267,63.375,41.679,73.653c0,0,0,12.561,4.568,14.845a11.465,11.465,0,0,1,5.709,6.851l25.122-6.28s-6.281-6.28-4-9.135-7.422-9.135-7.422-9.135L915.82,615.045s-4-1.713-5.138-7.422-3.426-5.71,2.284-6.851,5.709-6.851,5.709-6.851l18.841-86.785Z" transform="translate(574.807 99.344)" fill="#2f2e41"/>
        <circle id="Ellipse_3789" cx="22.838" cy="22.838" r="22.838" transform="translate(1452.373 414.069)" fill="#ffb9b9"/>
        <path id="Path_6813" d="M927.588,293.056s1.713,29.118,4,31.973-23.98,2.284-23.98,2.284,1.713-24.551,0-26.835S927.588,293.056,927.588,293.056Z" transform="translate(567.893 145.278)" fill="#ffb9b9"/>
        <path id="Path_6814" d="M929.161,322.4s-21.7-2.284-29.689,4.568a58.752,58.752,0,0,1-8.177,5.85,16.77,16.77,0,0,0-8.137,13.886l-4.24,129.854s64.518-5.709,76.508,0c0,0,.571-13.132,1.713-14.845.832-1.249,2.272-51.047,2.991-77.945a59.228,59.228,0,0,0-14.99-41.337c-3.46-3.83-7.327-7.041-11.409-8.611C933.729,333.816,934.87,322.968,929.161,322.4Z" transform="translate(574.027 139.061)" fill="#575a89"/>
        <path id="Path_6815" d="M888.094,336.994h0a16.865,16.865,0,0,0-12.409,13.963l-8.146,57.977L856.12,455.181s-5.71,5.139-3.426,7.993-2.855,14.845-2.855,14.845l14.274,4.568s1.713-11.99,4.568-12.561c2.509-.5,30.594-75.526,37.363-93.7.933-2.506,1.462-3.931,1.462-3.931S906.365,334.139,888.094,336.994Z" transform="translate(580.266 135.884)" fill="#575a89"/>
        <path id="Path_6816" d="M913.46,381.741l-34.543,93.447S912.318,412,913.46,381.741Z" transform="translate(574.027 126.25)" opacity="0.1"/>
        <path id="Path_6817" d="M910.674,288.46c-1.931-.115-3.817.537-5.735.792a14.517,14.517,0,0,1-15.516-10.823,8.3,8.3,0,0,0-.794-2.586c-1.056-1.724-3.461-2.053-5.444-1.657s-3.862,1.324-5.882,1.43a9.006,9.006,0,0,1-7.773-4.4,14.916,14.916,0,0,1-1.908-9.01l1.5,1.569a7.591,7.591,0,0,0,.677-4.126,4.787,4.787,0,0,1,4.535,1.16c1.318.14.323-2.445,1.3-3.338a2.265,2.265,0,0,1,1.593-.3c2.8.027,5.072-2.117,7.281-3.844a30.939,30.939,0,0,1,13.068-5.961,17.192,17.192,0,0,1,9.535.462,20.364,20.364,0,0,1,6.439,4.568c4.7,4.52,8.863,9.831,10.819,16.052a27.023,27.023,0,0,1,.13,15.669c-.788,2.66-3.163,11.768-6.64,11.98C913.489,296.368,916.112,288.784,910.674,288.46Z" transform="translate(576.469 155.177)" fill="#2f2e41"/>
      </g>
      <g id="Group_990" transform="translate(0 7.171)">
        <g id="Group_989" transform="translate(369 -444.279)">
          <path id="Path_8139" d="M45.693,65.74s-5.753,3.5,4,4.5c11.759,1.5,18.011,1.249,31.022-1.249a46.918,46.918,0,0,0,8.257,4c-29.271,12.509-66.3-.749-43.284-7.254ZM41.939,49.476s-6.256,4.754,3.5,5.753c12.761,1.249,22.766,1.5,40.031-2a15.265,15.265,0,0,0,6,3.753c-35.274,10.507-74.806,1-49.539-7.5ZM110.99,78s4.255,3.5-4.754,6.256c-16.763,5-70.3,6.505-85.313,0-5.254-2.248,4.754-5.5,8.007-6a24.984,24.984,0,0,1,5-.749c-5.753-4-38.28,8.256-16.544,11.759C77.183,99.019,126.469,85.009,110.958,78ZM48.445,32.464s-27.27,6.505-9.758,8.757c7.5,1,22.266.749,36.023-.249,11.259-1,22.516-3,22.516-3a59.773,59.773,0,0,0-6.755,3.5c-27.769,7.252-81.061,4-65.8-3.5,13.011-6.256,23.768-5.5,23.768-5.5Zm48.79,27.27c28.019-14.515,15.015-28.522,6.006-26.771a15.756,15.756,0,0,0-3.253,1,4.283,4.283,0,0,1,2.5-2c17.762-6.256,31.778,18.761-5.753,28.522a3.091,3.091,0,0,0,.5-.749ZM51.2,99.262c27.02,1.748,68.3-1,69.3-13.76,0,0-2,5-22.266,8.756-23.019,4.255-51.506,3.753-68.3,1,0,0,3.5,3,21.264,4Z" transform="translate(2275.007 -6167.796)" fill="#fff"/>
          <path id="Path_8140" d="M55.955,5S71.469,20.764,41.191,44.528c-24.267,19.26-5.5,30.273,0,42.781C26.932,74.552,16.674,63.292,23.71,52.786,33.942,37.277,62.211,29.77,55.955,5ZM47.947,76.8c7.254,8.257-2,15.764-2,15.764S64.46,83.058,55.957,71.3C48.2,60.04,42.2,54.536,74.718,35.776c0,0-51.287,12.761-26.771,41.03Z" transform="translate(2299.269 -6222.892)" fill="#fff"/>
        </g>
        <path id="Path_8141" d="M141.322,93.967v-44.2c0-11.278-6.315-18.944-22.1-18.944a62.034,62.034,0,0,0-23.456,4.959L98.02,43.9a53.387,53.387,0,0,1,18.042-3.609c8.571,0,12.63,3.609,12.63,10.826v5.863H124.18c-21.648,0-31.6,8.118-31.6,21.2,0,10.826,6.767,17.141,18.944,17.141,7.669,0,13.531-3.609,18.944-8.118l.9,6.767H141.3Zm-12.63-14.433c-4.511,4.059-9.472,6.315-13.983,6.315-5.863,0-9.472-3.609-9.472-9.924S108.847,65.1,123.28,65.1h5.413V79.531Zm55.029,14.433H167.936L148.991,32.173h13.531l11.728,37.889,2.705,11.278c5.865-16.237,10.373-32.928,12.177-49.164h13.531c-3.609,20.3-9.922,42.4-18.944,61.794Zm73.069,0v-44.2c0-11.278-6.315-18.944-22.1-18.944a62.034,62.034,0,0,0-23.456,4.959l1.8,8.118c5.413-1.8,11.728-3.609,18.492-3.609,8.57,0,12.629,3.609,12.629,10.826v5.863h-4.511c-21.648,0-31.6,8.118-31.6,21.2,0,10.826,6.315,17.141,18.492,17.141,8.118,0,13.983-3.609,19.4-8.118l.9,6.767h9.924ZM244.162,79.534c-4.511,4.059-9.472,6.315-13.983,6.315-5.863,0-9.472-3.609-9.472-9.924S224.314,65.1,238.749,65.1h5.413V79.531Zm-165.535,24.8A29.989,29.989,0,0,1,62.84,116.066l-5.865-7.219C61.486,106.142,66,102.083,67.8,98.474c1.8-3.16,2.256-7.669,2.256-18.042V10.064H83.588V79.526c0,13.983-1.355,19.4-4.959,24.807Z" transform="translate(2552.025 -6507.064)" fill="#fff"/>
      </g>
    </g>
  </g>
</svg>
