<svg xmlns="http://www.w3.org/2000/svg" xmlns:xlink="http://www.w3.org/1999/xlink" width="579.225" height="465" viewBox="0 0 579.225 465">
    <defs>
        <style>
            .cls-1,.cls-10,.cls-11,.cls-9{fill:none}.cls-2{clip-path:url(#clip-path)}.cls-3{fill:rgba(5,133,236,.32);opacity:.38}.cls-27,.cls-3,.cls-7{isolation:isolate}.cls-4{fill:#f0f2f5}.cls-5{fill:#2a94f4}.cls-6{fill:#62b4f8}.cls-7{opacity:.2}.cls-8{fill:#fff}.cls-9{stroke:#82d67c}.cls-10,.cls-11,.cls-9{stroke-linecap:round;stroke-linejoin:round;stroke-width:1.884px}.cls-10{stroke:#e2e2e2}.cls-11{stroke:#57b1f5}.cls-12{fill:#f2f2f2}.cls-13{fill:#e2f3ff}.cls-14{fill:#dfdfdf}.cls-15{fill:#4eadff}.cls-16{fill:#fcd2b1}.cls-17{fill:#ffe1bd}.cls-18{fill:#0b4870}.cls-19{fill:#df4dc0}.cls-20{fill:#f7b094}.cls-21{fill:#a8a7a5}.cls-22{fill:url(#radial-gradient)}.cls-23{fill:url(#radial-gradient-2)}.cls-24{fill:#ffbe55}.cls-25{fill:#f2a940}.cls-26{fill:#e8987c}.cls-27{fill:#6d4b35;mix-blend-mode:screen}.cls-28{fill:#ccc}.cls-29{fill:#bcbfc3}.cls-30{fill:#e0932d}
        </style>
        <clipPath id="clip-path">
            <path id="SVGID" d="M1582.509 214.056a157.289 157.289 0 0 0-19.751 13.234c-21.051 16.6-37.985 40.769-58.672 57.423-19.534 15.723-43.389 19.547-65.741 22.172-38.962 4.582-120.225 48.518-105.552 129.951 5.338 29.636 24.163 49.762 33.8 76.6 10.252 28.548 9.176 64.154 25.5 88.9 7.181 10.882 17.094 18.07 27.271 23.514 67.729 36.219 143.787 34.536 215.6 30.542 56.684-3.152 147.726 13.5 197.515-27.164 24.718-20.193 11.864-75.388 28.968-105.035 14.376-24.911 33.938-41.27 43.546-72.454 16.352-53.062-6.957-122.113-47.77-140.948-25.5-11.769-52.522-17.163-77.731-30.088-26.047-13.36-36.083-33.372-55.945-57.053-35.902-42.811-97.017-34.597-141.038-9.594z" class="cls-1" transform="translate(-1331.042 -193.42)"/>
        </clipPath>
        <radialGradient id="radial-gradient" cx=".5" cy=".5" r=".531" gradientTransform="matrix(-.891 0 0 1 -344.9 0)">
            <stop offset="0" stop-color="#ffc8af"/>
            <stop offset="1" stop-color="#ffbb9c"/>
        </radialGradient>
        <radialGradient id="radial-gradient-2" cx=".5" cy=".5" r=".511" gradientTransform="matrix(-.958 0 0 1 -418.799 0)" xlink:href="#radial-gradient"/>
    </defs>
    <g id="Group_58627" data-name="Group 58627" transform="translate(-1331.042 -230.824)">
        <g id="Group_58673" data-name="Group 58673" transform="translate(0 37.404)">
            <g id="Group_58672" data-name="Group 58672" transform="translate(1331.042 193.42)">
                <g id="Group_58671" class="cls-2" data-name="Group 58671">
                    <path id="Union_16" d="M2008.327 729.888v-4.108h3.85v4.108zm-15.378 0v-4.108h3.845v4.108zm-15.377 0v-4.108h3.844v4.108zm-15.376 0v-4.108h3.843v4.108zm-15.377 0v-4.108h3.843v4.108zm-15.377 0v-4.108h3.844v4.108zm-15.378 0v-4.108h3.845v4.108zm-15.376 0v-4.108h3.85v4.108zm-15.377 0v-4.108h3.843v4.108zm-15.377 0v-4.108h3.843v4.108zm-15.377 0v-4.108h3.844v4.108zm-15.377 0v-4.108h3.844v4.108zm-15.377 0v-4.108h3.843v4.108zm-15.377 0v-4.108h3.843v4.108zm-15.377 0v-4.108h3.844v4.108zm-15.377 0v-4.108h3.844v4.108zm-15.376 0v-4.108h3.843v4.108zm-15.378 0v-4.108h3.844v4.108zm-15.377 0v-4.108h3.844v4.108zm-15.111 0v-4.108h3.858v4.108zm-15.376 0v-4.108h3.844v4.108zm-15.377 0v-4.108h3.844v4.108zm-15.377 0v-4.108h3.845v4.108zm-15.377 0v-4.108h3.845v4.108zm-15.376 0v-4.108h3.844v4.108zm-15.377 0v-4.108h3.844v4.108zm-15.377 0v-4.108h3.857v4.108zm-15.377 0v-4.108h3.844v4.108zm-15.377 0v-4.108h3.844v4.108zm-15.376 0v-4.108h3.843v4.108zm-15.377 0v-4.108h3.843v4.108zm-15.377 0v-4.108h3.845v4.108zm-15.377 0v-4.108h3.844v4.108zm-15.376 0v-4.108h3.856v4.108zm-15.377 0v-4.108h3.843v4.108zm-15.377 0v-4.108h3.843v4.108zm-15.377 0v-4.108h3.844v4.108zm-15.377 0v-4.108h3.844v4.108zm-15.377 0v-4.108h3.844v4.108zm-15.377 0v-4.108h3.844v4.108zm-15.377 0v-4.108h3.845v4.108zm-15.377 0v-4.108h3.845v4.108zm-15.377 0v-4.108h3.861v4.108zm-15.377 0v-4.108h3.844v4.108zm-15.358 0v-4.108h3.843v4.108zm676.3-16.431v-4.108h3.85v4.108zm-15.378 0v-4.108h3.845v4.108zm-15.377 0v-4.108h3.844v4.108zm-15.376 0v-4.108h3.843v4.108zm-15.377 0v-4.108h3.843v4.108zm-15.377 0v-4.108h3.844v4.108zm-15.378 0v-4.108h3.845v4.108zm-15.376 0v-4.108h3.85v4.108zm-15.377 0v-4.108h3.843v4.108zm-15.377 0v-4.108h3.843v4.108zm-15.377 0v-4.108h3.844v4.108zm-15.377 0v-4.108h3.844v4.108zm-15.377 0v-4.108h3.843v4.108zm-15.377 0v-4.108h3.843v4.108zm-15.377 0v-4.108h3.844v4.108zm-15.377 0v-4.108h3.844v4.108zm-15.376 0v-4.108h3.843v4.108zm-15.378 0v-4.108h3.844v4.108zm-15.377 0v-4.108h3.844v4.108zm-15.111 0v-4.108h3.858v4.108zm-15.376 0v-4.108h3.844v4.108zm-15.377 0v-4.108h3.844v4.108zm-15.377 0v-4.108h3.845v4.108zm-15.377 0v-4.108h3.845v4.108zm-15.376 0v-4.108h3.844v4.108zm-15.377 0v-4.108h3.844v4.108zm-15.377 0v-4.108h3.857v4.108zm-15.377 0v-4.108h3.844v4.108zm-15.377 0v-4.108h3.844v4.108zm-15.376 0v-4.108h3.843v4.108zm-15.377 0v-4.108h3.843v4.108zm-15.377 0v-4.108h3.845v4.108zm-15.377 0v-4.108h3.844v4.108zm-15.376 0v-4.108h3.856v4.108zm-15.377 0v-4.108h3.843v4.108zm-15.377 0v-4.108h3.843v4.108zm-15.377 0v-4.108h3.844v4.108zm-15.377 0v-4.108h3.844v4.108zm-15.377 0v-4.108h3.844v4.108zm-15.377 0v-4.108h3.844v4.108zm-15.377 0v-4.108h3.845v4.108zm-15.377 0v-4.108h3.845v4.108zm-15.377 0v-4.108h3.861v4.108zm-15.377 0v-4.108h3.844v4.108zm-15.358 0v-4.108h3.843v4.108zm676.3-16.43v-4.109h3.85v4.109zm-15.378 0v-4.109h3.845v4.109zm-15.377 0v-4.109h3.844v4.109zm-15.376 0v-4.109h3.843v4.109zm-15.377 0v-4.109h3.843v4.109zm-15.377 0v-4.109h3.844v4.109zm-15.378 0v-4.109h3.845v4.109zm-15.376 0v-4.109h3.85v4.109zm-15.377 0v-4.109h3.843v4.109zm-15.377 0v-4.109h3.843v4.109zm-15.377 0v-4.109h3.844v4.109zm-15.377 0v-4.109h3.844v4.109zm-15.377 0v-4.109h3.843v4.109zm-15.377 0v-4.109h3.843v4.109zm-15.377 0v-4.109h3.844v4.109zm-15.377 0v-4.109h3.844v4.109zm-15.376 0v-4.109h3.843v4.109zm-15.378 0v-4.109h3.844v4.109zm-15.377 0v-4.109h3.844v4.109zm-15.111 0v-4.109h3.858v4.109zm-15.376 0v-4.109h3.844v4.109zm-15.377 0v-4.109h3.844v4.109zm-15.377 0v-4.109h3.845v4.109zm-15.377 0v-4.109h3.845v4.109zm-15.376 0v-4.109h3.844v4.109zm-15.377 0v-4.109h3.844v4.109zm-15.377 0v-4.109h3.857v4.109zm-15.377 0v-4.109h3.844v4.109zm-15.377 0v-4.109h3.844v4.109zm-15.376 0v-4.109h3.843v4.109zm-15.377 0v-4.109h3.843v4.109zm-15.377 0v-4.109h3.845v4.109zm-15.377 0v-4.109h3.844v4.109zm-15.376 0v-4.109h3.856v4.109zm-15.377 0v-4.109h3.843v4.109zm-15.377 0v-4.109h3.843v4.109zm-15.377 0v-4.109h3.844v4.109zm-15.377 0v-4.109h3.844v4.109zm-15.377 0v-4.109h3.844v4.109zm-15.377 0v-4.109h3.844v4.109zm-15.377 0v-4.109h3.845v4.109zm-15.377 0v-4.109h3.845v4.109zm-15.377 0v-4.109h3.861v4.109zm-15.377 0v-4.109h3.844v4.109zm-15.358 0v-4.109h3.843v4.109zm676.3-16.431v-4.109h3.85v4.113zm-15.378 0v-4.109h3.845v4.113zm-15.377 0v-4.109h3.844v4.113zm-15.376 0v-4.109h3.843v4.113zm-15.377 0v-4.109h3.843v4.113zm-15.377 0v-4.109h3.844v4.113zm-15.378 0v-4.109h3.845v4.113zm-15.376 0v-4.109h3.85v4.113zm-15.377 0v-4.109h3.843v4.113zm-15.377 0v-4.109h3.843v4.113zm-15.377 0v-4.109h3.844v4.113zm-15.377 0v-4.109h3.844v4.113zm-15.377 0v-4.109h3.843v4.113zm-15.377 0v-4.109h3.843v4.113zm-15.377 0v-4.109h3.844v4.113zm-15.377 0v-4.109h3.844v4.113zm-15.376 0v-4.109h3.843v4.113zm-15.378 0v-4.109h3.844v4.113zm-15.377 0v-4.109h3.844v4.113zm-15.111 0v-4.109h3.858v4.113zm-15.376 0v-4.109h3.844v4.113zm-15.377 0v-4.109h3.844v4.113zm-15.377 0v-4.109h3.845v4.113zm-15.377 0v-4.109h3.845v4.113zm-15.376 0v-4.109h3.844v4.113zm-15.377 0v-4.109h3.844v4.113zm-15.377 0v-4.109h3.857v4.113zm-15.377 0v-4.109h3.844v4.113zm-15.377 0v-4.109h3.844v4.113zm-15.376 0v-4.109h3.843v4.113zm-15.377 0v-4.109h3.843v4.113zm-15.377 0v-4.109h3.845v4.113zm-15.377 0v-4.109h3.844v4.113zm-15.376 0v-4.109h3.856v4.113zm-15.377 0v-4.109h3.843v4.113zm-15.377 0v-4.109h3.843v4.113zm-15.377 0v-4.109h3.844v4.113zm-15.377 0v-4.109h3.844v4.113zm-15.377 0v-4.109h3.844v4.113zm-15.377 0v-4.109h3.844v4.113zm-15.377 0v-4.109h3.845v4.113zm-15.377 0v-4.109h3.845v4.113zm-15.377 0v-4.109h3.861v4.113zm-15.377 0v-4.109h3.844v4.113zm-15.358 0v-4.109h3.843v4.113zm676.3-16.431v-4.107h3.85v4.107zm-15.378 0v-4.107h3.845v4.107zm-15.377 0v-4.107h3.844v4.107zm-15.376 0v-4.107h3.843v4.107zm-15.377 0v-4.107h3.843v4.107zm-15.377 0v-4.107h3.844v4.107zm-15.378 0v-4.107h3.845v4.107zm-15.376 0v-4.107h3.85v4.107zm-15.377 0v-4.107h3.843v4.107zm-15.377 0v-4.107h3.843v4.107zm-15.377 0v-4.107h3.844v4.107zm-15.377 0v-4.107h3.844v4.107zm-15.377 0v-4.107h3.843v4.107zm-15.377 0v-4.107h3.843v4.107zm-15.377 0v-4.107h3.844v4.107zm-15.377 0v-4.107h3.844v4.107zm-15.376 0v-4.107h3.843v4.107zm-15.378 0v-4.107h3.844v4.107zm-15.377 0v-4.107h3.844v4.107zm-15.111 0v-4.107h3.858v4.107zm-15.376 0v-4.107h3.844v4.107zm-15.377 0v-4.107h3.844v4.107zm-15.377 0v-4.107h3.845v4.107zm-15.377 0v-4.107h3.845v4.107zm-15.376 0v-4.107h3.844v4.107zm-15.377 0v-4.107h3.844v4.107zm-15.377 0v-4.107h3.857v4.107zm-15.377 0v-4.107h3.844v4.107zm-15.377 0v-4.107h3.844v4.107zm-15.376 0v-4.107h3.843v4.107zm-15.377 0v-4.107h3.843v4.107zm-15.377 0v-4.107h3.845v4.107zm-15.377 0v-4.107h3.844v4.107zm-15.376 0v-4.107h3.856v4.107zm-15.377 0v-4.107h3.843v4.107zm-15.377 0v-4.107h3.843v4.107zm-15.377 0v-4.107h3.844v4.107zm-15.377 0v-4.107h3.844v4.107zm-15.377 0v-4.107h3.844v4.107zm-15.377 0v-4.107h3.844v4.107zm-15.377 0v-4.107h3.845v4.107zm-15.377 0v-4.107h3.845v4.107zm-15.377 0v-4.107h3.861v4.107zm-15.377 0v-4.107h3.844v4.107zm-15.358 0v-4.107h3.843v4.107zm676.3-16.433v-4.108h3.845v4.108zm-15.378 0v-4.108h3.846v4.108zm-15.377 0v-4.108h3.845v4.108zm-15.376 0v-4.108h3.844v4.108zm-15.377 0v-4.108h3.844v4.108zm-15.377 0v-4.108h3.845v4.108zm-15.378 0v-4.108h3.846v4.108zm-15.376 0v-4.108h3.845v4.108zm-15.377 0v-4.108h3.844v4.108zm-15.377 0v-4.108h3.844v4.108zm-15.377 0v-4.108h3.845v4.108zm-15.377 0v-4.108h3.845v4.108zm-15.377 0v-4.108h3.844v4.108zm-15.377 0v-4.108h3.844v4.108zm-15.377 0v-4.108h3.845v4.108zm-15.377 0v-4.108h3.845v4.108zm-15.376 0v-4.108h3.844v4.108zm-15.377 0v-4.108h3.844v4.108zm-15.369 0v-4.108h3.843v4.108zm-15.111 0v-4.108h3.844v4.108zm-15.377 0v-4.108h3.844v4.108zm-15.377 0v-4.108h3.844v4.108zm-15.377 0v-4.108h3.845v4.108zm-15.377 0v-4.108h3.845v4.108zm-15.376 0v-4.108h3.844v4.108zm-15.377 0v-4.108h3.844v4.108zm-15.377 0v-4.108h3.844v4.108zm-15.377 0v-4.108h3.845v4.108zm-15.377 0v-4.108h3.845v4.108zm-15.376 0v-4.108h3.844v4.108zm-15.377 0v-4.108h3.843v4.108zm-15.377 0v-4.108h3.845v4.108zm-15.377 0v-4.108h3.844v4.108zm-15.376 0v-4.108h3.843v4.108zm-15.377 0v-4.108h3.843v4.108zm-15.377 0v-4.108h3.843v4.108zm-15.377 0v-4.108h3.844v4.108zm-15.377 0v-4.108h3.844v4.108zm-15.377 0v-4.108h3.844v4.108zm-15.377 0v-4.108h3.844v4.108zm-15.377 0v-4.108h3.845v4.108zm-15.377 0v-4.108H1382v4.108zm-15.377 0v-4.108h3.848v4.108zm-15.377 0v-4.108h3.844v4.108zm-15.371 0v-4.108h3.843v4.108zm676.3-16.428v-4.109h3.85v4.105zm-15.378 0v-4.109h3.845v4.105zm-15.377 0v-4.109h3.844v4.105zm-15.376 0v-4.109h3.843v4.105zm-15.377 0v-4.109h3.843v4.105zm-15.377 0v-4.109h3.844v4.105zm-15.378 0v-4.109h3.845v4.105zm-15.376 0v-4.109h3.85v4.105zm-15.377 0v-4.109h3.843v4.105zm-15.377 0v-4.109h3.843v4.105zm-15.377 0v-4.109h3.844v4.105zm-15.377 0v-4.109h3.844v4.105zm-15.377 0v-4.109h3.843v4.105zm-15.377 0v-4.109h3.843v4.105zm-15.377 0v-4.109h3.844v4.105zm-15.377 0v-4.109h3.844v4.105zm-15.376 0v-4.109h3.843v4.105zm-15.378 0v-4.109h3.844v4.105zm-15.377 0v-4.109h3.844v4.105zm-15.111 0v-4.109h3.858v4.105zm-15.376 0v-4.109h3.844v4.105zm-15.377 0v-4.109h3.844v4.105zm-15.377 0v-4.109h3.845v4.105zm-15.377 0v-4.109h3.845v4.105zm-15.376 0v-4.109h3.844v4.105zm-15.377 0v-4.109h3.844v4.105zm-15.377 0v-4.109h3.857v4.105zm-15.377 0v-4.109h3.844v4.105zm-15.377 0v-4.109h3.844v4.105zm-15.376 0v-4.109h3.843v4.105zm-15.377 0v-4.109h3.843v4.105zm-15.377 0v-4.109h3.845v4.105zm-15.377 0v-4.109h3.844v4.105zm-15.376 0v-4.109h3.856v4.105zm-15.377 0v-4.109h3.843v4.105zm-15.377 0v-4.109h3.843v4.105zm-15.377 0v-4.109h3.844v4.105zm-15.377 0v-4.109h3.844v4.105zm-15.377 0v-4.109h3.844v4.105zm-15.377 0v-4.109h3.844v4.105zm-15.377 0v-4.109h3.845v4.105zm-15.377 0v-4.109h3.845v4.105zm-15.377 0v-4.109h3.861v4.105zm-15.377 0v-4.109h3.844v4.105zm-15.358 0v-4.109h3.843v4.105zm676.3-16.429v-4.109h3.845v4.109zm-15.378 0v-4.109h3.846v4.109zm-15.377 0v-4.109h3.845v4.109zm-15.376 0v-4.109h3.844v4.109zm-15.377 0v-4.109h3.844v4.109zm-15.377 0v-4.109h3.845v4.109zm-15.378 0v-4.109h3.846v4.109zm-15.376 0v-4.109h3.845v4.109zm-15.377 0v-4.109h3.844v4.109zm-15.377 0v-4.109h3.844v4.109zm-15.377 0v-4.109h3.845v4.109zm-15.377 0v-4.109h3.845v4.109zm-15.377 0v-4.109h3.844v4.109zm-15.377 0v-4.109h3.844v4.109zm-15.377 0v-4.109h3.845v4.109zm-15.377 0v-4.109h3.845v4.109zm-15.376 0v-4.109h3.844v4.109zm-15.377 0v-4.109h3.844v4.109zm-15.369 0v-4.109h3.843v4.109zm-15.111 0v-4.109h3.844v4.109zm-15.377 0v-4.109h3.844v4.109zm-15.377 0v-4.109h3.844v4.109zm-15.377 0v-4.109h3.845v4.109zm-15.377 0v-4.109h3.845v4.109zm-15.376 0v-4.109h3.844v4.109zm-15.377 0v-4.109h3.844v4.109zm-15.377 0v-4.109h3.844v4.109zm-15.377 0v-4.109h3.845v4.109zm-15.377 0v-4.109h3.845v4.109zm-15.376 0v-4.109h3.844v4.109zm-15.377 0v-4.109h3.843v4.109zm-15.377 0v-4.109h3.845v4.109zm-15.377 0v-4.109h3.844v4.109zm-15.376 0v-4.109h3.843v4.109zm-15.377 0v-4.109h3.843v4.109zm-15.377 0v-4.109h3.843v4.109zm-15.377 0v-4.109h3.844v4.109zm-15.377 0v-4.109h3.844v4.109zm-15.377 0v-4.109h3.844v4.109zm-15.377 0v-4.109h3.844v4.109zm-15.377 0v-4.109h3.845v4.109zm-15.377 0v-4.109h3.85v4.109zm-15.377 0v-4.109h3.848v4.109zm-15.377 0v-4.109h3.844v4.109zm-15.371 0v-4.109h3.843v4.109zm676.3-16.431v-4.108h3.85v4.108zm-15.378 0v-4.108h3.845v4.108zm-15.377 0v-4.108h3.844v4.108zm-15.376 0v-4.108h3.843v4.108zm-15.377 0v-4.108h3.843v4.108zm-15.377 0v-4.108h3.844v4.108zm-15.378 0v-4.108h3.845v4.108zm-15.376 0v-4.108h3.85v4.108zm-15.377 0v-4.108h3.843v4.108zm-15.377 0v-4.108h3.843v4.108zm-15.377 0v-4.108h3.844v4.108zm-15.377 0v-4.108h3.844v4.108zm-15.377 0v-4.108h3.843v4.108zm-15.377 0v-4.108h3.843v4.108zm-15.377 0v-4.108h3.844v4.108zm-15.377 0v-4.108h3.844v4.108zm-15.376 0v-4.108h3.843v4.108zm-15.378 0v-4.108h3.844v4.108zm-15.377 0v-4.108h3.844v4.108zm-15.111 0v-4.108h3.858v4.108zm-15.376 0v-4.108h3.844v4.108zm-15.377 0v-4.108h3.844v4.108zm-15.377 0v-4.108h3.845v4.108zm-15.377 0v-4.108h3.845v4.108zm-15.376 0v-4.108h3.844v4.108zm-15.377 0v-4.108h3.844v4.108zm-15.377 0v-4.108h3.857v4.108zm-15.377 0v-4.108h3.844v4.108zm-15.377 0v-4.108h3.844v4.108zm-15.376 0v-4.108h3.843v4.108zm-15.377 0v-4.108h3.843v4.108zm-15.377 0v-4.108h3.845v4.108zm-15.377 0v-4.108h3.844v4.108zm-15.376 0v-4.108h3.856v4.108zm-15.377 0v-4.108h3.843v4.108zm-15.377 0v-4.108h3.843v4.108zm-15.377 0v-4.108h3.844v4.108zm-15.377 0v-4.108h3.844v4.108zm-15.377 0v-4.108h3.844v4.108zm-15.377 0v-4.108h3.844v4.108zm-15.377 0v-4.108h3.845v4.108zm-15.377 0v-4.108h3.845v4.108zm-15.377 0v-4.108h3.861v4.108zm-15.377 0v-4.108h3.844v4.108zm-15.358 0v-4.108h3.843v4.108zm676.3-16.431V577.9h3.85v4.108zm-15.378 0V577.9h3.845v4.108zm-15.377 0V577.9h3.844v4.108zm-15.376 0V577.9h3.843v4.108zm-15.377 0V577.9h3.843v4.108zm-15.377 0V577.9h3.844v4.108zm-15.378 0V577.9h3.845v4.108zm-15.376 0V577.9h3.85v4.108zm-15.377 0V577.9h3.843v4.108zm-15.377 0V577.9h3.843v4.108zm-15.377 0V577.9h3.844v4.108zm-15.377 0V577.9h3.844v4.108zm-15.377 0V577.9h3.843v4.108zm-15.377 0V577.9h3.843v4.108zm-15.377 0V577.9h3.844v4.108zm-15.377 0V577.9h3.844v4.108zm-15.376 0V577.9h3.843v4.108zm-15.378 0V577.9h3.844v4.108zm-15.377 0V577.9h3.844v4.108zm-15.111 0V577.9h3.858v4.108zm-15.376 0V577.9h3.844v4.108zm-15.377 0V577.9h3.844v4.108zm-15.377 0V577.9h3.845v4.108zm-15.377 0V577.9h3.845v4.108zm-15.376 0V577.9h3.844v4.108zm-15.377 0V577.9h3.844v4.108zm-15.377 0V577.9h3.857v4.108zm-15.377 0V577.9h3.844v4.108zm-15.377 0V577.9h3.844v4.108zm-15.376 0V577.9h3.843v4.108zm-15.377 0V577.9h3.843v4.108zm-15.377 0V577.9h3.845v4.108zm-15.377 0V577.9h3.844v4.108zm-15.376 0V577.9h3.856v4.108zm-15.377 0V577.9h3.843v4.108zm-15.377 0V577.9h3.843v4.108zm-15.377 0V577.9h3.844v4.108zm-15.377 0V577.9h3.844v4.108zm-15.377 0V577.9h3.844v4.108zm-15.377 0V577.9h3.844v4.108zm-15.377 0V577.9h3.845v4.108zm-15.377 0V577.9h3.845v4.108zm-15.377 0V577.9h3.861v4.108zm-15.377 0V577.9h3.844v4.108zm-15.358 0V577.9h3.843v4.108zm676.3-16.431v-4.112h3.85v4.108zm-15.378 0v-4.112h3.845v4.108zm-15.377 0v-4.112h3.844v4.108zm-15.376 0v-4.112h3.843v4.108zm-15.377 0v-4.112h3.843v4.108zm-15.377 0v-4.112h3.844v4.108zm-15.378 0v-4.112h3.845v4.108zm-15.376 0v-4.112h3.85v4.108zm-15.377 0v-4.112h3.843v4.108zm-15.377 0v-4.112h3.843v4.108zm-15.377 0v-4.112h3.844v4.108zm-15.377 0v-4.112h3.844v4.108zm-15.377 0v-4.112h3.843v4.108zm-15.377 0v-4.112h3.843v4.108zm-15.377 0v-4.112h3.844v4.108zm-15.377 0v-4.112h3.844v4.108zm-15.376 0v-4.112h3.843v4.108zm-15.378 0v-4.112h3.844v4.108zm-15.377 0v-4.112h3.844v4.108zm-15.111 0v-4.112h3.858v4.108zm-15.376 0v-4.112h3.844v4.108zm-15.377 0v-4.112h3.844v4.108zm-15.377 0v-4.112h3.845v4.108zm-15.377 0v-4.112h3.845v4.108zm-15.376 0v-4.112h3.844v4.108zm-15.377 0v-4.112h3.844v4.108zm-15.377 0v-4.112h3.857v4.108zm-15.377 0v-4.112h3.844v4.108zm-15.377 0v-4.112h3.844v4.108zm-15.376 0v-4.112h3.843v4.108zm-15.377 0v-4.112h3.843v4.108zm-15.377 0v-4.112h3.845v4.108zm-15.377 0v-4.112h3.844v4.108zm-15.376 0v-4.112h3.856v4.108zm-15.377 0v-4.112h3.843v4.108zm-15.377 0v-4.112h3.843v4.108zm-15.377 0v-4.112h3.844v4.108zm-15.377 0v-4.112h3.844v4.108zm-15.377 0v-4.112h3.844v4.108zm-15.377 0v-4.112h3.844v4.108zm-15.377 0v-4.112h3.845v4.108zm-15.377 0v-4.112h3.845v4.108zm-15.377 0v-4.112h3.861v4.108zm-15.377 0v-4.112h3.844v4.108zm-15.358 0v-4.112h3.843v4.108zm676.3-15.214v-4.109h3.845v4.109zm-15.378 0v-4.109h3.846v4.109zm-15.377 0v-4.109h3.845v4.109zm-15.376 0v-4.109h3.844v4.109zm-15.37 0v-4.109h3.844v4.109zm-15.377 0v-4.109h3.845v4.109zm-15.378 0v-4.109h3.846v4.109zm-15.376 0v-4.109h3.838v4.109zm-15.377 0v-4.109h3.844v4.109zm-15.377 0v-4.109h3.844v4.109zm-15.377 0v-4.109h3.844v4.109zm-15.376 0v-4.109h3.844v4.109zm-15.377 0v-4.109h3.843v4.109zm-15.377 0v-4.109h3.843v4.109zm-15.377 0v-4.109h3.844v4.109zm-15.377 0v-4.109h3.844v4.109zm-15.376 0v-4.109h3.843v4.109zm-15.377 0v-4.109h3.843v4.109zm-15.377 0v-4.109h3.843v4.109zm-15.111 0v-4.109h3.844v4.109zm-15.377 0v-4.109h3.844v4.109zm-15.377 0v-4.109h3.844v4.109zm-15.377 0v-4.109h3.845v4.109zm-15.377 0v-4.109h3.845v4.109zm-15.376 0v-4.109h3.844v4.109zm-15.377 0v-4.109h3.844v4.109zm-15.377 0v-4.109h3.844v4.109zm-15.377 0v-4.109h3.845v4.109zm-15.377 0v-4.109h3.845v4.109zm-15.376 0v-4.109h3.844v4.109zm-15.372 0v-4.109h3.844v4.109zm-15.377 0v-4.109h3.845v4.109zm-15.377 0v-4.109h3.845v4.109zm-15.376 0v-4.109h3.838v4.109zm-15.377 0v-4.109h3.844v4.109zm-15.377 0v-4.109h3.844v4.109zm-15.377 0v-4.109h3.844v4.109zm-15.377 0v-4.109h3.844v4.109zm-15.376 0v-4.109h3.843v4.109zm-15.377 0v-4.109h3.843v4.109zm-15.379 0v-4.109h3.844v4.109zm-15.377 0v-4.109H1382v4.109zm-15.377 0v-4.109h3.844v4.109zm-15.377 0v-4.109h3.844v4.109zm-15.375 0v-4.109h3.843v4.109zm676.3-16.431v-4.109h3.85v4.109zm-15.378 0v-4.109h3.845v4.109zm-15.377 0v-4.109h3.844v4.109zm-15.376 0v-4.109h3.843v4.109zm-15.377 0v-4.109h3.843v4.109zm-15.377 0v-4.109h3.844v4.109zm-15.378 0v-4.109h3.845v4.109zm-15.376 0v-4.109h3.85v4.109zm-15.377 0v-4.109h3.843v4.109zm-15.377 0v-4.109h3.843v4.109zm-15.377 0v-4.109h3.844v4.109zm-15.377 0v-4.109h3.844v4.109zm-15.377 0v-4.109h3.843v4.109zm-15.377 0v-4.109h3.843v4.109zm-15.377 0v-4.109h3.844v4.109zm-15.377 0v-4.109h3.844v4.109zm-15.376 0v-4.109h3.843v4.109zm-15.378 0v-4.109h3.844v4.109zm-15.377 0v-4.109h3.844v4.109zm-15.111 0v-4.109h3.858v4.109zm-15.376 0v-4.109h3.844v4.109zm-15.377 0v-4.109h3.844v4.109zm-15.377 0v-4.109h3.845v4.109zm-15.377 0v-4.109h3.845v4.109zm-15.376 0v-4.109h3.844v4.109zm-15.377 0v-4.109h3.844v4.109zm-15.377 0v-4.109h3.857v4.109zm-15.377 0v-4.109h3.844v4.109zm-15.377 0v-4.109h3.844v4.109zm-15.376 0v-4.109h3.843v4.109zm-15.377 0v-4.109h3.843v4.109zm-15.377 0v-4.109h3.845v4.109zm-15.377 0v-4.109h3.844v4.109zm-15.376 0v-4.109h3.856v4.109zm-15.377 0v-4.109h3.843v4.109zm-15.377 0v-4.109h3.843v4.109zm-15.377 0v-4.109h3.844v4.109zm-15.377 0v-4.109h3.844v4.109zm-15.377 0v-4.109h3.844v4.109zm-15.377 0v-4.109h3.844v4.109zm-15.377 0v-4.109h3.845v4.109zm-15.377 0v-4.109h3.845v4.109zm-15.377 0v-4.109h3.861v4.109zm-15.377 0v-4.109h3.844v4.109zm-15.358 0v-4.108h3.843v4.108zm676.3-16.431v-4.108h3.85v4.102zm-15.378 0v-4.108h3.845v4.102zm-15.377 0v-4.108h3.844v4.102zm-15.376 0v-4.108h3.843v4.102zm-15.377 0v-4.108h3.843v4.102zm-15.377 0v-4.108h3.844v4.102zm-15.378 0v-4.108h3.845v4.102zm-15.376 0v-4.108h3.85v4.102zm-15.377 0v-4.108h3.843v4.102zm-15.377 0v-4.108h3.843v4.102zm-15.377 0v-4.108h3.844v4.102zm-15.377 0v-4.108h3.844v4.102zm-15.377 0v-4.108h3.843v4.102zm-15.377 0v-4.108h3.843v4.102zm-15.377 0v-4.108h3.844v4.102zm-15.377 0v-4.108h3.844v4.102zm-15.376 0v-4.108h3.843v4.102zm-15.378 0v-4.108h3.844v4.102zm-15.377 0v-4.108h3.844v4.102zm-15.111 0v-4.108h3.858v4.102zm-15.376 0v-4.108h3.844v4.102zm-15.377 0v-4.108h3.844v4.102zm-15.377 0v-4.108h3.845v4.102zm-15.377 0v-4.108h3.845v4.102zm-15.376 0v-4.108h3.844v4.102zm-15.377 0v-4.108h3.844v4.102zm-15.377 0v-4.108h3.857v4.102zm-15.377 0v-4.108h3.844v4.102zm-15.377 0v-4.108h3.844v4.102zm-15.376 0v-4.108h3.843v4.102zm-15.377 0v-4.108h3.843v4.102zm-15.377 0v-4.108h3.845v4.102zm-15.377 0v-4.108h3.844v4.102zm-15.376 0v-4.108h3.856v4.102zm-15.377 0v-4.108h3.843v4.102zm-15.377 0v-4.108h3.843v4.102zm-15.377 0v-4.108h3.844v4.102zm-15.377 0v-4.108h3.844v4.102zm-15.377 0v-4.108h3.844v4.102zm-15.377 0v-4.108h3.844v4.102zm-15.377 0v-4.108h3.845v4.102zm-15.377 0v-4.108h3.845v4.102zm-15.377 0v-4.108h3.861v4.102zm-15.377 0v-4.108h3.844v4.102zm-15.358 0v-4.108h3.843v4.102zm676.3-16.431v-4.11h3.85v4.108zm-15.378 0v-4.11h3.845v4.108zm-15.377 0v-4.11h3.844v4.108zm-15.376 0v-4.11h3.843v4.108zm-15.377 0v-4.11h3.843v4.108zm-15.377 0v-4.11h3.844v4.108zm-15.378 0v-4.11h3.845v4.108zm-15.376 0v-4.11h3.85v4.108zm-15.377 0v-4.11h3.843v4.108zm-15.377 0v-4.11h3.843v4.108zm-15.377 0v-4.11h3.844v4.108zm-15.377 0v-4.11h3.844v4.108zm-15.377 0v-4.11h3.843v4.108zm-15.377 0v-4.11h3.843v4.108zm-15.377 0v-4.11h3.844v4.108zm-15.377 0v-4.11h3.844v4.108zm-15.376 0v-4.11h3.843v4.108zm-15.378 0v-4.11h3.844v4.108zm-15.377 0v-4.11h3.844v4.108zm-15.111 0v-4.11h3.858v4.108zm-15.376 0v-4.11h3.844v4.108zm-15.377 0v-4.11h3.844v4.108zm-15.377 0v-4.11h3.845v4.108zm-15.377 0v-4.11h3.845v4.108zm-15.376 0v-4.11h3.844v4.108zm-15.377 0v-4.11h3.844v4.108zm-15.377 0v-4.11h3.857v4.108zm-15.377 0v-4.11h3.844v4.108zm-15.377 0v-4.11h3.844v4.108zm-15.376 0v-4.11h3.843v4.108zm-15.377 0v-4.11h3.843v4.108zm-15.377 0v-4.11h3.845v4.108zm-15.377 0v-4.11h3.844v4.108zm-15.376 0v-4.11h3.856v4.108zm-15.377 0v-4.11h3.843v4.108zm-15.377 0v-4.11h3.843v4.108zm-15.377 0v-4.11h3.844v4.108zm-15.377 0v-4.11h3.844v4.108zm-15.377 0v-4.11h3.844v4.108zm-15.377 0v-4.11h3.844v4.108zm-15.377 0v-4.11h3.845v4.108zm-15.377 0v-4.11h3.845v4.108zm-15.377 0v-4.11h3.861v4.108zm-15.377 0v-4.11h3.844v4.108zm-15.358 0v-4.111h3.843v4.108zm676.3-16.431v-4.114h3.85v4.108zm-15.378 0v-4.114h3.845v4.108zm-15.377 0v-4.114h3.844v4.108zm-15.376 0v-4.114h3.843v4.108zm-15.377 0v-4.114h3.843v4.108zm-15.377 0v-4.114h3.844v4.108zm-15.378 0v-4.114h3.845v4.108zm-15.376 0v-4.114h3.85v4.108zm-15.377 0v-4.114h3.843v4.108zm-15.377 0v-4.114h3.843v4.108zm-15.377 0v-4.114h3.844v4.108zm-15.377 0v-4.114h3.844v4.108zm-15.377 0v-4.114h3.843v4.108zm-15.377 0v-4.114h3.843v4.108zm-15.377 0v-4.114h3.844v4.108zm-15.377 0v-4.114h3.844v4.108zm-15.376 0v-4.114h3.843v4.108zm-15.378 0v-4.114h3.844v4.108zm-15.377 0v-4.114h3.844v4.108zm-15.111 0v-4.114h3.858v4.108zm-15.376 0v-4.114h3.844v4.108zm-15.377 0v-4.114h3.844v4.108zm-15.377 0v-4.114h3.845v4.108zm-15.377 0v-4.114h3.845v4.108zm-15.376 0v-4.114h3.844v4.108zm-15.377 0v-4.114h3.844v4.108zm-15.377 0v-4.114h3.857v4.108zm-15.377 0v-4.114h3.844v4.108zm-15.377 0v-4.114h3.844v4.108zm-15.376 0v-4.114h3.843v4.108zm-15.377 0v-4.114h3.843v4.108zm-15.377 0v-4.114h3.845v4.108zm-15.377 0v-4.114h3.844v4.108zm-15.376 0v-4.114h3.856v4.108zm-15.377 0v-4.114h3.843v4.108zm-15.377 0v-4.114h3.843v4.108zm-15.377 0v-4.114h3.844v4.108zm-15.377 0v-4.114h3.844v4.108zm-15.377 0v-4.114h3.844v4.108zm-15.377 0v-4.114h3.844v4.108zm-15.377 0v-4.114h3.845v4.108zm-15.377 0v-4.114h3.845v4.108zm-15.377 0v-4.114h3.861v4.108zm-15.377 0v-4.114h3.844v4.108zm-15.358 0v-4.114h3.843v4.108zm676.3-16.43V464.1h3.85v4.108zm-15.378 0V464.1h3.845v4.108zm-15.377 0V464.1h3.844v4.108zm-15.376 0V464.1h3.843v4.108zm-15.377 0V464.1h3.843v4.108zm-15.377 0V464.1h3.844v4.108zm-15.378 0V464.1h3.845v4.108zm-15.376 0V464.1h3.85v4.108zm-15.377 0V464.1h3.843v4.108zm-15.377 0V464.1h3.843v4.108zm-15.377 0V464.1h3.844v4.108zm-15.377 0V464.1h3.844v4.108zm-15.377 0V464.1h3.843v4.108zm-15.377 0V464.1h3.843v4.108zm-15.377 0V464.1h3.844v4.108zm-15.377 0V464.1h3.844v4.108zm-15.376 0V464.1h3.843v4.108zm-15.378 0V464.1h3.844v4.108zm-15.377 0V464.1h3.844v4.108zm-15.111 0V464.1h3.858v4.108zm-15.376 0V464.1h3.844v4.108zm-15.377 0V464.1h3.844v4.108zm-15.377 0V464.1h3.845v4.108zm-15.377 0V464.1h3.845v4.108zm-15.376 0V464.1h3.844v4.108zm-15.377 0V464.1h3.844v4.108zm-15.377 0V464.1h3.857v4.108zm-15.377 0V464.1h3.844v4.108zm-15.377 0V464.1h3.844v4.108zm-15.376 0V464.1h3.843v4.108zm-15.377 0V464.1h3.843v4.108zm-15.377 0V464.1h3.845v4.108zm-15.377 0V464.1h3.844v4.108zm-15.376 0V464.1h3.856v4.108zm-15.377 0V464.1h3.843v4.108zm-15.377 0V464.1h3.843v4.108zm-15.377 0V464.1h3.844v4.108zm-15.377 0V464.1h3.844v4.108zm-15.377 0V464.1h3.844v4.108zm-15.377 0V464.1h3.844v4.108zm-15.377 0V464.1h3.845v4.108zm-15.377 0V464.1h3.845v4.108zm-15.377 0V464.1h3.861v4.108zm-15.377 0V464.1h3.844v4.108zm-15.358 0V464.1h3.843v4.108zm676.3-16.431v-4.108h3.85v4.108zm-15.378 0v-4.108h3.845v4.108zm-15.377 0v-4.108h3.844v4.108zm-15.376 0v-4.108h3.843v4.108zm-15.377 0v-4.108h3.843v4.108zm-15.377 0v-4.108h3.844v4.108zm-15.378 0v-4.108h3.845v4.108zm-15.376 0v-4.108h3.85v4.108zm-15.377 0v-4.108h3.843v4.108zm-15.377 0v-4.108h3.843v4.108zm-15.377 0v-4.108h3.844v4.108zm-15.377 0v-4.108h3.844v4.108zm-15.377 0v-4.108h3.843v4.108zm-15.377 0v-4.108h3.843v4.108zm-15.377 0v-4.108h3.844v4.108zm-15.377 0v-4.108h3.844v4.108zm-15.376 0v-4.108h3.843v4.108zm-15.378 0v-4.108h3.844v4.108zm-15.377 0v-4.108h3.844v4.108zm-15.111 0v-4.108h3.858v4.108zm-15.376 0v-4.108h3.844v4.108zm-15.377 0v-4.108h3.844v4.108zm-15.377 0v-4.108h3.845v4.108zm-15.377 0v-4.108h3.845v4.108zm-15.376 0v-4.108h3.844v4.108zm-15.377 0v-4.108h3.844v4.108zm-15.377 0v-4.108h3.857v4.108zm-15.377 0v-4.108h3.844v4.108zm-15.377 0v-4.108h3.844v4.108zm-15.376 0v-4.108h3.843v4.108zm-15.377 0v-4.108h3.843v4.108zm-15.377 0v-4.108h3.845v4.108zm-15.377 0v-4.108h3.844v4.108zm-15.376 0v-4.108h3.856v4.108zm-15.377 0v-4.108h3.843v4.108zm-15.377 0v-4.108h3.843v4.108zm-15.377 0v-4.108h3.844v4.108zm-15.377 0v-4.108h3.844v4.108zm-15.377 0v-4.108h3.844v4.108zm-15.377 0v-4.108h3.844v4.108zm-15.377 0v-4.108h3.845v4.108zm-15.377 0v-4.108h3.845v4.108zm-15.377 0v-4.108h3.861v4.108zm-15.377 0v-4.108h3.844v4.108zm-15.358 0v-4.109h3.843v4.109zm676.3-16.431v-4.108h3.85v4.108zm-15.378 0v-4.108h3.845v4.108zm-15.377 0v-4.108h3.844v4.108zm-15.376 0v-4.108h3.843v4.108zm-15.377 0v-4.108h3.843v4.108zm-15.377 0v-4.108h3.844v4.108zm-15.378 0v-4.108h3.845v4.108zm-15.376 0v-4.108h3.85v4.108zm-15.377 0v-4.108h3.843v4.108zm-15.377 0v-4.108h3.843v4.108zm-15.377 0v-4.108h3.844v4.108zm-15.377 0v-4.108h3.844v4.108zm-15.377 0v-4.108h3.843v4.108zm-15.377 0v-4.108h3.843v4.108zm-15.377 0v-4.108h3.844v4.108zm-15.377 0v-4.108h3.844v4.108zm-15.376 0v-4.108h3.843v4.108zm-15.378 0v-4.108h3.844v4.108zm-15.377 0v-4.108h3.844v4.108zm-15.111 0v-4.108h3.858v4.108zm-15.376 0v-4.108h3.844v4.108zm-15.377 0v-4.108h3.844v4.108zm-15.377 0v-4.108h3.845v4.108zm-15.377 0v-4.108h3.845v4.108zm-15.376 0v-4.108h3.844v4.108zm-15.377 0v-4.108h3.844v4.108zm-15.377 0v-4.108h3.857v4.108zm-15.377 0v-4.108h3.844v4.108zm-15.377 0v-4.108h3.844v4.108zm-15.376 0v-4.108h3.843v4.108zm-15.377 0v-4.108h3.843v4.108zm-15.377 0v-4.108h3.845v4.108zm-15.377 0v-4.108h3.844v4.108zm-15.376 0v-4.108h3.856v4.108zm-15.377 0v-4.108h3.843v4.108zm-15.377 0v-4.108h3.843v4.108zm-15.377 0v-4.108h3.844v4.108zm-15.377 0v-4.108h3.844v4.108zm-15.377 0v-4.108h3.844v4.108zm-15.377 0v-4.108h3.844v4.108zm-15.377 0v-4.108h3.845v4.108zm-15.377 0v-4.108h3.845v4.108zm-15.377 0v-4.108h3.861v4.108zm-15.377 0v-4.108h3.844v4.108zm-15.358 0v-4.108h3.843v4.108zm676.3-16.431v-4.107h3.85v4.108zm-15.378 0v-4.107h3.845v4.108zm-15.377 0v-4.107h3.844v4.108zm-15.376 0v-4.107h3.843v4.108zm-15.377 0v-4.107h3.843v4.108zm-15.377 0v-4.107h3.844v4.108zm-15.378 0v-4.107h3.845v4.108zm-15.376 0v-4.107h3.85v4.108zm-15.377 0v-4.107h3.843v4.108zm-15.377 0v-4.107h3.843v4.108zm-15.377 0v-4.107h3.844v4.108zm-15.377 0v-4.107h3.844v4.108zm-15.377 0v-4.107h3.843v4.108zm-15.377 0v-4.107h3.843v4.108zm-15.377 0v-4.107h3.844v4.108zm-15.377 0v-4.107h3.844v4.108zm-15.376 0v-4.107h3.843v4.108zm-15.378 0v-4.107h3.844v4.108zm-15.377 0v-4.107h3.844v4.108zm-15.111 0v-4.107h3.858v4.108zm-15.376 0v-4.107h3.844v4.108zm-15.377 0v-4.107h3.844v4.108zm-15.377 0v-4.107h3.845v4.108zm-15.377 0v-4.107h3.845v4.108zm-15.376 0v-4.107h3.844v4.108zm-15.377 0v-4.107h3.844v4.108zm-15.377 0v-4.107h3.857v4.108zm-15.377 0v-4.107h3.844v4.108zm-15.377 0v-4.107h3.844v4.108zm-15.376 0v-4.107h3.843v4.108zm-15.377 0v-4.107h3.843v4.108zm-15.377 0v-4.107h3.845v4.108zm-15.377 0v-4.107h3.844v4.108zm-15.376 0v-4.107h3.856v4.108zm-15.377 0v-4.107h3.843v4.108zm-15.377 0v-4.107h3.843v4.108zm-15.377 0v-4.107h3.844v4.108zm-15.377 0v-4.107h3.844v4.108zm-15.377 0v-4.107h3.844v4.108zm-15.377 0v-4.107h3.844v4.108zm-15.377 0v-4.107h3.845v4.108zm-15.377 0v-4.107h3.845v4.108zm-15.377 0v-4.107h3.861v4.108zm-15.377 0v-4.107h3.844v4.108zm-15.358 0v-4.107h3.843v4.108zm676.3-16.431v-4.108h3.85v4.108zm-15.378 0v-4.108h3.845v4.108zm-15.377 0v-4.108h3.844v4.108zm-15.376 0v-4.108h3.843v4.108zm-15.377 0v-4.108h3.843v4.108zm-15.377 0v-4.108h3.844v4.108zm-15.378 0v-4.108h3.845v4.108zm-15.376 0v-4.108h3.85v4.108zm-15.377 0v-4.108h3.843v4.108zm-15.377 0v-4.108h3.843v4.108zm-15.377 0v-4.108h3.844v4.108zm-15.377 0v-4.108h3.844v4.108zm-15.377 0v-4.108h3.843v4.108zm-15.377 0v-4.108h3.843v4.108zm-15.377 0v-4.108h3.844v4.108zm-15.377 0v-4.108h3.844v4.108zm-15.376 0v-4.108h3.843v4.108zm-15.378 0v-4.108h3.844v4.108zm-15.377 0v-4.108h3.844v4.108zm-15.111 0v-4.108h3.858v4.108zm-15.376 0v-4.108h3.844v4.108zm-15.377 0v-4.108h3.844v4.108zm-15.377 0v-4.108h3.845v4.108zm-15.377 0v-4.108h3.845v4.108zm-15.376 0v-4.108h3.844v4.108zm-15.377 0v-4.108h3.844v4.108zm-15.377 0v-4.108h3.857v4.108zm-15.377 0v-4.108h3.844v4.108zm-15.377 0v-4.108h3.844v4.108zm-15.376 0v-4.108h3.843v4.108zm-15.377 0v-4.108h3.843v4.108zm-15.377 0v-4.108h3.845v4.108zm-15.377 0v-4.108h3.844v4.108zm-15.376 0v-4.108h3.856v4.108zm-15.377 0v-4.108h3.843v4.108zm-15.377 0v-4.108h3.843v4.108zm-15.377 0v-4.108h3.844v4.108zm-15.377 0v-4.108h3.844v4.108zm-15.377 0v-4.108h3.844v4.108zm-15.377 0v-4.108h3.844v4.108zm-15.377 0v-4.108h3.845v4.108zm-15.377 0v-4.108h3.845v4.108zm-15.377 0v-4.108h3.861v4.108zm-15.377 0v-4.108h3.844v4.108zm-15.358 0v-4.109h3.843v4.109zm676.3-16.43v-4.109h3.85v4.109zm-15.378 0v-4.109h3.845v4.109zm-15.377 0v-4.109h3.844v4.109zm-15.376 0v-4.109h3.843v4.109zm-15.377 0v-4.109h3.843v4.109zm-15.377 0v-4.109h3.844v4.109zm-15.378 0v-4.109h3.845v4.109zm-15.376 0v-4.109h3.85v4.109zm-15.377 0v-4.109h3.843v4.109zm-15.377 0v-4.109h3.843v4.109zm-15.377 0v-4.109h3.844v4.109zm-15.377 0v-4.109h3.844v4.109zm-15.377 0v-4.109h3.843v4.109zm-15.377 0v-4.109h3.843v4.109zm-15.377 0v-4.109h3.844v4.109zm-15.377 0v-4.109h3.844v4.109zm-15.376 0v-4.109h3.843v4.109zm-15.378 0v-4.109h3.844v4.109zm-15.377 0v-4.109h3.844v4.109zm-15.111 0v-4.109h3.858v4.109zm-15.376 0v-4.109h3.844v4.109zm-15.377 0v-4.109h3.844v4.109zm-15.377 0v-4.109h3.845v4.109zm-15.377 0v-4.109h3.845v4.109zm-15.376 0v-4.109h3.844v4.109zm-15.377 0v-4.109h3.844v4.109zm-15.377 0v-4.109h3.857v4.109zm-15.377 0v-4.109h3.844v4.109zm-15.377 0v-4.109h3.844v4.109zm-15.376 0v-4.109h3.843v4.109zm-15.377 0v-4.109h3.843v4.109zm-15.377 0v-4.109h3.845v4.109zm-15.377 0v-4.109h3.844v4.109zm-15.376 0v-4.109h3.856v4.109zm-15.377 0v-4.109h3.843v4.109zm-15.377 0v-4.109h3.843v4.109zm-15.377 0v-4.109h3.844v4.109zm-15.377 0v-4.109h3.844v4.109zm-15.377 0v-4.109h3.844v4.109zm-15.377 0v-4.109h3.844v4.109zm-15.377 0v-4.109h3.845v4.109zm-15.377 0v-4.109h3.845v4.109zm-15.377 0v-4.109h3.861v4.109zm-15.377 0v-4.109h3.844v4.109zm-15.358 0v-4.109h3.843v4.109zm676.3-16.431v-4.108h3.85v4.108zm-15.378 0v-4.108h3.845v4.108zm-15.377 0v-4.108h3.844v4.108zm-15.376 0v-4.108h3.843v4.108zm-15.377 0v-4.108h3.843v4.108zm-15.377 0v-4.108h3.844v4.108zm-15.378 0v-4.108h3.845v4.108zm-15.376 0v-4.108h3.85v4.108zm-15.377 0v-4.108h3.843v4.108zm-15.377 0v-4.108h3.843v4.108zm-15.377 0v-4.108h3.844v4.108zm-15.377 0v-4.108h3.844v4.108zm-15.377 0v-4.108h3.843v4.108zm-15.377 0v-4.108h3.843v4.108zm-15.377 0v-4.108h3.844v4.108zm-15.377 0v-4.108h3.844v4.108zm-15.376 0v-4.108h3.843v4.108zm-15.378 0v-4.108h3.844v4.108zm-15.377 0v-4.108h3.844v4.108zm-15.111 0v-4.108h3.858v4.108zm-15.376 0v-4.108h3.844v4.108zm-15.377 0v-4.108h3.844v4.108zm-15.377 0v-4.108h3.845v4.108zm-15.377 0v-4.108h3.845v4.108zm-15.376 0v-4.108h3.844v4.108zm-15.377 0v-4.108h3.844v4.108zm-15.377 0v-4.108h3.857v4.108zm-15.377 0v-4.108h3.844v4.108zm-15.377 0v-4.108h3.844v4.108zm-15.376 0v-4.108h3.843v4.108zm-15.377 0v-4.108h3.843v4.108zm-15.377 0v-4.108h3.845v4.108zm-15.377 0v-4.108h3.844v4.108zm-15.376 0v-4.108h3.856v4.108zm-15.377 0v-4.108h3.843v4.108zm-15.377 0v-4.108h3.843v4.108zm-15.377 0v-4.108h3.844v4.108zm-15.377 0v-4.108h3.844v4.108zm-15.377 0v-4.108h3.844v4.108zm-15.377 0v-4.108h3.844v4.108zm-15.377 0v-4.108h3.845v4.108zm-15.377 0v-4.108h3.845v4.108zm-15.377 0v-4.108h3.861v4.108zm-15.377 0v-4.108h3.844v4.108zm-15.358 0v-4.108h3.843v4.108zm676.3-16.431v-4.108h3.85v4.108zm-15.378 0v-4.108h3.845v4.108zm-15.377 0v-4.108h3.844v4.108zm-15.376 0v-4.108h3.843v4.108zm-15.377 0v-4.108h3.843v4.108zm-15.377 0v-4.108h3.844v4.108zm-15.378 0v-4.108h3.845v4.108zm-15.376 0v-4.108h3.85v4.108zm-15.377 0v-4.108h3.843v4.108zm-15.377 0v-4.108h3.843v4.108zm-15.377 0v-4.108h3.844v4.108zm-15.377 0v-4.108h3.844v4.108zm-15.377 0v-4.108h3.843v4.108zm-15.377 0v-4.108h3.843v4.108zm-15.377 0v-4.108h3.844v4.108zm-15.377 0v-4.108h3.844v4.108zm-15.376 0v-4.108h3.843v4.108zm-15.378 0v-4.108h3.844v4.108zm-15.377 0v-4.108h3.844v4.108zm-15.111 0v-4.108h3.858v4.108zm-15.376 0v-4.108h3.844v4.108zm-15.377 0v-4.108h3.844v4.108zm-15.377 0v-4.108h3.845v4.108zm-15.377 0v-4.108h3.845v4.108zm-15.376 0v-4.108h3.844v4.108zm-15.377 0v-4.108h3.844v4.108zm-15.377 0v-4.108h3.857v4.108zm-15.377 0v-4.108h3.844v4.108zm-15.377 0v-4.108h3.844v4.108zm-15.376 0v-4.108h3.843v4.108zm-15.377 0v-4.108h3.843v4.108zm-15.377 0v-4.108h3.845v4.108zm-15.377 0v-4.108h3.844v4.108zm-15.376 0v-4.108h3.856v4.108zm-15.377 0v-4.108h3.843v4.108zm-15.377 0v-4.108h3.843v4.108zm-15.377 0v-4.108h3.844v4.108zm-15.377 0v-4.108h3.844v4.108zm-15.377 0v-4.108h3.844v4.108zm-15.377 0v-4.108h3.844v4.108zm-15.377 0v-4.108h3.845v4.108zm-15.377 0v-4.108h3.845v4.108zm-15.377 0v-4.108h3.861v4.108zm-15.377 0v-4.108h3.844v4.108zm-15.358 0v-4.108h3.843v4.108zm676.3-16.431v-4.108h3.85v4.108zm-15.378 0v-4.108h3.845v4.108zm-15.377 0v-4.108h3.844v4.108zm-15.376 0v-4.108h3.843v4.108zm-15.377 0v-4.108h3.843v4.108zm-15.377 0v-4.108h3.844v4.108zm-15.378 0v-4.108h3.845v4.108zm-15.376 0v-4.108h3.85v4.108zm-15.377 0v-4.108h3.843v4.108zm-15.377 0v-4.108h3.843v4.108zm-15.377 0v-4.108h3.844v4.108zm-15.377 0v-4.108h3.844v4.108zm-15.377 0v-4.108h3.843v4.108zm-15.377 0v-4.108h3.843v4.108zm-15.377 0v-4.108h3.844v4.108zm-15.377 0v-4.108h3.844v4.108zm-15.376 0v-4.108h3.843v4.108zm-15.378 0v-4.108h3.844v4.108zm-15.377 0v-4.108h3.844v4.108zm-15.111 0v-4.108h3.858v4.108zm-15.376 0v-4.108h3.844v4.108zm-15.377 0v-4.108h3.844v4.108zm-15.377 0v-4.108h3.845v4.108zm-15.377 0v-4.108h3.845v4.108zm-15.376 0v-4.108h3.844v4.108zm-15.377 0v-4.108h3.844v4.108zm-15.377 0v-4.108h3.857v4.108zm-15.377 0v-4.108h3.844v4.108zm-15.377 0v-4.108h3.844v4.108zm-15.376 0v-4.108h3.843v4.108zm-15.377 0v-4.108h3.843v4.108zm-15.377 0v-4.108h3.845v4.108zm-15.377 0v-4.108h3.844v4.108zm-15.376 0v-4.108h3.856v4.108zm-15.377 0v-4.108h3.843v4.108zm-15.377 0v-4.108h3.843v4.108zm-15.377 0v-4.108h3.844v4.108zm-15.377 0v-4.108h3.844v4.108zm-15.377 0v-4.108h3.844v4.108zm-15.377 0v-4.108h3.844v4.108zm-15.377 0v-4.108h3.845v4.108zm-15.377 0v-4.108h3.845v4.108zm-15.377 0v-4.108h3.861v4.108zm-15.377 0v-4.108h3.844v4.108zm-15.358 0v-4.108h3.843v4.108zm676.3-16.431v-4.109h3.85v4.109zm-15.378 0v-4.109h3.845v4.109zm-15.377 0v-4.109h3.844v4.109zm-15.376 0v-4.109h3.843v4.109zm-15.377 0v-4.109h3.843v4.109zm-15.377 0v-4.109h3.844v4.109zm-15.378 0v-4.109h3.845v4.109zm-15.376 0v-4.109h3.85v4.109zm-15.377 0v-4.109h3.843v4.109zm-15.377 0v-4.109h3.843v4.109zm-15.377 0v-4.109h3.844v4.109zm-15.377 0v-4.109h3.844v4.109zm-15.377 0v-4.109h3.843v4.109zm-15.377 0v-4.109h3.843v4.109zm-15.377 0v-4.109h3.844v4.109zm-15.377 0v-4.109h3.844v4.109zm-15.376 0v-4.109h3.843v4.109zm-15.378 0v-4.109h3.844v4.109zm-15.377 0v-4.109h3.844v4.109zm-15.111 0v-4.109h3.858v4.109zm-15.376 0v-4.109h3.844v4.109zm-15.377 0v-4.109h3.844v4.109zm-15.377 0v-4.109h3.845v4.109zm-15.377 0v-4.109h3.845v4.109zm-15.376 0v-4.109h3.844v4.109zm-15.377 0v-4.109h3.844v4.109zm-15.377 0v-4.109h3.857v4.109zm-15.377 0v-4.109h3.844v4.109zm-15.377 0v-4.109h3.844v4.109zm-15.376 0v-4.109h3.843v4.109zm-15.377 0v-4.109h3.843v4.109zm-15.377 0v-4.109h3.845v4.109zm-15.377 0v-4.109h3.844v4.109zm-15.376 0v-4.109h3.856v4.109zm-15.377 0v-4.109h3.843v4.109zm-15.377 0v-4.109h3.843v4.109zm-15.377 0v-4.109h3.844v4.109zm-15.377 0v-4.109h3.844v4.109zm-15.377 0v-4.109h3.844v4.109zm-15.377 0v-4.109h3.844v4.109zm-15.377 0v-4.109h3.845v4.109zm-15.377 0v-4.109h3.845v4.109zm-15.377 0v-4.109h3.861v4.109zm-15.377 0v-4.109h3.844v4.109zm-15.358 0v-4.109h3.843v4.109zm676.3-16.431v-4.109h3.85v4.104zm-15.378 0v-4.109h3.845v4.104zm-15.377 0v-4.109h3.844v4.104zm-15.376 0v-4.109h3.843v4.104zm-15.377 0v-4.109h3.843v4.104zm-15.377 0v-4.109h3.844v4.104zm-15.378 0v-4.109h3.845v4.104zm-15.376 0v-4.109h3.85v4.104zm-15.377 0v-4.109h3.843v4.104zm-15.377 0v-4.109h3.843v4.104zm-15.377 0v-4.109h3.844v4.104zm-15.377 0v-4.109h3.844v4.104zm-15.377 0v-4.109h3.843v4.104zm-15.377 0v-4.109h3.843v4.104zm-15.377 0v-4.109h3.844v4.104zm-15.377 0v-4.109h3.844v4.104zm-15.376 0v-4.109h3.843v4.104zm-15.378 0v-4.109h3.844v4.104zm-15.377 0v-4.109h3.844v4.104zm-15.111 0v-4.109h3.858v4.104zm-15.376 0v-4.109h3.844v4.104zm-15.377 0v-4.109h3.844v4.104zm-15.377 0v-4.109h3.845v4.104zm-15.377 0v-4.109h3.845v4.104zm-15.376 0v-4.109h3.844v4.104zm-15.377 0v-4.109h3.844v4.104zm-15.377 0v-4.109h3.857v4.104zm-15.377 0v-4.109h3.844v4.104zm-15.377 0v-4.109h3.844v4.104zm-15.376 0v-4.109h3.843v4.104zm-15.377 0v-4.109h3.843v4.104zm-15.377 0v-4.109h3.845v4.104zm-15.377 0v-4.109h3.844v4.104zm-15.376 0v-4.109h3.856v4.104zm-15.377 0v-4.109h3.843v4.104zm-15.377 0v-4.109h3.843v4.104zm-15.377 0v-4.109h3.844v4.104zm-15.377 0v-4.109h3.844v4.104zm-15.377 0v-4.109h3.844v4.104zm-15.377 0v-4.109h3.844v4.104zm-15.377 0v-4.109h3.845v4.104zm-15.377 0v-4.109h3.845v4.104zm-15.377 0v-4.109h3.861v4.104zm-15.377 0v-4.109h3.844v4.104zm-15.358 0v-4.109h3.843v4.104zm676.3-16.431v-4.108h3.85v4.108zm-15.378 0v-4.108h3.845v4.108zm-15.377 0v-4.108h3.844v4.108zm-15.376 0v-4.108h3.843v4.108zm-15.377 0v-4.108h3.843v4.108zm-15.377 0v-4.108h3.844v4.108zm-15.378 0v-4.108h3.845v4.108zm-15.376 0v-4.108h3.85v4.108zm-15.377 0v-4.108h3.843v4.108zm-15.377 0v-4.108h3.843v4.108zm-15.377 0v-4.108h3.844v4.108zm-15.377 0v-4.108h3.844v4.108zm-15.377 0v-4.108h3.843v4.108zm-15.377 0v-4.108h3.843v4.108zm-15.377 0v-4.108h3.844v4.108zm-15.377 0v-4.108h3.844v4.108zm-15.376 0v-4.108h3.843v4.108zm-15.378 0v-4.108h3.844v4.108zm-15.377 0v-4.108h3.844v4.108zm-15.111 0v-4.108h3.858v4.108zm-15.376 0v-4.108h3.844v4.108zm-15.377 0v-4.108h3.844v4.108zm-15.377 0v-4.108h3.845v4.108zm-15.377 0v-4.108h3.845v4.108zm-15.376 0v-4.108h3.844v4.108zm-15.377 0v-4.108h3.844v4.108zm-15.377 0v-4.108h3.857v4.108zm-15.377 0v-4.108h3.844v4.108zm-15.377 0v-4.108h3.844v4.108zm-15.376 0v-4.108h3.843v4.108zm-15.377 0v-4.108h3.843v4.108zm-15.377 0v-4.108h3.845v4.108zm-15.377 0v-4.108h3.844v4.108zm-15.376 0v-4.108h3.856v4.108zm-15.377 0v-4.108h3.843v4.108zm-15.377 0v-4.108h3.843v4.108zm-15.377 0v-4.108h3.844v4.108zm-15.377 0v-4.108h3.844v4.108zm-15.377 0v-4.108h3.844v4.108zm-15.377 0v-4.108h3.844v4.108zm-15.377 0v-4.108h3.845v4.108zm-15.377 0v-4.108h3.845v4.108zm-15.377 0v-4.108h3.861v4.108zm-15.377 0v-4.108h3.844v4.108zm-15.358 0v-4.108h3.843v4.108zm676.3-16.433v-4.106h3.845v4.106zm-15.378 0v-4.106h3.846v4.106zm-15.377 0v-4.106h3.845v4.106zm-15.376 0v-4.106h3.844v4.106zm-15.377 0v-4.106h3.844v4.106zm-15.377 0v-4.106h3.845v4.106zm-15.378 0v-4.106h3.846v4.106zm-15.376 0v-4.106h3.845v4.106zm-15.377 0v-4.106h3.844v4.106zm-15.377 0v-4.106h3.844v4.106zm-15.377 0v-4.106h3.845v4.106zm-15.377 0v-4.106h3.845v4.106zm-15.377 0v-4.106h3.844v4.106zm-15.377 0v-4.106h3.844v4.106zm-15.377 0v-4.106h3.845v4.106zm-15.377 0v-4.106h3.845v4.106zm-15.376 0v-4.106h3.844v4.106zm-15.377 0v-4.106h3.844v4.106zm-15.369 0v-4.106h3.843v4.106zm-15.111 0v-4.106h3.844v4.106zm-15.377 0v-4.106h3.844v4.106zm-15.377 0v-4.106h3.844v4.106zm-15.377 0v-4.106h3.845v4.106zm-15.377 0v-4.106h3.845v4.106zm-15.376 0v-4.106h3.844v4.106zm-15.377 0v-4.106h3.844v4.106zm-15.377 0v-4.106h3.844v4.106zm-15.377 0v-4.106h3.845v4.106zm-15.377 0v-4.106h3.845v4.106zm-15.376 0v-4.106h3.844v4.106zm-15.377 0v-4.106h3.843v4.106zm-15.377 0v-4.106h3.845v4.106zm-15.377 0v-4.106h3.844v4.106zm-15.376 0v-4.106h3.843v4.106zm-15.377 0v-4.106h3.843v4.106zm-15.377 0v-4.106h3.843v4.106zm-15.377 0v-4.106h3.844v4.106zm-15.377 0v-4.106h3.844v4.106zm-15.377 0v-4.106h3.844v4.106zm-15.377 0v-4.106h3.844v4.106zm-15.377 0v-4.106h3.845v4.106zm-15.377 0v-4.106H1382v4.106zm-15.377 0v-4.106h3.848v4.106zm-15.377 0v-4.106h3.844v4.106zm-15.371 0v-4.106h3.843v4.106zm676.3-16.428V250.5h3.845v4.1zm-15.378 0V250.5h3.846v4.1zm-15.377 0V250.5h3.845v4.1zm-15.376 0V250.5h3.844v4.1zm-15.377 0V250.5h3.844v4.1zm-15.377 0V250.5h3.845v4.1zm-15.378 0V250.5h3.846v4.1zm-15.376 0V250.5h3.845v4.1zm-15.377 0V250.5h3.844v4.1zm-15.377 0V250.5h3.844v4.1zm-15.377 0V250.5h3.845v4.1zm-15.377 0V250.5h3.845v4.1zm-15.377 0V250.5h3.844v4.1zm-15.377 0V250.5h3.844v4.1zm-15.377 0V250.5h3.845v4.1zm-15.377 0V250.5h3.845v4.1zm-15.376 0V250.5h3.844v4.1zm-15.377 0V250.5h3.844v4.1zm-15.369 0V250.5h3.843v4.1zm-15.111 0V250.5h3.844v4.1zm-15.377 0V250.5h3.844v4.1zm-15.377 0V250.5h3.844v4.1zm-15.377 0V250.5h3.845v4.1zm-15.377 0V250.5h3.845v4.1zm-15.376 0V250.5h3.844v4.1zm-15.377 0V250.5h3.844v4.1zm-15.377 0V250.5h3.844v4.1zm-15.377 0V250.5h3.845v4.1zm-15.377 0V250.5h3.845v4.1zm-15.376 0V250.5h3.844v4.1zm-15.377 0V250.5h3.843v4.1zm-15.377 0V250.5h3.845v4.1zm-15.377 0V250.5h3.844v4.1zm-15.376 0V250.5h3.843v4.1zm-15.377 0V250.5h3.843v4.1zm-15.377 0V250.5h3.843v4.1zm-15.377 0V250.5h3.844v4.1zm-15.377 0V250.5h3.844v4.1zm-15.377 0V250.5h3.844v4.1zm-15.377 0V250.5h3.844v4.1zm-15.377 0V250.5h3.845v4.1zm-15.377 0V250.5H1382v4.1zm-15.377 0V250.5h3.848v4.1zm-15.377 0V250.5h3.844v4.1zm-15.371 0V250.5h3.843v4.1zm676.3-16.429v-4.111h3.845v4.111zm-15.378 0v-4.111h3.846v4.111zm-15.377 0v-4.111h3.845v4.111zm-15.376 0v-4.111h3.844v4.111zm-15.377 0v-4.111h3.844v4.111zm-15.377 0v-4.111h3.845v4.111zm-15.378 0v-4.111h3.846v4.111zm-15.376 0v-4.111h3.845v4.111zm-15.377 0v-4.111h3.844v4.111zm-15.377 0v-4.111h3.844v4.111zm-15.377 0v-4.111h3.845v4.111zm-15.377 0v-4.111h3.845v4.111zm-15.377 0v-4.111h3.844v4.111zm-15.377 0v-4.111h3.844v4.111zm-15.377 0v-4.111h3.845v4.111zm-15.377 0v-4.111h3.845v4.111zm-15.376 0v-4.111h3.844v4.111zm-15.377 0v-4.111h3.844v4.111zm-15.369 0v-4.111h3.843v4.111zm-15.111 0v-4.111h3.844v4.111zm-15.377 0v-4.111h3.844v4.111zm-15.377 0v-4.111h3.844v4.111zm-15.377 0v-4.111h3.845v4.111zm-15.377 0v-4.111h3.845v4.111zm-15.376 0v-4.111h3.844v4.111zm-15.377 0v-4.111h3.844v4.111zm-15.377 0v-4.111h3.844v4.111zm-15.377 0v-4.111h3.845v4.111zm-15.377 0v-4.111h3.845v4.111zm-15.376 0v-4.111h3.844v4.111zm-15.377 0v-4.111h3.843v4.111zm-15.377 0v-4.111h3.845v4.111zm-15.377 0v-4.111h3.844v4.111zm-15.376 0v-4.111h3.843v4.111zm-15.377 0v-4.111h3.843v4.111zm-15.377 0v-4.111h3.843v4.111zm-15.377 0v-4.111h3.844v4.111zm-15.377 0v-4.111h3.844v4.111zm-15.377 0v-4.111h3.844v4.111zm-15.377 0v-4.111h3.844v4.111zm-15.377 0v-4.111h3.845v4.111zm-15.377 0v-4.111H1382v4.111zm-15.377 0v-4.111h3.848v4.111zm-15.377 0v-4.111h3.844v4.111zm-15.371 0v-4.111h3.843v4.111zm676.3-16.434v-4.108h3.85v4.108zm-15.378 0v-4.108h3.845v4.108zm-15.377 0v-4.108h3.844v4.108zm-15.376 0v-4.108h3.843v4.108zm-15.377 0v-4.108h3.843v4.108zm-15.377 0v-4.108h3.844v4.108zm-15.378 0v-4.108h3.845v4.108zm-15.376 0v-4.108h3.85v4.108zm-15.377 0v-4.108h3.843v4.108zm-15.377 0v-4.108h3.843v4.108zm-15.377 0v-4.108h3.844v4.108zm-15.377 0v-4.108h3.844v4.108zm-15.377 0v-4.108h3.843v4.108zm-15.377 0v-4.108h3.843v4.108zm-15.377 0v-4.108h3.844v4.108zm-15.377 0v-4.108h3.844v4.108zm-15.376 0v-4.108h3.843v4.108zm-15.378 0v-4.108h3.844v4.108zm-15.377 0v-4.108h3.844v4.108zm-15.111 0v-4.108h3.858v4.108zm-15.376 0v-4.108h3.844v4.108zm-15.377 0v-4.108h3.844v4.108zm-15.377 0v-4.108h3.845v4.108zm-15.377 0v-4.108h3.845v4.108zm-15.376 0v-4.108h3.844v4.108zm-15.377 0v-4.108h3.844v4.108zm-15.377 0v-4.108h3.857v4.108zm-15.377 0v-4.108h3.844v4.108zm-15.377 0v-4.108h3.844v4.108zm-15.376 0v-4.108h3.843v4.108zm-15.377 0v-4.108h3.843v4.108zm-15.377 0v-4.108h3.845v4.108zm-15.377 0v-4.108h3.844v4.108zm-15.376 0v-4.108h3.856v4.108zm-15.377 0v-4.108h3.843v4.108zm-15.377 0v-4.108h3.843v4.108zm-15.377 0v-4.108h3.844v4.108zm-15.377 0v-4.108h3.844v4.108zm-15.377 0v-4.108h3.844v4.108zm-15.377 0v-4.108h3.844v4.108zm-15.377 0v-4.108h3.845v4.108zm-15.377 0v-4.108h3.845v4.108zm-15.377 0v-4.108h3.861v4.108zm-15.377 0v-4.108h3.844v4.108zm-15.358 0v-4.108h3.843v4.108zm676.3-16.432V201.2h3.845v4.107zm-15.378 0V201.2h3.846v4.107zm-15.377 0V201.2h3.845v4.107zm-15.376 0V201.2h3.844v4.107zm-15.377 0V201.2h3.844v4.107zm-15.377 0V201.2h3.845v4.107zm-15.378 0V201.2h3.846v4.107zm-15.376 0V201.2h3.845v4.107zm-15.377 0V201.2h3.844v4.107zm-15.377 0V201.2h3.844v4.107zm-15.377 0V201.2h3.845v4.107zm-15.377 0V201.2h3.845v4.107zm-15.377 0V201.2h3.844v4.107zm-15.377 0V201.2h3.844v4.107zm-15.377 0V201.2h3.845v4.107zm-15.377 0V201.2h3.845v4.107zm-15.376 0V201.2h3.844v4.107zm-15.377 0V201.2h3.844v4.107zm-15.369 0V201.2h3.843v4.107zm-15.111 0V201.2h3.844v4.107zm-15.377 0V201.2h3.844v4.107zm-15.377 0V201.2h3.844v4.107zm-15.377 0V201.2h3.845v4.107zm-15.377 0V201.2h3.845v4.107zm-15.376 0V201.2h3.844v4.107zm-15.377 0V201.2h3.844v4.107zm-15.377 0V201.2h3.844v4.107zm-15.377 0V201.2h3.845v4.107zm-15.377 0V201.2h3.845v4.107zm-15.376 0V201.2h3.844v4.107zm-15.377 0V201.2h3.843v4.107zm-15.377 0V201.2h3.845v4.107zm-15.377 0V201.2h3.844v4.107zm-15.376 0V201.2h3.843v4.107zm-15.377 0V201.2h3.843v4.107zm-15.377 0V201.2h3.843v4.107zm-15.377 0V201.2h3.844v4.107zm-15.377 0V201.2h3.844v4.107zm-15.377 0V201.2h3.844v4.107zm-15.377 0V201.2h3.844v4.107zm-15.377 0V201.2h3.845v4.107zm-15.377 0V201.2h3.85v4.107zm-15.377 0V201.2h3.848v4.107zm-15.377 0V201.2h3.844v4.107zm-15.371 0V201.2h3.843v4.107zm676.3-16.43v-4.108h3.845v4.108zm-15.378 0v-4.108h3.846v4.108zm-15.377 0v-4.108h3.845v4.108zm-15.376 0v-4.108h3.844v4.108zm-15.377 0v-4.108h3.844v4.108zm-15.377 0v-4.108h3.845v4.108zm-15.378 0v-4.108h3.846v4.108zm-15.376 0v-4.108h3.845v4.108zm-15.377 0v-4.108h3.844v4.108zm-15.377 0v-4.108h3.844v4.108zm-15.377 0v-4.108h3.845v4.108zm-15.377 0v-4.108h3.845v4.108zm-15.377 0v-4.108h3.844v4.108zm-15.377 0v-4.108h3.844v4.108zm-15.377 0v-4.108h3.845v4.108zm-15.377 0v-4.108h3.845v4.108zm-15.376 0v-4.108h3.844v4.108zm-15.377 0v-4.108h3.844v4.108zm-15.369 0v-4.108h3.843v4.108zm-15.111 0v-4.108h3.844v4.108zm-15.377 0v-4.108h3.844v4.108zm-15.377 0v-4.108h3.844v4.108zm-15.377 0v-4.108h3.845v4.108zm-15.377 0v-4.108h3.845v4.108zm-15.376 0v-4.108h3.844v4.108zm-15.377 0v-4.108h3.844v4.108zm-15.377 0v-4.108h3.844v4.108zm-15.377 0v-4.108h3.845v4.108zm-15.377 0v-4.108h3.845v4.108zm-15.376 0v-4.108h3.844v4.108zm-15.377 0v-4.108h3.843v4.108zm-15.377 0v-4.108h3.845v4.108zm-15.377 0v-4.108h3.844v4.108zm-15.376 0v-4.108h3.843v4.108zm-15.377 0v-4.108h3.843v4.108zm-15.377 0v-4.108h3.843v4.108zm-15.377 0v-4.108h3.844v4.108zm-15.377 0v-4.108h3.844v4.108zm-15.377 0v-4.108h3.844v4.108zm-15.377 0v-4.108h3.844v4.108zm-15.377 0v-4.108h3.845v4.108zm-15.377 0v-4.108H1382v4.108zm-15.377 0v-4.108h3.848v4.108zm-15.377 0v-4.108h3.844v4.108zm-15.371 0v-4.108h3.843v4.108z" class="cls-3" data-name="Union 16" transform="translate(-1331.042 -192.776)"/>
                </g>
            </g>
        </g>
        <g id="Group_58674" data-name="Group 58674" transform="translate(0 30)">
            <circle id="Ellipse_304" cx="48.877" cy="48.877" r="48.877" class="cls-4" data-name="Ellipse 304" transform="translate(1436.484 218.162)"/>
            <g id="layer1">
                <g id="g1894">
                    <path id="path8615" d="M1484.362 241.116c-13.36 0-12.526 5.793-12.526 5.793l.015 6h12.749v1.8h-17.813s-8.548-.97-8.548 12.51 7.461 13 7.461 13h4.453v-6.255s-.24-7.462 7.343-7.462h12.644s7.1.115 7.1-6.866V248.1s1.083-6.984-12.878-6.984zm-7.03 4.036a2.294 2.294 0 1 1-2.294 2.293 2.292 2.292 0 0 1 2.294-2.293z" class="cls-5"/>
                    <path id="path8620" d="M1484.741 293.467c13.36 0 12.526-5.793 12.526-5.793l-.015-6H1484.5v-1.8h17.812s8.549.969 8.549-12.511-7.461-13-7.461-13h-4.453v6.255s.24 7.462-7.343 7.462h-12.644s-7.1-.115-7.1 6.866v11.542s-1.08 6.979 12.881 6.979zm7.03-4.036a2.294 2.294 0 1 1 2.293-2.293 2.291 2.291 0 0 1-2.293 2.293z" class="cls-5"/>
                </g>
            </g>
        </g>
        <g id="Group_58676" data-name="Group 58676">
            <g id="Group_55030" data-name="Group 55030">
                <path id="Path_55-2" d="M1744.043 365.33h-.224V306.4a20.828 20.828 0 0 0-20.826-20.828h-150.837a20.828 20.828 0 0 0-20.827 20.828v26.072a.966.966 0 0 0-.41-.091h-.375a.967.967 0 0 0-.969.967v12.037a.968.968 0 0 0 .968.968h.376a.968.968 0 0 0 .41-.09v10.692a.965.965 0 0 0-.41-.091h-.375a.969.969 0 0 0-.969.969v24.485a.969.969 0 0 0 .969.969h.375a.965.965 0 0 0 .41-.091v6.078a.965.965 0 0 0-.41-.091h-.375a.968.968 0 0 0-.969.968v24a.969.969 0 0 0 .969.969h.375a.966.966 0 0 0 .41-.091v184.983a20.828 20.828 0 0 0 20.827 20.828h150.837a20.829 20.829 0 0 0 20.827-20.828V410.05h.224a.969.969 0 0 0 .969-.968V366.3a.967.967 0 0 0-.968-.968z" class="cls-6" data-name="Path 55-2"/>
            </g>
            <g id="Group_58675" data-name="Group 58675">
                <rect id="Rectangle_6-2" width="21.951" height="2.795" class="cls-7" data-name="Rectangle 6-2" rx="1.397" transform="translate(1634.254 297.013)"/>
                <circle id="Ellipse_1" cx="3.391" cy="3.391" r="3.391" class="cls-7" data-name="Ellipse 1" transform="translate(1607.962 295.054)"/>
                <circle id="Ellipse_2" cx="3.391" cy="3.391" r="3.391" class="cls-7" data-name="Ellipse 2" transform="translate(1623.462 295.054)"/>
            </g>
            <path id="Screen-2" d="M1719.371 612.586h-144.04a15.956 15.956 0 0 1-15.957-15.952V309.292a15.956 15.956 0 0 1 15.93-15.98h28.071v4.452a7.262 7.262 0 0 0 7.252 7.261h68.093a7.261 7.261 0 0 0 7.252-7.261v-4.452h33.4a15.953 15.953 0 0 1 15.955 15.952v287.343a15.953 15.953 0 0 1-15.928 15.98h-.027z" class="cls-8"/>
        </g>
        <g id="Group_54947" data-name="Group 54947" transform="translate(40 36)">
            <path id="Line_16" d="M0 0v20.29" class="cls-9" data-name="Line 16" transform="translate(1597.181 212.05)"/>
            <path id="Line_17" d="M20.291 0H0" class="cls-9" data-name="Line 17" transform="translate(1587.035 222.196)"/>
        </g>
        <g id="Group_54949" data-name="Group 54949">
            <path id="Line_20" d="M0 0l.378 20.286" class="cls-10" data-name="Line 20" transform="translate(1866.53 346.224)"/>
            <path id="Line_21" d="M20.286 0L0 .378" class="cls-10" data-name="Line 21" transform="translate(1856.576 356.178)"/>
        </g>
        <g id="Group_54950" data-name="Group 54950">
            <path id="Line_22" d="M0 0l.378 20.286" class="cls-11" data-name="Line 22" transform="translate(1409.844 380.511)"/>
            <path id="Line_23" d="M20.287 0L0 .378" class="cls-11" data-name="Line 23" transform="translate(1399.89 390.465)"/>
        </g>
        <g id="Group_58678" data-name="Group 58678">
            <g id="Group_58677" data-name="Group 58677">
                <path id="Path_57658" d="M1483.43 362.872l-2.432 8.615q-2.715 9.627-5.419 19.257c-.132.472-.309.642-.815.631-1.736-.035-3.473-.013-5.3-.013.431-1.553.832-3.019 1.245-4.481q3.278-11.622 6.548-23.244c.158-.564.36-.8.994-.783 1.687.053 3.38.018 5.179.018z" class="cls-12" data-name="Path 57658"/>
                <path id="Path_57659" d="M1492.6 377.2l-7.872-6.689 3.7-4.369 13.021 11.057-13.019 11.06-3.706-4.359z" class="cls-12" data-name="Path 57659"/>
                <path id="Path_57660" d="M1459.941 377.2l7.868 6.694-3.7 4.365-13.023-11.059 13.023-11.063 3.7 4.367z" class="cls-12" data-name="Path 57660"/>
            </g>
        </g>
        <g id="Group_58685" data-name="Group 58685">
            <path id="Rectangle_30020" d="M0 0h72.466v104.169H0z" class="cls-13" data-name="Rectangle 30020" transform="translate(1573.382 317.829)"/>
            <g id="Group_58679" data-name="Group 58679">
                <path id="Rectangle_30021" d="M0 0h73.253v9.227H0z" class="cls-12" data-name="Rectangle 30021" transform="translate(1655.567 316.902)"/>
                <path id="Rectangle_30022" d="M0 0h73.253v3.488H0z" class="cls-12" data-name="Rectangle 30022" transform="translate(1655.567 333.648)"/>
                <path id="Rectangle_30023" d="M0 0h73.253v3.488H0z" class="cls-12" data-name="Rectangle 30023" transform="translate(1655.567 345.995)"/>
                <path id="Path_57661" d="M1728.821 357.481v3.488h-73.253v-3.488" class="cls-12" data-name="Path 57661"/>
            </g>
            <g id="Group_58680" data-name="Group 58680">
                <path id="Rectangle_30024" d="M0 0h73.253v9.227H0z" class="cls-12" data-name="Rectangle 30024" transform="translate(1655.567 452.466)"/>
                <path id="Rectangle_30025" d="M0 0h73.253v3.488H0z" class="cls-12" data-name="Rectangle 30025" transform="translate(1655.567 469.212)"/>
                <path id="Rectangle_30026" d="M0 0h73.253v3.488H0z" class="cls-12" data-name="Rectangle 30026" transform="translate(1655.567 505.559)"/>
                <path id="Rectangle_30027" d="M0 0h73.253v3.488H0z" class="cls-12" data-name="Rectangle 30027" transform="translate(1655.567 492.516)"/>
                <path id="Rectangle_30028" d="M0 0h73.253v3.488H0z" class="cls-12" data-name="Rectangle 30028" transform="translate(1655.567 481.559)"/>
            </g>
            <g id="Group_58681" data-name="Group 58681">
                <path id="Rectangle_30029" d="M0 0h73.253v9.227H0z" class="cls-12" data-name="Rectangle 30029" transform="translate(1572.089 433.25)"/>
                <path id="Rectangle_30030" d="M0 0h73.253v3.488H0z" class="cls-12" data-name="Rectangle 30030" transform="translate(1572.089 449.996)"/>
                <path id="Rectangle_30031" d="M0 0h73.253v3.488H0z" class="cls-12" data-name="Rectangle 30031" transform="translate(1572.089 486.343)"/>
                <path id="Rectangle_30032" d="M0 0h73.253v3.488H0z" class="cls-12" data-name="Rectangle 30032" transform="translate(1572.089 473.299)"/>
                <path id="Rectangle_30033" d="M0 0h73.253v3.488H0z" class="cls-12" data-name="Rectangle 30033" transform="translate(1572.089 462.343)"/>
                <path id="Rectangle_30034" d="M0 0h73.253v3.488H0z" class="cls-12" data-name="Rectangle 30034" transform="translate(1572.089 497.836)"/>
            </g>
            <g id="Group_58682" data-name="Group 58682">
                <circle id="Ellipse_305" cx="15.067" cy="15.067" r="15.067" class="cls-14" data-name="Ellipse 305" transform="translate(1577.369 521.458)"/>
                <circle id="Ellipse_306" cx="15.067" cy="15.067" r="15.067" class="cls-14" data-name="Ellipse 306" transform="translate(1616.217 521.458)"/>
                <circle id="Ellipse_307" cx="15.067" cy="15.067" r="15.067" class="cls-14" data-name="Ellipse 307" transform="translate(1655.61 521.458)"/>
                <circle id="Ellipse_308" cx="15.067" cy="15.067" r="15.067" class="cls-14" data-name="Ellipse 308" transform="translate(1694.822 521.458)"/>
            </g>
            <g id="Group_58684" data-name="Group 58684">
                <path id="Rectangle_30035" d="M0 0h122.354v73.158H0z" class="cls-4" data-name="Rectangle 30035" transform="translate(1658.242 370.209)"/>
                <g id="Group_58683" data-name="Group 58683">
                    <path id="Rectangle_30036" d="M0 0h107.105v13.797H0z" class="cls-14" data-name="Rectangle 30036" transform="translate(1665.504 379.649)"/>
                    <path id="Rectangle_30037" d="M0 0h30.679v30.679H0z" class="cls-14" data-name="Rectangle 30037" transform="translate(1665.141 399.98)"/>
                    <path id="Rectangle_30038" d="M0 0h30.679v30.679H0z" class="cls-15" data-name="Rectangle 30038" transform="translate(1703.444 399.98)"/>
                    <path id="Rectangle_30039" d="M0 0h30.679v30.679H0z" class="cls-14" data-name="Rectangle 30039" transform="translate(1741.748 399.98)"/>
                </g>
            </g>
            <path id="Rectangle_30040" d="M0 0h151.662v30.331H0z" class="cls-14" data-name="Rectangle 30040" transform="translate(1573.382 563.508)"/>
        </g>
        <g id="Group_58690" data-name="Group 58690">
            <g id="Group_58686" data-name="Group 58686">
                <path id="Path_57662" d="M1833.015 476.475a3.375 3.375 0 0 0 .2-2.436c-2.218-7.69-8.876-22.828-8.876-22.828l9.959-2.581 2.817-.725s5.305 18.449 7.128 26.371a7.618 7.618 0 0 1-.851 5.542c-7.746 13.386-11.707 17.58-16.343 22.243-3.171 3.194-3.738 7.183-4.6 9.159-5.193-4.282-5.318-3.863-5.318-3.863s11.062-20.997 15.884-30.882z" class="cls-16" data-name="Path 57662"/>
            </g>
            <g id="Group_58687" data-name="Group 58687">
                <path id="Path_57663" d="M1805.627 505.36l23.676-19.028s5.553 13.387 1.148 27.423c-2.167 6.9.136 11.809-1.033 15.08-1.092 3.056-9.119 46.5-8.674 49.7s3.983 12.211 5.191 21.627c1.453 11.323.282 48.078 1.385 57.857s-7.938 11.214-8.355 7.9c-3.557-28.286-13.683-72.474-14.91-86.6s.023-39.919 1.572-73.959z" class="cls-17" data-name="Path 57663"/>
                <path id="Path_57664" d="M1817.618 656.832s1.917 10.278 1.3 11.568-2.794 5.028-4.967 6.346c-2.281 1.384-7.3 2.972-7.711 3.586a1.547 1.547 0 0 0 .236 2.1 10.314 10.314 0 0 0 7.052 1.967c6.773-.952 7.542-3.919 11.484-4.3.68-.066 1.914.967 3.814.051a4.463 4.463 0 0 0 2.731-4.266c-.211-2.824-1.738-5.183-2.814-7.293s-1.642-11.664-1.642-11.664" class="cls-17" data-name="Path 57664"/>
                <path id="Path_57665" d="M1805.942 680.907c-.472-.853-.566-2.129-.1-2.429a39.481 39.481 0 0 1 4.26-2.428c1.323-.571 3.411-1.052 2.67-.675s.571 1.886 1.8 1.84c4.235-.158 7.421-2.894 9.844-3.439 3.5-.785 5.052-4.855 5.221-5.517.647.433 2.1 3.774 2.383 4.821a8.326 8.326 0 0 1 .429 3.647 8.457 8.457 0 0 0-.469 3.457 6.65 6.65 0 0 1-2.521.842 9.868 9.868 0 0 1-2.692-.025l-.247-2.191a9.867 9.867 0 0 0-2.155.16 11.7 11.7 0 0 0-3.323 1.455c-.5.565-.908 1.607-1.554 1.913a13.455 13.455 0 0 1-5.58 1.251c-4.545.157-7.16-1.223-7.966-2.682z" class="cls-18" data-name="Path 57665"/>
            </g>
            <g id="Group_58688" data-name="Group 58688">
                <path id="Path_57666" d="M1771.573 678.731c.5-.546 5.89-1.367 8.424-2.4a14.5 14.5 0 0 0 5.937-5.542c.58-1.364.521-8.307.477-11.221-.3-20.08-3.513-69.172-3.931-80.925-.727-20.428 2.137-41.478 10.324-74.177l29.481-22.155s8.039 15.313 5.149 29.848c-1.677 8.433-8.7 9.661-9.916 12.932s-19.453 56.035-19.453 56.035a99.616 99.616 0 0 1 3.4 24.021c.062 10.705-5.118 42.944-6.143 55.237-.13 2.4-.6 8.152.087 9.991.846 2.253 3.031 4.912 2.891 7.742a4.356 4.356 0 0 1-3.362 3.818c-2.08.622-3.224-.588-3.935-.625-4.123-.212-5.294 2.613-12.414 2.538a11.267 11.267 0 0 1-7.038-3.01 1.505 1.505 0 0 1 .022-2.107z" class="cls-17" data-name="Path 57666"/>
                <path id="Path_57667" d="M1770.935 681.238c-.379-.917-.315-2.2.2-2.423a40.913 40.913 0 0 1 4.711-1.765c1.439-.367 3.658-.531 2.845-.268s.35 1.955 1.623 2.094c4.4.48 8.036-1.753 10.609-1.928 3.715-.253 5.115-4.06 5.373-4.691a17.015 17.015 0 0 1 2.574 5.143c.146.977.4 2.759-.019 3.68a8.042 8.042 0 0 0-.923 3.355 7 7 0 0 1-2.711.455 10.768 10.768 0 0 1-2.779-.429l.022-2.209a10.767 10.767 0 0 0-2.248-.165 7.463 7.463 0 0 0-3.64 1.246c-.609.449-1.254 1.209-1.969 1.382a14.933 14.933 0 0 1-5.783.378c-4.709-.528-7.237-2.293-7.885-3.855z" class="cls-18" data-name="Path 57667"/>
            </g>
            <g id="Group_58689" data-name="Group 58689">
                <path id="Path_57668" d="M1724.512 420.079c-1.462.425-6.248-1.235-7.483-3.209a3.344 3.344 0 0 1-.559-2.124c-.721-.849-1.964-3.851.2-3.225-2.225-1.489-2.79-3.751-3.392-6.283-.2-.848.781-1.1 1.808.579a9.568 9.568 0 0 0 6.453 4.308c.18-.465-.442-.616-.906-1.6-.515-1.092-.178-1.854.311-2.035.37-.137 1.209 1.11 1.5 1.353l3.264 2.772a6.807 6.807 0 0 1 2.367 3.223c.091.247.661 2.754-.414 2.4" class="cls-17" data-name="Path 57668"/>
                <path id="Path_57669" d="M1795.5 443.246c-10.982-.127-30.648-2.007-33.351-2.537-10.65-2.09-37.862-20.744-37.862-20.744s-.517-4.355 3.631-5.56c6.9 5.6 31.611 12.7 34.9 14.7 2.133 1.3 36.681-.116 36.681-.116" class="cls-17" data-name="Path 57669"/>
            </g>
            <path id="Path_57670" d="M1832.075 429.752s4.666 12.576 6.191 22.526l-11.29 1.776v-15.99" class="cls-19" data-name="Path 57670"/>
            <path id="Path_57671" d="M1824.234 482.216c8.138 7.024 11.261 18.675 9.624 31.109-.434 3.291-3.757 12.335-4.27 15.624-1.167 7.484-3.563 18.5-3.423 27.034-10.921 7.921-33.1 7.228-43.138 1.316-1.116-10.314-.908-18.515-.117-32.812 1.192-21.568 10.813-41.678 11.007-43.474" class="cls-18" data-name="Path 57671"/>
            <path id="Path_57672" d="M1793 461.627c.415 3.85 0 9.772-.536 16.351a32.726 32.726 0 0 0-.536 4.313 2.457 2.457 0 0 0 .853 1.681c1.17 1.145 3.436 1.852 5.921 2.291 8.09 1.462 20.883.487 24.489 1.194 3.387.682 6.872-.463 6.872-2.535 0-1.437-1.316-2.241-1.438-5.068-.268-6.189-.073-20.274 1.073-26.56 2.387-13.183 3.045-21.005 1.388-35.747l-24.708-7.018c-1.9.317-1.072 6.116-2.973 6.433-1.389.22-9.211 7.652-11.428 16.424a34.135 34.135 0 0 0-2.851 5.7 10.057 10.057 0 0 0 .024 7.8c1.899 5.189 3.239 8.914 3.85 14.741z" class="cls-19" data-name="Path 57672"/>
            <path id="Path_57673" d="M1794.216 461.627c.415 3.85 0 9.772-.536 16.351a32.726 32.726 0 0 0-.536 4.313 2.461 2.461 0 0 0 .853 1.681v-.024c-.731-1.633 1.024-9.747 1.779-14.3a51.57 51.57 0 0 0-1.072-18.982c-1.608-5.58-2.218-8.236-2.218-8.236s-1.267-1.9-2.144-3.338a10.056 10.056 0 0 0 .025 7.8c1.9 5.183 3.24 8.908 3.849 14.735z" class="cls-19" data-name="Path 57673"/>
            <path id="Path_57674" d="M1796.85 422.7a10.821 10.821 0 0 0-7.282 1.249c-4.765 2.814-14.711 4.47-14.711 4.47s-.764 11.362.463 15.722c0 0 3.3-.52 13.1.543 10.126 1.1 23.644 7.808 23.644 7.808" class="cls-19" data-name="Path 57674"/>
            <path id="Path_57675" d="M1796.781 384.288c2.421-4.638 6.261-11.2 15.444-10.288s17.044 6.7 16.933 13.579-4.771 15.168-6.566 19.928-1.033 11.837-1.033 11.837l-20.355-.732s.53-6.22-.712-8.571c-.695-1.315-3.423-3.78-6.584-6.334-1.382-1.116-2.5-3.445-1.67-7.078 1.236-5.432 1.68-7.819 2.473-9.412.569-1.144 1.542-1.917 2.07-2.929z" class="cls-17" data-name="Path 57675"/>
            <path id="Path_57676" d="M1797.153 421.344c1.234-1.462 3.126-2.191 4.217-3.764a8.5 8.5 0 0 0 1.453-5.51 10.286 10.286 0 0 0-1.217-3.117c-2.215-4.463-2.355-7.348.806-10.955a12.561 12.561 0 0 0 2.583-3.9c.478-1.338.849-2.8-.448-3.607a1.735 1.735 0 0 0-2.346.023c-.5.452-1.954 4.713-2.209 1.789-.245-2.8-1.306-3.506 1.149-8.53.291-.6 1.651-2.937 1.449-3.472-3.156.6-4.235 1.433-5.526 3.448-1.413-1.581 2.71-13.145 15.407-12.829 3.208.08 6.522.29 9.377 1.738s6.032 4.005 5.841 6.568c4.5.866 5.128 5.452 5.478 7.16a22.535 22.535 0 0 1 .267 7.433c-.476 3.649-1.833 7.132-2.554 10.745a15.735 15.735 0 0 0 .413 8.993c1.116 2.69 3.782 4.154 5.136 6.777a11.811 11.811 0 0 1-.151 10.789c-1.752 3.322-3.948 5.505-3.374 9.586a13.043 13.043 0 0 1-4.3 12.448 13.434 13.434 0 0 1-9.7 2.629 22.436 22.436 0 0 1-7.955-2.511c-4.744-2.576-8.973-4.239-12.04-11.083-1.736-3.875.806-4.415-.742-8.387-.867-2.226-2.721-4.071-2.959-6.542a8.3 8.3 0 0 1 1.8-5.746l.145-.173z" class="cls-18" data-name="Path 57676"/>
        </g>
        <g id="Group_58714" data-name="Group 58714">
            <g id="Group_58694" data-name="Group 58694">
                <path id="Path_57677" d="M1427.3 491.284c.1 1 1.47 11.476 12.239 11.476 11.306 0 9.412-11.193 9.412-11.193l.014-.071a11.269 11.269 0 0 0-3.547-.169v-5.3l-12.832-7.179h-.467v12.366a23.305 23.305 0 0 0-4.819.07z" class="cls-16" data-name="Path 57677"/>
                <g id="Group_58693" data-name="Group 58693">
                    <g id="Group_58692" data-name="Group 58692">
                        <g id="Group_58691" data-name="Group 58691">
                            <path id="Path_57678" d="M1433.536 455.19a14.663 14.663 0 0 0-3.857 7.151c-1.233 5.437-.073 11.189 1.5 16.428a8.274 8.274 0 0 0 1.13 2.555 9.082 9.082 0 0 0 1.407 1.42q3.423 2.982 6.842 5.97c1.544 1.351 11.047 2.477 12.861 1.18 6.989-5 8.334-19.476 6.935-26.878-2.317-12.28-18.099-16.67-26.818-7.826z" class="cls-16" data-name="Path 57678"/>
                        </g>
                    </g>
                    <path id="Path_57679" d="M1437.461 470.9c-.093-1.182-1.308-2.476-2.528-1.71-1.263.795-.966 2.893-.442 4.049.41.906 1.783 1.9 2.712 1.055.78-.706-.431-1.539-.471-2.184-.036-.58 1.125-.995.65-1.617" class="cls-20" data-name="Path 57679"/>
                    <path id="Path_57680" d="M1437.237 476.37a3.609 3.609 0 0 1-3.977-2.363 13.6 13.6 0 0 1-.488-3.8 9.105 9.105 0 0 0-.312 4.191c.33 2.584 1.236 5.046 3.264 5.078s1.513-3.106 1.513-3.106z" class="cls-20" data-name="Path 57680"/>
                    <path id="Path_57681" d="M1438.8 474.531a.489.489 0 0 0 .143.043c.789.11 1.1-.844 1.22-1.442a26.3 26.3 0 0 0 .279-4.217 3.21 3.21 0 0 1 .129-1.127c.443-1.015 1.624-1.674 1.984-2.722.419-1.219-.764-2.436-.3-3.77.72-2.044 3.344-2.514 5.243-2.492a59.682 59.682 0 0 1 8.436 1c2.968.461 6.761.9 9.376-.979 3.152-2.262 4.468-8.157 2.116-11.384a7.635 7.635 0 0 0-5.843-2.746c-2.259-.051-4.166 1.3-6.238 1.972-1.65.539-3.245-1.039-4.787-1.347-1.938-.387-2.762 1.729-4.476 1.787-1.666.056-3.3-1.245-4.92-1.541-3.229-.589-3.039 2.654-5.206 3.762-1.346.688-3.086.272-4.448.971-1.035.532-1.18 1.466-1.4 2.524a24.759 24.759 0 0 1-.507 2.841 6.431 6.431 0 0 1-1.441 1.887 6.951 6.951 0 0 0-1.2 2.283 14.227 14.227 0 0 0-.6 5.8 39.409 39.409 0 0 0 2.426 9.542c.707 1.993.969 4.067 2.056 5.953.292.507 1.589 1.987 2.071.885a1.636 1.636 0 0 0 .07-.763c-.144-2.054-2.056-15.291 2.958-13.7a3.559 3.559 0 0 1 2.151 2.209 8.6 8.6 0 0 1 .442 3.662 6.556 6.556 0 0 0-.006.543.62.62 0 0 0 .272.566z" class="cls-18" data-name="Path 57681"/>
                </g>
            </g>
            <path id="Path_57682" d="M1445.421 490.114a17.268 17.268 0 0 1-9.464-5.421 10.392 10.392 0 0 0 9.807 7.993z" class="cls-20" data-name="Path 57682"/>
            <g id="Group_58696" data-name="Group 58696">
                <path id="Rectangle_30041" d="M0 0h8.161v78.117a1.626 1.626 0 0 1-1.626 1.626H1.626A1.626 1.626 0 0 1 0 78.117V0z" class="cls-21" data-name="Rectangle 30041" transform="translate(1427.901 593.581)"/>
                <path id="Rectangle_30042" d="M0 0h44.884v.5a6.314 6.314 0 0 1-6.314 6.311H6.314A6.314 6.314 0 0 1 0 .5V0z" class="cls-21" data-name="Rectangle 30042" transform="translate(1409.539 594.7)"/>
                <g id="Group_58695" data-name="Group 58695">
                    <path id="Rectangle_30043" d="M0 0h8.161v17.958a1.626 1.626 0 0 1-1.626 1.626H1.626A1.626 1.626 0 0 1 0 17.958V0z" class="cls-21" data-name="Rectangle 30043" transform="translate(1427.901 664.04)"/>
                    <path id="Path_57683" d="M1474.333 678.847a4.776 4.776 0 1 1-4.776-4.777 4.777 4.777 0 0 1 4.776 4.777z" class="cls-21" data-name="Path 57683"/>
                    <path id="Path_57684" d="M1399.182 678.847a4.776 4.776 0 1 1-4.776-4.777 4.777 4.777 0 0 1 4.776 4.777z" class="cls-21" data-name="Path 57684"/>
                    <path id="Rectangle_30044" d="M0 0h16.419v14.348H0z" class="cls-21" data-name="Rectangle 30044" transform="translate(1423.772 657.958)"/>
                    <path id="Rectangle_30045" d="M5.751 0h73.2A5.751 5.751 0 0 1 84.7 5.751v1H0v-1A5.751 5.751 0 0 1 5.751 0z" class="cls-21" data-name="Rectangle 30045" transform="translate(1389.629 668.93)"/>
                </g>
            </g>
            <path id="Path_57685" d="M1399.917 536.822a3.329 3.329 0 0 1 3.438 3.515c-.561 9.721 1.5 33.436 10.554 41.528 11.071 9.892 42.449 8.545 42.449 8.545s5.182 6.36-5.182 7.773-39.571.471-46.637-6.124c-6.841-6.384-10.9-23.11-7.841-52.223a3.351 3.351 0 0 1 3.219-3.014z" class="cls-21" data-name="Path 57685"/>
            <g id="Group_58698" data-name="Group 58698">
                <g id="Group_58697" data-name="Group 58697">
                    <path id="Path_57686" d="M1458.706 656.678l-3.731 8.508 11.433 5.017 3.745-8.536z" class="cls-22" data-name="Path 57686"/>
                    <path id="Path_57687" d="M1404.79 562.117c.707 1.413 51.506.028 56.3.466 0 0 31.092 14.839 35.558 28.732a15.189 15.189 0 0 1 .438 5.455c-1.244 19.56-23.517 66.395-23.517 66.395l-3.42-1.5-11.447-4.989-1.625-.706s17.665-52.644 14.132-55.471-43.571-9.893-57.463-13.652-8.956-24.73-8.956-24.73z" class="cls-18" data-name="Path 57687"/>
                    <path id="Path_57688" d="M1502.293 658.867l-.893 12.782h12.479l.893-12.81z" class="cls-23" data-name="Path 57688"/>
                    <path id="Path_57689" d="M1461.349 562.145l.452.2s52.05 7.307 60.53 21.906c5.512 9.5-5.157 78.892-5.157 78.892l-18.415.042s2.755-57.806 1.836-61.028c-1.032-3.675-2.8-5-3.505-5.385a15.189 15.189 0 0 0-.438-5.455c-4.466-13.893-35.558-28.732-35.558-28.732a.891.891 0 0 0 .255-.44z" class="cls-18" data-name="Path 57689"/>
                    <path id="Path_57690" d="M1405.024 578.087c.374.777 8.456-5.007 22.877-10.3 16.627-6.1 32.007-4.239 33.189-5.2a.9.9 0 0 0 .254-.438 31.239 31.239 0 0 0 .721-7.292c.028-.594.028-1.23.042-1.88l-.537.042-.594-3.151-43.485-16.507a170.661 170.661 0 0 1-2.926-18.825l-3.491-.48c-2.332 17.633-10.582 54.609-6.05 64.031z" class="cls-24" data-name="Path 57690"/>
                    <path id="Path_57691" d="M1415.611 535.618c1.159 5.568 4.155 16.648 10.034 18.132 7.674 1.951 22.513 1.852 36.42 1.1.028-.594.028-1.23.042-1.88l-.537.042-.594-3.151-43.485-16.507a170.661 170.661 0 0 1-2.926-18.825 1.247 1.247 0 0 1-.014.156c-.085 1.459-.678 12.708 1.06 20.933z" class="cls-25" data-name="Path 57691"/>
                    <path id="Path_57692" d="M1459.2 500.16c.778 1.413 1.894 16.535 2.5 31.544l8.889-8.3c-3.771-7.304-11.389-23.244-11.389-23.244z" class="cls-25" data-name="Path 57692"/>
                    <path id="Path_57693" d="M1464.528 542.67c7.505 1.3 14.4 2.417 14.4 2.417l.014.368c8.352-6.671 21.057-25.566 21.057-25.566s-3.8-4.565-4.748-5.766c-.142-.184-20.86 14.076-21.92 13.948-.268-.028-1.328-1.893-2.742-4.663l-8.889 8.3c.141 3.575.254 7.136.325 10.514.836.152 1.67.293 2.503.448z" class="cls-16" data-name="Path 57693"/>
                    <path id="Path_57694" d="M1478.93 545.087l.183 6.19h22.613s-2.248-8.833-8.367-8.833-8.48 3.237-8.48 3.237z" class="cls-16" data-name="Path 57694"/>
                    <path id="Path_57695" d="M1495.422 513.981l-.169.142c.947 1.2 4.748 5.766 4.748 5.766l2.36-1.668a5.868 5.868 0 0 0 5.625-.071c3.152-1.71 1.2-5.793 1.04-6.277.611.172 4.387 3.225 4.981 2.9s1.031-1.4-3.194-5.569-9.95 1.188-10.119 1.188z" class="cls-16" data-name="Path 57695"/>
                    <path id="Path_57696" d="M1507.494 517.441a1.725 1.725 0 0 1-.708 2.448 16.144 16.144 0 0 1-6.125 1.146c-1.353-.13-2.429-2.025-2.429-2.025l4.1-3.846h3.277z" class="cls-16" data-name="Path 57696"/>
                    <path id="Path_57697" d="M1507.737 518.279c-.243-.838-2.57-.391-4.013-.357-1.063.025-1.645-.253-1.974-1.063s1.214-2.1 1.518-1.7-.557.974-.582 1.512 1.518.715 2.708.715a28.943 28.943 0 0 1 3.242.31z" class="cls-26" data-name="Path 57697"/>
                </g>
            </g>
            <path id="Path_57698" d="M1419.7 541.384l22.146-7.843c1.611 3.01 3.335 5.271 5.045 5.723 2.586.679 8.833 1.852 15.136 2.954.834.156 1.668.3 2.5.452 7.505 1.3 14.4 2.417 14.4 2.417l.014.368v.24l.169 5.582v1.417a156.5 156.5 0 0 0-17 .279c-13.271.947-30.385 1.512-36.053-1.159-2.656-1.258-4.776-5.384-6.444-10.472z" class="cls-16" data-name="Path 57698"/>
            <path id="Path_57699" d="M1441.846 533.541l-22.146 7.844 1 2.959 21.919-9.4z" class="cls-25" data-name="Path 57699"/>
            <path id="Path_57700" d="M1441.846 533.541c1.611 3.01 3.335 5.271 5.045 5.723 2.586.679 8.833 1.852 15.136 2.954a577.28 577.28 0 0 0-.325-10.514c-.608-15.009-1.724-30.131-2.5-31.544-1.271-2.361-4.748-7.491-10.232-8.664l-.014.071s1.894 11.193-9.412 11.193c-10.769 0-12.14-10.472-12.239-11.476-5.54.622-14.033 3.392-15.206 14.529-.241 2.2-.58 5.031-1.018 8.239l3.491.48s1.413 15.688 5.045 26.81l.085.042z" class="cls-24" data-name="Path 57700"/>
            <path id="Path_57701" d="M1442.075 531.5l-8.843-21.407 6.515 22.271z" class="cls-27" data-name="Path 57701"/>
            <path id="Path_57702" d="M1427.3 491.284h4.819s6.858 7.53 11.267 7.53 2.032-7.487 2.032-7.487h2.151a12.157 12.157 0 0 1 12.077 10.778c.08.7.153 1.371.216 1.974.471 4.555-17.983 7.87-17.983 7.87l-9.5-.531-5.77-11.258-1.15-4.61z" class="cls-24" data-name="Path 57702"/>
            <g id="Group_58702" data-name="Group 58702">
                <g id="Group_58701" data-name="Group 58701">
                    <g id="Group_58700" data-name="Group 58700">
                        <g id="Group_58699" data-name="Group 58699">
                            <path id="Path_57703" d="M1485.456 679.995c-.43 2.3-2.025 3.94-4.328 3.51l-30.7-5.725a1.43 1.43 0 0 1-1.143-1.668l.508-2.723s32.282 5.649 35.673 6.589z" class="cls-18" data-name="Path 57703"/>
                            <path id="Path_57704" d="M1476.324 672.267c-.32-.278-.628-.553-.949-.831-.615-.551-1.221-1.088-1.8-1.607-.308-.276-.616-.551-.9-.81l-1.562-1.395c-.341-.307-.659-.6-.944-.856l-1.254-1.123a.694.694 0 0 0-.913-.019c-1.262 1.061-5.34 3.487-12.727-1.084a.708.708 0 0 0-1.005.262l-4.467 8.585s32.282 5.649 35.673 6.589c-1.119-.695-5.241-4.261-9.152-7.711z" class="cls-18" data-name="Path 57704"/>
                        </g>
                    </g>
                </g>
            </g>
            <g id="Group_58706" data-name="Group 58706">
                <g id="Group_58705" data-name="Group 58705">
                    <g id="Group_58704" data-name="Group 58704">
                        <g id="Group_58703" data-name="Group 58703">
                            <path id="Path_57705" d="M1533.8 679.694c-.057 2.342-1.371 4.212-3.713 4.155l-31.215-.762a1.431 1.431 0 0 1-1.4-1.465l.068-2.769s32.77.434 36.268.822z" class="cls-18" data-name="Path 57705"/>
                            <path id="Path_57706" d="M1523.551 673.519c-.361-.223-.708-.446-1.069-.669l-2.037-1.3c-.348-.223-.7-.446-1.019-.656l-1.764-1.128a97.756 97.756 0 0 1-1.068-.7l-1.417-.909a.7.7 0 0 0-.905.127c-1.076 1.248-4.716 4.293-12.737.957a.71.71 0 0 0-.951.419l-3.042 9.187s32.77.434 36.268.822c-1.21-.503-5.848-3.369-10.259-6.15z" class="cls-18" data-name="Path 57706"/>
                        </g>
                    </g>
                </g>
            </g>
            <g id="Group_58708" data-name="Group 58708">
                <path id="Path_57707" d="M1556 552.694l16.67-44.461h-47.459l-16.671 44.461z" class="cls-28" data-name="Path 57707"/>
                <path id="Path_57708" d="M1505.609 552.694h2.934l16.671-44.461-2.664.119-15.419 40.243z" class="cls-28" data-name="Path 57708"/>
                <path id="Path_57709" d="M1570.12 547.889h-59.753" class="cls-1" data-name="Path 57709"/>
                <g id="Group_58707" data-name="Group 58707">
                    <path id="Path_57710" d="M1506.53 552.694h-31.361l.086-2.8h31.916" class="cls-28" data-name="Path 57710"/>
                </g>
                <ellipse id="Ellipse_309" cx="3.747" cy="2.725" class="cls-8" data-name="Ellipse 309" rx="3.747" ry="2.725" transform="rotate(-77.213 1103.084 -695.804)"/>
            </g>
            <g id="Group_58713" data-name="Group 58713">
                <g id="Group_58709" data-name="Group 58709">
                    <path id="Rectangle_30046" d="M0 0h7.55v124.044H0z" class="cls-29" data-name="Rectangle 30046" transform="translate(1372.925 561.173)"/>
                </g>
                <g id="Group_58710" data-name="Group 58710">
                    <path id="Rectangle_30047" d="M0 0h7.55v124.044H0z" class="cls-29" data-name="Rectangle 30047" transform="translate(1413.909 561.173)"/>
                </g>
                <g id="Group_58711" data-name="Group 58711">
                    <path id="Rectangle_30048" d="M0 0h7.55v124.044H0z" class="cls-29" data-name="Rectangle 30048" transform="translate(1545.211 561.173)"/>
                </g>
                <g id="Group_58712" data-name="Group 58712">
                    <path id="Rectangle_30049" d="M0 0h7.55v124.044H0z" class="cls-29" data-name="Rectangle 30049" transform="translate(1586.195 561.173)"/>
                </g>
                <rect id="Rectangle_30050" width="242.949" height="8.951" class="cls-29" data-name="Rectangle 30050" rx="4.149" transform="rotate(-180 802.324 280.822)"/>
            </g>
            <path id="Path_57711" d="M1470.591 523.408l.678 1.311-9.568 9.888v-2.9z" class="cls-30" data-name="Path 57711"/>
        </g>
    </g>
</svg>
