<svg xmlns="http://www.w3.org/2000/svg" xmlns:xlink="http://www.w3.org/1999/xlink" width="488" height="512" viewBox="0 0 488 512">
    <defs>
        <linearGradient id="a" x1="66.06%" x2="30.953%" y1="0%" y2="100%">
            <stop offset="0%" stop-color="#EF504A"/>
            <stop offset="33.86%" stop-color="#CA3676"/>
            <stop offset="100%" stop-color="#8103CB"/>
        </linearGradient>
        <linearGradient id="b" x1="54.27%" x2="44.936%" y1="0%" y2="100%">
            <stop offset="0%" stop-color="#EF504A"/>
            <stop offset="33.86%" stop-color="#CA3676"/>
            <stop offset="100%" stop-color="#8103CB"/>
        </linearGradient>
        <linearGradient id="c" x1="97.071%" x2="-5.825%" y1="42.78%" y2="57.22%">
            <stop offset="0%" stop-color="#EF504A"/>
            <stop offset="33.86%" stop-color="#CA3676"/>
            <stop offset="100%" stop-color="#8103CB"/>
        </linearGradient>
        <linearGradient id="d" x1="97.071%" x2="-5.825%" y1="43.205%" y2="56.795%">
            <stop offset="0%" stop-color="#EF504A"/>
            <stop offset="33.86%" stop-color="#CA3676"/>
            <stop offset="100%" stop-color="#8103CB"/>
        </linearGradient>
        <linearGradient id="e" x1="73.794%" x2="21.782%" y1="0%" y2="100%">
            <stop offset="0%" stop-color="#EF504A"/>
            <stop offset="100%" stop-color="#8103CB"/>
        </linearGradient>
        <path id="f" d="M.272 36.464L.268 83.535 62.049 47.76V.587z"/>
        <linearGradient id="h" x1="76.347%" x2="18.753%" y1="0%" y2="100%">
            <stop offset="0%" stop-color="#EF504A"/>
            <stop offset="33.86%" stop-color="#CA3676"/>
            <stop offset="100%" stop-color="#8103CB"/>
        </linearGradient>
        <linearGradient id="i" x1="76.719%" x2="18.312%" y1="0%" y2="100%">
            <stop offset="0%" stop-color="#EF504A"/>
            <stop offset="33.86%" stop-color="#CA3676"/>
            <stop offset="100%" stop-color="#8103CB"/>
        </linearGradient>
        <linearGradient id="j" x1="97.071%" x2="-5.825%" y1="41.674%" y2="58.326%">
            <stop offset="0%" stop-color="#EF504A"/>
            <stop offset="33.86%" stop-color="#CA3676"/>
            <stop offset="100%" stop-color="#8103CB"/>
        </linearGradient>
        <linearGradient id="k" x1="97.071%" x2="-5.825%" y1="10.55%" y2="89.45%">
            <stop offset="0%" stop-color="#EF504A"/>
            <stop offset="33.86%" stop-color="#CA3676"/>
            <stop offset="100%" stop-color="#8103CB"/>
        </linearGradient>
        <linearGradient id="l" x1="97.071%" x2="-5.825%" y1="11.083%" y2="88.917%">
            <stop offset="0%" stop-color="#EF504A"/>
            <stop offset="33.86%" stop-color="#CA3676"/>
            <stop offset="100%" stop-color="#8103CB"/>
        </linearGradient>
        <linearGradient id="m" x1="97.071%" x2="-5.825%" y1="44.028%" y2="55.972%">
            <stop offset="0%" stop-color="#EF504A"/>
            <stop offset="33.86%" stop-color="#CA3676"/>
            <stop offset="100%" stop-color="#8103CB"/>
        </linearGradient>
        <linearGradient id="n" x1="97.071%" x2="-5.825%" y1="44.245%" y2="55.755%">
            <stop offset="0%" stop-color="#EF504A"/>
            <stop offset="33.86%" stop-color="#CA3676"/>
            <stop offset="100%" stop-color="#8103CB"/>
        </linearGradient>
        <linearGradient id="o" x1="76.371%" x2="18.725%" y1="0%" y2="100%">
            <stop offset="0%" stop-color="#EF504A"/>
            <stop offset="33.86%" stop-color="#CA3676"/>
            <stop offset="100%" stop-color="#8103CB"/>
        </linearGradient>
        <linearGradient id="p" x1="76.75%" x2="18.276%" y1="0%" y2="100%">
            <stop offset="0%" stop-color="#EF504A"/>
            <stop offset="33.86%" stop-color="#CA3676"/>
            <stop offset="100%" stop-color="#8103CB"/>
        </linearGradient>
        <linearGradient id="q" x1="97.071%" x2="-5.825%" y1="41.67%" y2="58.33%">
            <stop offset="0%" stop-color="#EF504A"/>
            <stop offset="33.86%" stop-color="#CA3676"/>
            <stop offset="100%" stop-color="#8103CB"/>
        </linearGradient>
        <linearGradient id="r" x1="97.071%" x2="-5.825%" y1="10.572%" y2="89.428%">
            <stop offset="0%" stop-color="#EF504A"/>
            <stop offset="33.86%" stop-color="#CA3676"/>
            <stop offset="100%" stop-color="#8103CB"/>
        </linearGradient>
        <linearGradient id="s" x1="97.071%" x2="-5.825%" y1="11.064%" y2="88.936%">
            <stop offset="0%" stop-color="#EF504A"/>
            <stop offset="33.86%" stop-color="#CA3676"/>
            <stop offset="100%" stop-color="#8103CB"/>
        </linearGradient>
        <linearGradient id="t" x1="97.071%" x2="-5.825%" y1="44.026%" y2="55.974%">
            <stop offset="0%" stop-color="#EF504A"/>
            <stop offset="33.86%" stop-color="#CA3676"/>
            <stop offset="100%" stop-color="#8103CB"/>
        </linearGradient>
        <linearGradient id="u" x1="97.071%" x2="-5.825%" y1="44.245%" y2="55.755%">
            <stop offset="0%" stop-color="#EF504A"/>
            <stop offset="33.86%" stop-color="#CA3676"/>
            <stop offset="100%" stop-color="#8103CB"/>
        </linearGradient>
        <linearGradient id="v" x1="65.453%" x2="31.673%" y1="0%" y2="100%">
            <stop offset="0%" stop-color="#EF504A"/>
            <stop offset="33.86%" stop-color="#CA3676"/>
            <stop offset="100%" stop-color="#8103CB"/>
        </linearGradient>
        <linearGradient id="w" x1="97.071%" x2="-5.825%" y1="42.802%" y2="57.198%">
            <stop offset="0%" stop-color="#EF504A"/>
            <stop offset="33.86%" stop-color="#CA3676"/>
            <stop offset="100%" stop-color="#8103CB"/>
        </linearGradient>
        <linearGradient id="x" x1="97.071%" x2="-5.825%" y1="43.226%" y2="56.774%">
            <stop offset="0%" stop-color="#EF504A"/>
            <stop offset="33.86%" stop-color="#CA3676"/>
            <stop offset="100%" stop-color="#8103CB"/>
        </linearGradient>
        <linearGradient id="y" x1="74.381%" x2="21.085%" y1="0%" y2="100%">
            <stop offset="0%" stop-color="#EF504A"/>
            <stop offset="33.86%" stop-color="#CA3676"/>
            <stop offset="100%" stop-color="#8103CB"/>
        </linearGradient>
        <linearGradient id="z" x1="76.377%" x2="18.718%" y1="0%" y2="100%">
            <stop offset="0%" stop-color="#EF504A"/>
            <stop offset="33.86%" stop-color="#CA3676"/>
            <stop offset="100%" stop-color="#8103CB"/>
        </linearGradient>
        <linearGradient id="A" x1="76.729%" x2="18.301%" y1="0%" y2="100%">
            <stop offset="0%" stop-color="#EF504A"/>
            <stop offset="33.86%" stop-color="#CA3676"/>
            <stop offset="100%" stop-color="#8103CB"/>
        </linearGradient>
        <linearGradient id="B" x1="97.071%" x2="-5.825%" y1="41.67%" y2="58.33%">
            <stop offset="0%" stop-color="#EF504A"/>
            <stop offset="33.86%" stop-color="#CA3676"/>
            <stop offset="100%" stop-color="#8103CB"/>
        </linearGradient>
        <linearGradient id="C" x1="97.071%" x2="-5.825%" y1="10.58%" y2="89.42%">
            <stop offset="0%" stop-color="#EF504A"/>
            <stop offset="33.86%" stop-color="#CA3676"/>
            <stop offset="100%" stop-color="#8103CB"/>
        </linearGradient>
        <linearGradient id="D" x1="97.071%" x2="-5.825%" y1="11.069%" y2="88.931%">
            <stop offset="0%" stop-color="#EF504A"/>
            <stop offset="33.86%" stop-color="#CA3676"/>
            <stop offset="100%" stop-color="#8103CB"/>
        </linearGradient>
        <linearGradient id="E" x1="97.071%" x2="-5.825%" y1="44.032%" y2="55.968%">
            <stop offset="0%" stop-color="#EF504A"/>
            <stop offset="33.86%" stop-color="#CA3676"/>
            <stop offset="100%" stop-color="#8103CB"/>
        </linearGradient>
        <linearGradient id="F" x1="97.071%" x2="-5.825%" y1="44.242%" y2="55.758%">
            <stop offset="0%" stop-color="#EF504A"/>
            <stop offset="33.86%" stop-color="#CA3676"/>
            <stop offset="100%" stop-color="#8103CB"/>
        </linearGradient>
        <linearGradient id="G" x1="76.362%" x2="18.735%" y1="0%" y2="100%">
            <stop offset="0%" stop-color="#EF504A"/>
            <stop offset="33.86%" stop-color="#CA3676"/>
            <stop offset="100%" stop-color="#8103CB"/>
        </linearGradient>
        <linearGradient id="H" x1="76.73%" x2="18.299%" y1="0%" y2="100%">
            <stop offset="0%" stop-color="#EF504A"/>
            <stop offset="33.86%" stop-color="#CA3676"/>
            <stop offset="100%" stop-color="#8103CB"/>
        </linearGradient>
        <linearGradient id="I" x1="97.071%" x2="-5.825%" y1="41.672%" y2="58.328%">
            <stop offset="0%" stop-color="#EF504A"/>
            <stop offset="33.86%" stop-color="#CA3676"/>
            <stop offset="100%" stop-color="#8103CB"/>
        </linearGradient>
        <linearGradient id="J" x1="97.071%" x2="-5.825%" y1="10.588%" y2="89.412%">
            <stop offset="0%" stop-color="#EF504A"/>
            <stop offset="33.86%" stop-color="#CA3676"/>
            <stop offset="100%" stop-color="#8103CB"/>
        </linearGradient>
        <linearGradient id="K" x1="97.071%" x2="-5.825%" y1="11.055%" y2="88.945%">
            <stop offset="0%" stop-color="#EF504A"/>
            <stop offset="33.86%" stop-color="#CA3676"/>
            <stop offset="100%" stop-color="#8103CB"/>
        </linearGradient>
        <linearGradient id="L" x1="97.071%" x2="-5.825%" y1="44.029%" y2="55.971%">
            <stop offset="0%" stop-color="#EF504A"/>
            <stop offset="33.86%" stop-color="#CA3676"/>
            <stop offset="100%" stop-color="#8103CB"/>
        </linearGradient>
        <linearGradient id="M" x1="97.071%" x2="-5.825%" y1="44.246%" y2="55.754%">
            <stop offset="0%" stop-color="#EF504A"/>
            <stop offset="33.86%" stop-color="#CA3676"/>
            <stop offset="100%" stop-color="#8103CB"/>
        </linearGradient>
        <linearGradient id="N" x1="53.391%" x2="45.978%" y1="0%" y2="100%">
            <stop offset="0%" stop-color="#EF504A"/>
            <stop offset="33.86%" stop-color="#CA3676"/>
            <stop offset="100%" stop-color="#8103CB"/>
        </linearGradient>
        <linearGradient id="O" x1="52.049%" x2="47.57%" y1="0%" y2="100%">
            <stop offset="0%" stop-color="#EF504A"/>
            <stop offset="33.86%" stop-color="#CA3676"/>
            <stop offset="100%" stop-color="#8103CB"/>
        </linearGradient>
        <path id="P" d="M0 .586h13.65v44.303H0z"/>
        <path id="R" d="M.305.83H255.66v315.578H.305z"/>
        <linearGradient id="S" x1="80.82%" x2="13.448%" y1="0%" y2="100%">
            <stop offset="0%" stop-color="#EF504A"/>
            <stop offset="100%" stop-color="#8103CB"/>
        </linearGradient>
        <path id="U" d="M.518 3.727v162.78a7.966 7.966 0 0 0 3.975 6.892l241.171 139.267c2.437 1.41 5.488-.351 5.488-3.169V146.962a8.21 8.21 0 0 0-4.109-7.115L5.866.632A3.534 3.534 0 0 0 4.091.15C2.228.15.518 1.64.518 3.727"/>
        <linearGradient id="W" x1="80.353%" x2="14.003%" y1="0%" y2="100%">
            <stop offset="0%" stop-color="#EF504A"/>
            <stop offset="100%" stop-color="#8103CB"/>
        </linearGradient>
        <path id="X" d="M.936.996h.998v.996H.936z"/>
        <linearGradient id="Z" x1="50.099%" x2="49.883%" y1="0%" y2="100%">
            <stop offset="0%" stop-color="#EF504A"/>
            <stop offset="100%" stop-color="#8103CB"/>
        </linearGradient>
    </defs>
    <g fill="none" fill-rule="evenodd">
        <g fill="#E2D4E6">
            <path d="M182.473 44.12v2.336l9.814 5.658V49.78zM182.473 48.387v2.334l9.814 5.658v-2.334zM182.473 52.652v2.337l9.814 5.658V58.31zM256.542 101.96v-2.336L195.97 64.7v2.335zM182.473 56.919v2.335l9.814 5.66v-2.337zM182.473 61.184v2.337l9.814 5.658v-2.335zM256.542 106.226v-2.335L195.97 68.966v2.337zM182.473 73.984v2.334l9.814 5.66v-2.336zM182.473 78.25v2.336l9.814 5.658v-2.335zM182.473 95.316v2.334l9.814 5.658v-2.334zM182.473 99.58v2.336l9.814 5.66v-2.337zM234.184 129.394l-38.215-22.032v2.335l38.215 22.034zM236.197 130.557v2.335l20.345 11.73v-2.337zM215.17 114.166l-19.2-11.07v2.337l19.2 11.068zM217.183 115.327v2.337l39.359 22.692v-2.335zM251.362 122.235v2.337l5.18 2.985v-2.337zM223.187 101.724L195.97 86.031v2.336l27.218 15.692zM212.035 61.165L195.97 51.9v2.337l16.064 9.261zM238.366 76.348L214.05 62.325v2.335l24.316 14.023zM224.194 72.44l-17.123-9.872v2.335l17.123 9.874zM242.158 82.8l-15.951-9.198v2.335l15.951 9.197zM244.172 83.96v2.337l12.37 7.13v-2.336zM199.134 62.259v2.335l12.9 7.438v-2.335zM251.495 92.447l-37.445-21.59v2.337l37.445 21.59zM230.056 92.885l-24.472-14.11v2.336l24.472 14.11zM251.495 105.247l-19.424-11.2v2.335l19.424 11.2zM249.35 116.81L225.2 102.885v2.336l24.148 13.924zM236.197 113.492v2.335l13.152 7.585v-2.337zM200.708 93.03l-4.738-2.731v2.335l4.738 2.73zM209.58 98.145v2.335l24.604 14.187v-2.337zM207.564 96.982l-4.843-2.793v2.335l4.843 2.795zM229.632 113.973l-26.91-15.518v2.337l26.91 15.515z"/>
            <g>
                <path d="M182.473 113.576v2.335l9.814 5.658v-2.335zM182.473 117.841v2.335l9.814 5.66V123.5zM182.473 122.108v2.335l9.814 5.658v-2.335zM256.542 171.415v-2.334l-60.573-34.925v2.335zM182.473 126.374v2.337l9.814 5.658v-2.337zM182.473 130.64v2.336l9.814 5.658v-2.335zM256.542 175.68v-2.334L195.97 138.42v2.337zM182.473 143.438v2.337l9.814 5.658v-2.336zM182.473 147.706v2.334l9.814 5.66v-2.336zM182.473 164.77v2.335l9.814 5.658v-2.335zM182.473 169.038v2.334l9.814 5.658v-2.334zM234.184 198.851l-38.215-22.034v2.335l38.215 22.034zM236.197 200.011v2.335l20.345 11.73v-2.334zM215.17 183.621l-19.2-11.068v2.335l19.2 11.07zM217.183 184.781v2.337l39.359 22.694v-2.336zM251.362 191.692v2.335l5.18 2.985v-2.335zM223.187 171.179l-27.218-15.694v2.337l27.218 15.694zM212.035 130.62l-16.064-9.264v2.337l16.064 9.261zM238.366 145.803L214.05 131.78v2.335l24.316 14.021zM224.194 141.897l-17.123-9.874v2.337l17.123 9.872zM242.158 152.254l-15.951-9.197v2.337l15.951 9.195zM244.172 153.415v2.337l12.37 7.13v-2.335zM199.134 131.713v2.337l12.9 7.437v-2.335zM251.495 161.904l-37.445-21.592v2.337l37.445 21.59zM230.056 162.342l-24.472-14.111v2.336l24.472 14.11zM251.495 174.702l-19.424-11.2v2.334l19.424 11.202zM249.35 186.264L225.2 172.341v2.335L249.35 188.6zM236.197 182.947v2.335l13.152 7.584v-2.337zM200.708 162.484l-4.738-2.73v2.334l4.738 2.731zM209.58 167.6v2.334l24.604 14.187v-2.334zM207.564 166.439l-4.843-2.793v2.335l4.843 2.793zM229.632 183.428l-26.91-15.516v2.335l26.91 15.515z"/>
            </g>
        </g>
        <path fill="#BBCEE1" d="M108.786 295.483l41.996-24.983v6.078l-42 24.922z"/>
        <path fill="#FFF" d="M111.765 247.5l39.017 22.308-42.928 24.692-39.072-22.34z"/>
        <path fill="#B5B5B5" d="M68.782 272.5l39 22.903-.002 6.097-38.998-23.055z"/>
        <path fill="#E0E0E0" d="M65.782 224.061l42.62-24.561 8.38 51.5-42.626 24.5z"/>
        <path fill="#FFF" d="M103.015 195.5l4.767 2.795L64.606 223.5l-4.824-2.827z"/>
        <path fill="#B5B5B5" d="M61.782 221.5l4.713 2.747 8.287 51.253-4.761-2.755z"/>
        <path fill="#B3248F" d="M85.577 268.95l3.102-5.17 11.107 4.267s-6.33 13.558-11.107 10.974c-4.781-2.582-3.102-10.07-3.102-10.07"/>
        <path fill="url(#a)" d="M12.387 35.06l21.196.676 8.162 3.46s1.107 8.905 2.869 21.757c1.76 12.853-1.034 46.874-1.034 46.874-7.985 3.992-38.947 3.699-38.947 3.699C2.625 95.255.528 43.246.528 43.246l11.859-8.186z" transform="translate(79.782 160.5)"/>
        <path fill="url(#b)" d="M28.162 35.562l7.396 6.32c3.201 18.672 2.9 55.193 2.603 70.708-2.717.433-5.78.716-8.884.897-.75-38.808-13.602-75.708-14.54-78.352l13.425.427z" transform="translate(79.782 160.5)"/>
        <path fill="#8606C4" d="M110.198 204.715l6.75 2.759-2.641-11.239-3.525-2.406z"/>
        <path fill="#F4C5A2" d="M95.516 190.718l16.293 2.554-1.612 11.444-15.736-9.243z"/>
        <path fill="#FED4BD" d="M91.583 180.155c0 8.88 6.471 16.08 14.452 16.08 7.98 0 12.79-7.2 12.79-16.08 0-8.88-4.81-16.077-12.79-16.077-7.981 0-14.452 7.197-14.452 16.077"/>
        <path fill="#8606C4" d="M94.108 193.095l16.09 11.62-7.064 6.896-10.965-16.052zM88.936 171.906s3.877-10.858 16.269-10.844c0 0 14.976-.046 16.239 19.11.056.845-.872 1.413-1.606.992-1.72-.992-4.536-2.444-7.387-3.195l.709 1.315s.269.772-1.349.64l-7.741-1.834s-.619 3.964-5.745 6.522c0 0-.599 6.697-3.018 7.76 0 0-9.585-7.24-6.371-20.466"/>
        <path fill="#E5E5E5" d="M430.662 349.773l-98.254-57.01a13.444 13.444 0 0 0-13.464-.015l-154.785 89.499c-3.943 2.276-3.95 7.96-.012 10.247l96.072 55.741a15.987 15.987 0 0 0 16.006.02l154.427-89.293c3.536-2.04 3.542-7.142.01-9.19"/>
        <path fill="url(#c)" d="M350.87 198.463l-154.427 89.291a15.977 15.977 0 0 1-16.006-.02l-96.072-55.74c-1.96-1.137-2.938-3.115-2.946-5.097v7.487l.012.002c.038 1.948 1.007 3.883 2.934 5l96.072 55.74a15.977 15.977 0 0 0 16.006.02l154.427-89.29c1.781-1.03 2.66-2.832 2.653-4.63V193.887c-.008 1.78-.89 3.557-2.653 4.576" transform="translate(79.782 160.5)"/>
        <path fill="#B3248F" d="M313.532 323.001l44.195 25.026 28.166-16.287-44.191-25.018z"/>
        <path fill="#E2A5FF" d="M349.075 347.425v.984l-44.195-25.286v-.722z"/>
        <path fill="#FFFBF0" d="M304.88 322.402l44.195 25.023 28.165-16.285-44.191-25.02z"/>
        <path fill="#FAEEFF" d="M349.075 347.425v.984l28.166-16.286v-.983zM333.353 308.794l-17.015 9.81.744.42 17.017-9.81zM335.122 309.795l-17.017 9.809.746.422 17.017-9.809zM339.236 312.123l-23.432 13.518.746.422 23.432-13.517zM340.859 313.042l-23.434 13.518.746.422 23.432-13.517zM342.48 313.963l-23.433 13.518.746.423 23.432-13.518zM344.102 314.882l-23.432 13.52.744.42 23.434-13.517zM345.723 315.803l-23.432 13.518.746.422 23.432-13.517zM347.345 316.724l-23.432 13.518.746.422 23.432-13.52zM348.968 317.643l-23.432 13.518.744.422 23.432-13.517zM350.589 318.564l-23.432 13.518.746.42 23.432-13.515zM352.211 319.483L328.78 333l.746.423 23.432-13.517zM353.832 320.404l-23.43 13.517.744.423 23.432-13.517zM355.455 321.323l-23.432 13.52.746.42 23.432-13.517zM357.077 322.244l-23.432 13.517.746.423 23.432-13.517zM358.698 323.165l-23.432 13.517.746.423 23.432-13.52zM360.32 324.084L336.89 337.6l.746.423 23.432-13.518zM361.943 325.005l-23.431 13.517.746.423 23.43-13.518z"/>
        <path fill="#FFF" d="M364.26 368.209l-42.077-24.306a3.754 3.754 0 0 0-3.76-.004l-61.068 35.234a1.653 1.653 0 0 0-.004 2.86l41.466 23.953a4.465 4.465 0 0 0 4.47.006l60.969-35.177c.987-.57.989-1.994.004-2.566"/>
        <path fill="url(#d)" d="M284.473 210.275l-60.968 35.178a4.465 4.465 0 0 1-4.47-.006l-41.467-23.953a1.638 1.638 0 0 1-.822-1.424V223.03h.002c.012.546.282 1.085.82 1.4l41.466 23.95a4.456 4.456 0 0 0 4.47.006l60.97-35.175c.498-.29.743-.792.741-1.294v-2.919a1.47 1.47 0 0 1-.742 1.278" transform="translate(79.782 160.5)"/>
        <path fill="#FFF" d="M254.832 323.25l62.535-36.062c.377-.218.812-.208 1.239.05l1.595.889-1.264 1.714-.471.54v49.872c0 .732-.391 1.406-1.021 1.773L258.028 376.3l-.096.516-1.893 2.648-1.783-1.029-.016-.008-.02-.012v-.002a.928.928 0 0 1-.443-.795v-52.541c0-.754.403-1.452 1.055-1.826"/>
        <path fill="url(#e)" d="M176.823 163.773l62.678-36.147a.917.917 0 0 1 1.374.796v52.6c0 .732-.389 1.406-1.02 1.771l-62.677 36.16a.94.94 0 0 1-1.41-.813l-.002-52.541c0-.754.402-1.451 1.057-1.826" transform="translate(79.782 160.5)"/>
        <g transform="translate(257.782 292.5)">
            <mask id="g" fill="#fff">
                <use xlink:href="#f"/>
            </mask>
            <path fill="#FFF" d="M.272 36.464L.268 83.535 62.049 47.76V.587z" mask="url(#g)"/>
        </g>
        <g>
            <path fill="#E5E5E5" d="M323.577 350.09l-3.1-1.795-3.522 2.026 3.088 1.79zM319.183 352.613l-3.1-1.793-3.521 2.026 3.088 1.79zM314.789 355.138l-3.1-1.795-3.521 2.026 3.088 1.791zM310.395 357.662l-3.1-1.795-3.521 2.028 3.088 1.789zM306.001 360.185l-3.1-1.793-3.521 2.026 3.088 1.791zM301.607 362.71l-3.1-1.793-3.521 2.026 3.088 1.79zM297.213 365.234l-3.1-1.793-3.521 2.026 3.088 1.79zM292.82 367.759l-3.1-1.795-3.522 2.026 3.088 1.79zM288.426 370.282l-3.1-1.793-3.522 2.026 3.088 1.791zM284.032 372.807l-3.1-1.795-3.522 2.026 3.088 1.791zM279.638 375.33l-3.1-1.794-3.522 2.028 3.088 1.789zM275.244 377.854l-3.1-1.793-3.522 2.026 3.088 1.791zM267.75 378.586l-3.523 2.028 3.09 1.787 3.533-2.022zM324.054 354.43l3.534-2.024-3.099-1.793-3.523 2.028zM316.572 355.165l3.09 1.787 3.53-2.02-3.098-1.797zM312.179 357.689l3.09 1.787 3.529-2.02-3.098-1.795zM307.785 360.212l3.088 1.789 3.531-2.02-3.098-1.797zM303.39 362.737l3.089 1.79 3.531-2.023-3.098-1.795zM298.997 365.26l3.088 1.79 3.531-2.02-3.098-1.797zM294.603 367.786l3.088 1.787 3.531-2.02-3.098-1.795zM290.21 370.31l3.087 1.788 3.531-2.022-3.098-1.795zM285.815 372.835l3.088 1.787 3.531-2.02-3.098-1.795zM281.421 375.358l3.088 1.789 3.532-2.022-3.098-1.795zM277.027 377.881l3.088 1.79 3.532-2.02-3.098-1.798zM272.633 380.407l3.089 1.789 3.53-2.022-3.097-1.795zM271.76 380.903l-3.521 2.03 3.09 1.787 3.531-2.022zM328.066 356.75l3.533-2.025-3.1-1.793-3.523 2.028zM320.582 357.482l3.09 1.79 3.532-2.02-3.098-1.798zM322.81 359.774l-3.1-1.793-3.52 2.026 3.087 1.79zM311.795 362.531l3.09 1.79 3.53-2.023-3.097-1.795zM307.4 365.056l3.09 1.787 3.532-2.02-3.098-1.795zM303.007 367.58l3.09 1.789 3.531-2.022-3.098-1.795zM298.613 370.105l3.09 1.787 3.531-2.02-3.098-1.797zM294.219 372.628l3.09 1.79 3.531-2.023-3.098-1.795zM289.825 375.152l3.09 1.789 3.531-2.02-3.098-1.797zM285.431 377.677l3.09 1.787 3.532-2.02-3.098-1.795zM281.037 380.2l3.09 1.79 3.532-2.023-3.098-1.795zM283.265 382.492l-3.1-1.793-3.52 2.026 3.087 1.79zM275.772 383.222l-3.523 2.028 3.09 1.789 3.533-2.022zM332.076 359.066l3.533-2.022-3.1-1.793-3.523 2.028zM331.214 359.57l-3.1-1.795-3.52 2.026 3.087 1.791zM326.82 362.093l-3.1-1.795-3.52 2.027 3.087 1.79zM322.427 364.617l-3.1-1.793-3.522 2.026 3.088 1.79zM318.033 367.142l-3.1-1.795-3.522 2.026 3.088 1.791zM313.639 369.665l-3.1-1.793-3.522 2.027 3.088 1.789zM309.245 372.19l-3.1-1.794-3.522 2.026 3.089 1.79zM304.851 374.714l-3.1-1.793-3.521 2.026 3.088 1.789zM300.457 377.24l-3.1-1.796-3.521 2.026 3.088 1.791zM296.063 379.763l-3.1-1.795-3.521 2.028 3.088 1.789zM291.67 382.286l-3.1-1.793-3.522 2.026 3.088 1.791zM287.275 384.811l-3.1-1.795-3.521 2.028 3.088 1.79zM279.782 385.54l-3.523 2.029 3.09 1.787 3.533-2.022zM336.086 361.385l3.533-2.022-3.1-1.795-3.523 2.028zM335.224 361.887l-3.1-1.793-3.519 2.026 3.086 1.79zM330.83 364.412l-3.1-1.795-3.519 2.026 3.086 1.791zM326.436 366.936l-3.1-1.795-3.519 2.028 3.088 1.789zM322.043 369.459l-3.1-1.793-3.52 2.026 3.086 1.791zM317.649 371.984l-3.1-1.795-3.52 2.028 3.086 1.79zM313.255 374.508l-3.1-1.793-3.52 2.026 3.086 1.79zM308.86 377.033l-3.1-1.795-3.518 2.028 3.086 1.79zM304.467 379.556l-3.1-1.793-3.52 2.026 3.087 1.79zM300.073 382.082l-3.1-1.795-3.52 2.026 3.089 1.79zM295.679 384.605l-3.1-1.793-3.52 2.026 3.089 1.79zM291.285 387.13l-3.1-1.795-3.521 2.027 3.09 1.79zM283.792 387.86l-3.521 2.028 3.09 1.787 3.533-2.022zM340.53 359.887l-3.523 2.028 3.09 1.79 3.534-2.023zM332.614 364.438l3.09 1.789 3.531-2.02-3.098-1.797zM328.22 366.963l3.09 1.789 3.531-2.022-3.098-1.795zM323.826 369.486l3.09 1.79 3.53-2.02-3.097-1.798zM319.432 372.012l3.09 1.787 3.532-2.02-3.098-1.795zM315.038 374.535l3.09 1.789 3.532-2.02-3.098-1.797zM314.167 375.033l-4.393 2.524-.867.498-3.527 2.026v-.002l-1.793 1.032-2.6 1.496-.003-.002-2.772 1.596-5.142 2.957 3.09 1.787 5.375-3.084 2.55-1.463-.005-.002 2.675-1.534 1.723-.986-.004-.002 3.477-1.994.923-.528-.002-.002 4.395-2.524zM288.675 389.68l3.09 1.79 3.531-2.022-3.098-1.795zM284.281 392.204l3.09 1.79 3.531-2.02-3.098-1.798zM339.14 380.909l-11.052-6.366a.95.95 0 0 0-.946 0l-15.331 8.832a.414.414 0 0 0-.002.717l10.901 6.276c.345.203.775.203 1.122.002l15.307-8.82a.37.37 0 0 0 .002-.641"/>
            <path fill="#A7BCCE" d="M183.211 453.344l-.024-4.126-.01 3.82.024 4.127z"/>
            <path fill="url(#h)" d="M220.428 458.81l-5.032 2.92-.01 3.819 5.032-2.919z" transform="translate(.782 -.5)"/>
            <path fill="url(#i)" d="M161.875 461.73l-5.065-2.919-.011 3.82 5.066 2.918z" transform="translate(.782 -.5)"/>
            <path fill="url(#j)" d="M172.622 474.957c.026-.135.068-.275.104-.412.041-.16.081-.321.137-.482.048-.132.11-.261.166-.393.074-.167.148-.335.235-.502.066-.121.146-.241.22-.359.116-.189.24-.378.377-.561a9.401 9.401 0 0 1 .948-1.062c.09-.088.172-.175.266-.261.156-.14.33-.275.5-.409.147-.121.288-.243.448-.356.184-.134.385-.261.583-.389.204-.131.395-.267.615-.394.483-.279.998-.53 1.523-.77.152-.067.307-.13.46-.194.412-.174.837-.333 1.273-.48.153-.054.305-.11.463-.16.273-.086.55-.161.83-.237.212-.058.421-.12.637-.171.293-.07.59-.13.89-.19.204-.041.407-.087.613-.125.605-.104 1.22-.19 1.839-.255.19-.018.38-.03.57-.046a25.202 25.202 0 0 1 2.681-.097c.246.004.493.011.739.021.275.01.549.024.82.042a31.43 31.43 0 0 1 1.555.152c.242.032.481.067.72.103a26.69 26.69 0 0 1 1.53.285c.337.074.67.158 1.002.245.184.048.371.096.553.148a21.34 21.34 0 0 1 1.735.585c.277.108.547.225.814.345.142.062.286.118.421.183.407.192.805.399 1.186.616 3.184 1.837 4.773 4.243 4.767 6.646l.01-3.82c.006-2.402-1.581-4.81-4.767-6.645a17.033 17.033 0 0 0-1.186-.616c-.135-.066-.281-.121-.419-.183-.241-.108-.479-.22-.727-.315-.03-.012-.06-.02-.087-.03-.561-.219-1.142-.412-1.735-.585-.05-.014-.092-.034-.142-.046-.134-.04-.273-.066-.411-.102a23.882 23.882 0 0 0-1.006-.245c-.088-.02-.176-.048-.266-.066-.133-.028-.271-.045-.403-.071a30.725 30.725 0 0 0-.856-.148c-.116-.018-.228-.042-.343-.06-.126-.017-.254-.025-.378-.043-.27-.032-.539-.064-.81-.088-.128-.012-.256-.034-.383-.044-.122-.01-.242-.01-.362-.02a37.883 37.883 0 0 0-.822-.044c-.136-.004-.274-.018-.41-.022-.11-.002-.215.004-.325.002-.297-.004-.595 0-.892.004-.146.004-.291-.002-.437.002-.086.004-.172.014-.258.018-.367.016-.73.042-1.096.074-.145.012-.293.014-.439.028-.046.004-.088.014-.134.018-.618.066-1.233.15-1.838.255-.028.006-.06.008-.09.014-.173.032-.343.074-.517.11-.3.061-.6.119-.896.19-.214.054-.423.114-.633.17-.28.078-.559.153-.834.24-.058.017-.12.031-.178.049-.1.034-.19.076-.287.11-.432.147-.857.306-1.27.48-.154.063-.31.127-.461.195-.525.239-1.04.49-1.523.769-.068.04-.134.078-.198.117-.147.09-.275.186-.415.275-.198.13-.4.255-.583.39-.16.114-.301.236-.453.357-.168.134-.341.267-.497.409-.03.026-.068.054-.098.081-.064.058-.108.122-.168.18a9.32 9.32 0 0 0-.684.735c-.046.056-.108.105-.15.161-.044.054-.072.11-.112.166a7.113 7.113 0 0 0-.379.561c-.05.08-.114.158-.162.237-.02.04-.034.082-.056.122-.09.167-.161.335-.235.502-.044.098-.1.193-.136.293-.014.034-.018.066-.03.102-.056.159-.096.318-.138.48-.03.11-.073.215-.093.326-.008.03-.006.058-.012.086-.032.17-.044.339-.056.51-.01.11-.036.22-.04.329l-.002.141-.012 3.82c.002-.158.028-.315.042-.473.016-.17.026-.339.058-.508" transform="translate(.782 -.5)"/>
            <path fill="url(#k)" d="M220.397 475.722c-.076.23-.166.458-.255.689-.062.155-.128.31-.198.466-.066.146-.132.293-.204.436a8.36 8.36 0 0 1-.237.46 10.832 10.832 0 0 1-.563.955c-.084.13-.168.26-.256.388-.125.182-.259.361-.395.54-.09.118-.175.237-.267.355-.266.33-.545.657-.843.982l-.127.13c-.266.28-.543.555-.835.83-.227.214-.457.429-.702.638l-.01 3.819c.2-.173.395-.347.586-.52.04-.04.076-.082.116-.118.292-.274.57-.547.83-.826a17.166 17.166 0 0 0 .972-1.116c.02-.026.049-.054.07-.082.072-.091.132-.183.2-.273.136-.179.268-.358.393-.54.09-.127.172-.258.256-.388.114-.175.224-.353.33-.532.031-.058.073-.113.105-.173.048-.084.084-.168.13-.25a12.46 12.46 0 0 0 .441-.898c.068-.153.134-.309.196-.464.028-.068.06-.137.088-.207.057-.16.117-.32.17-.482h7.137l.012-3.82h-7.14z" transform="translate(.782 -.5)"/>
            <path fill="url(#l)" d="M161.982 486.41l.012-3.819c-2.485-2.111-4.14-4.45-4.96-6.867h-7.143l-.01 3.82h7.14c.82 2.416 2.478 4.755 4.961 6.867" transform="translate(.782 -.5)"/>
            <path fill="url(#m)" d="M206.827 487.63c-.858.337-1.738.64-2.635.923-.495.155-1.006.287-1.51.428-.472.13-.939.27-1.418.387-.517.125-1.044.223-1.567.332-.485.102-.966.213-1.46.3-1.079.19-2.173.352-3.277.477l-.01 3.82a53.33 53.33 0 0 0 3.276-.479c.054-.008.11-.012.162-.022.443-.08.872-.187 1.311-.279.517-.107 1.04-.205 1.551-.33.485-.118.954-.26 1.431-.39.501-.14 1.008-.27 1.5-.423.057-.02.117-.034.177-.052a39.717 39.717 0 0 0 2.457-.873l5.065 2.92 8.689-5.037.01-3.821-8.687 5.038-5.065-2.919z" transform="translate(.782 -.5)"/>
            <path fill="url(#n)" d="M182.636 490.477c-.775-.088-1.537-.208-2.3-.327a54.868 54.868 0 0 1-1.635-.283 45.466 45.466 0 0 1-3.326-.757c-.496-.131-.995-.257-1.485-.406a42.398 42.398 0 0 1-3.148-1.072c-.001 0-.003 0-.005-.002l-5.039 2.924-8.745-5.038-.01 3.82 8.745 5.037 5.039-2.924c.814.319 1.654.604 2.505.874.213.07.43.136.649.202.22.067.433.14.652.203.274.076.56.13.83.201.635.167 1.27.327 1.915.468.212.046.411.11.623.152.26.053.529.087.788.135.543.106 1.088.2 1.64.285.249.038.492.094.742.13.515.071 1.03.139 1.549.195.002.002.004.002.006.002l.024 4.126h12.322l.012-3.82H182.66l-.024-4.125z" transform="translate(.782 -.5)"/>
            <path fill="#FFF" d="M178.087 478.27c6.333 3.65 16.556 3.644 22.848-.004 6.29-3.647 6.264-9.56-.068-13.208-6.332-3.648-16.564-3.648-22.854 0-6.29 3.65-6.258 9.565.074 13.212zm34.587 11.778l-5.064-2.918c-3.645 1.43-7.69 2.38-11.867 2.847l.022 4.126h-12.323l-.024-4.126c-4.186-.467-8.238-1.417-11.899-2.847l-5.038 2.924-8.745-5.038 5.04-2.925c-2.485-2.111-4.14-4.45-4.96-6.867h-7.14l-.04-7.124h7.138c.794-2.418 2.43-4.755 4.884-6.871l-5.066-2.919 8.687-5.038 5.067 2.919c3.65-1.425 7.687-2.38 11.865-2.847l-.022-4.126h12.322l.024 4.126c4.186.468 8.23 1.422 11.9 2.847l5.034-2.919 8.743 5.036-5.033 2.921c2.476 2.116 4.14 4.453 4.96 6.871h7.141l.04 7.122h-7.14c-.795 2.419-2.423 4.758-4.883 6.87l5.065 2.918-8.688 5.038z"/>
            <path fill="#A7BCCE" d="M118.68 445.8l-.02-3.373-.009 3.12.018 3.372z"/>
            <path fill="url(#o)" d="M148.943 450.356l-4.113 2.383-.007 3.121 4.11-2.386z" transform="translate(.782 -.5)"/>
            <path fill="url(#p)" d="M101.105 452.74l-4.138-2.383-.01 3.12 4.138 2.382z" transform="translate(.782 -.5)"/>
            <path fill="url(#q)" d="M109.883 463.549c.022-.114.056-.225.086-.339.034-.13.066-.263.113-.392.038-.11.09-.216.136-.321.058-.14.12-.275.192-.41.052-.098.118-.196.177-.293a5.458 5.458 0 0 1 .523-.728c.17-.203.358-.402.561-.6.074-.071.14-.143.218-.212.126-.116.267-.226.405-.335.124-.098.238-.197.37-.293.15-.106.313-.21.475-.315.165-.11.323-.217.5-.32.396-.23.815-.437 1.248-.63.122-.056.25-.108.373-.161.338-.14.685-.271 1.04-.39.126-.045.252-.093.38-.132.223-.07.45-.132.678-.194.172-.045.344-.097.52-.14.239-.057.483-.105.726-.153.168-.035.333-.073.503-.103.493-.088.994-.155 1.501-.21.154-.013.31-.023.465-.037.3-.026.597-.048.897-.058a21.964 21.964 0 0 1 1.9-.004 19.04 19.04 0 0 1 1.277.088c.222.02.442.044.661.073a19.023 19.023 0 0 1 1.29.204c.183.036.367.07.547.111.277.06.549.128.82.2.152.04.304.077.453.121.483.141.958.299 1.416.476.227.09.449.187.666.285.116.05.232.096.344.147.333.158.656.325.968.506 2.6 1.499 3.898 3.465 3.894 5.43l.008-3.123c.006-1.962-1.291-3.93-3.894-5.426-.31-.182-.635-.349-.968-.506-.112-.054-.228-.098-.344-.15-.195-.087-.389-.177-.593-.257l-.071-.024c-.458-.179-.933-.336-1.418-.478-.038-.012-.074-.028-.114-.04-.11-.032-.225-.051-.337-.081a20.55 20.55 0 0 0-.82-.202c-.074-.015-.146-.037-.22-.053-.108-.022-.22-.036-.33-.056a15.97 15.97 0 0 0-.698-.122c-.096-.016-.186-.036-.28-.047-.103-.016-.207-.022-.31-.036a22.31 22.31 0 0 0-.662-.074c-.103-.01-.207-.026-.313-.034-.098-.008-.196-.01-.293-.016a25.698 25.698 0 0 0-.671-.038c-.114-.004-.226-.014-.335-.018-.09-.002-.178.002-.268.002a17.65 17.65 0 0 0-.727.004c-.12.002-.24-.004-.359 0-.07.004-.14.012-.21.016-.299.012-.596.036-.896.058-.117.01-.24.014-.357.024-.038.004-.072.012-.11.016-.507.054-1.008.121-1.5.21l-.075.009c-.142.026-.281.062-.421.09-.246.051-.493.1-.735.157-.173.042-.343.092-.515.14-.23.061-.459.121-.682.193-.048.014-.098.026-.146.042-.08.026-.154.061-.234.087a16.43 16.43 0 0 0-1.413.554c-.431.193-.85.399-1.245.63-.056.03-.108.061-.162.093-.122.072-.226.152-.34.227-.161.104-.325.208-.477.317-.13.094-.247.191-.367.289-.138.112-.281.223-.407.335-.026.024-.058.046-.082.067-.052.048-.086.098-.138.148-.201.195-.389.396-.559.6-.036.045-.085.085-.121.131-.034.044-.058.092-.09.136a6.017 6.017 0 0 0-.312.46c-.04.063-.091.125-.13.191-.017.034-.03.068-.045.1-.076.137-.134.273-.194.41-.036.08-.082.157-.112.239-.012.028-.016.056-.024.082-.046.131-.08.263-.113.394-.024.09-.058.177-.076.265-.004.024-.004.05-.008.074-.026.137-.036.275-.048.414-.008.092-.028.18-.03.27-.002.039-.002.077-.002.115l-.01 3.12c0-.128.022-.257.034-.385.01-.137.02-.279.046-.414" transform="translate(.782 -.5)"/>
            <path fill="url(#r)" d="M148.915 464.173c-.06.187-.134.373-.207.562a12.222 12.222 0 0 1-.33.737c-.06.128-.125.251-.191.379-.062.113-.128.229-.194.344a17.023 17.023 0 0 1-.477.751c-.102.148-.214.295-.321.44-.074.096-.146.194-.222.292-.216.27-.441.535-.687.8l-.104.106a16.82 16.82 0 0 1-1.255 1.2l-.01 3.121c.166-.141.325-.283.479-.426.036-.032.064-.064.096-.096.237-.223.465-.448.679-.677l.107-.106c.244-.265.471-.534.685-.803.02-.024.042-.043.06-.067.058-.074.106-.15.164-.224.107-.147.217-.292.319-.44.072-.105.14-.211.208-.317.093-.145.185-.29.269-.434.028-.048.06-.095.088-.141.04-.068.068-.138.106-.206a9.507 9.507 0 0 0 .361-.735c.056-.123.108-.25.16-.376.022-.058.05-.114.072-.17.047-.131.095-.262.137-.394l5.833-.002.01-3.118h-5.835z" transform="translate(.782 -.5)"/>
            <path fill="url(#s)" d="M101.19 472.905l.01-3.12c-2.03-1.725-3.381-3.638-4.052-5.612h-5.833l-.01 3.122h5.833c.671 1.974 2.022 3.886 4.052 5.61" transform="translate(.782 -.5)"/>
            <path fill="url(#t)" d="M137.83 473.9c-.702.276-1.422.525-2.155.756-.403.125-.82.233-1.231.349-.388.105-.769.22-1.16.316-.421.102-.853.184-1.28.273-.397.082-.788.174-1.191.243-.883.156-1.777.287-2.68.389l-.007 3.12c.902-.1 1.794-.234 2.677-.389.044-.008.087-.012.131-.02.364-.064.713-.151 1.07-.225.425-.09.853-.17 1.27-.27.395-.097.778-.212 1.168-.322.409-.111.824-.217 1.225-.344.046-.016.098-.024.144-.04a34.568 34.568 0 0 0 2.008-.715l4.138 2.386 7.099-4.118.01-3.12-7.099 4.117-4.138-2.385z" transform="translate(.782 -.5)"/>
            <path fill="url(#u)" d="M118.064 476.226c-.63-.07-1.255-.168-1.878-.267a41.35 41.35 0 0 1-2.49-.466 36.486 36.486 0 0 1-1.562-.383c-.406-.105-.815-.211-1.212-.33a23.61 23.61 0 0 1-.533-.166c-.69-.22-1.377-.452-2.04-.711h-.004l-4.118 2.386-7.144-4.115-.01 3.12 7.144 4.117 4.118-2.39a34.842 34.842 0 0 0 2.577.878c.18.054.353.114.535.166.222.063.453.107.677.167a39.82 39.82 0 0 0 1.565.38c.171.038.335.088.509.126.211.042.429.07.644.11.442.083.887.16 1.338.233.202.031.401.077.607.105.419.06.84.114 1.265.16h.004l.02 3.372h10.067l.01-3.12h-10.069l-.02-3.372z" transform="translate(.782 -.5)"/>
            <path fill="#FFF" d="M114.492 466.163c5.174 2.98 13.526 2.977 18.666-.003 5.14-2.98 5.118-7.81-.056-10.79-5.172-2.98-13.532-2.98-18.67 0-5.14 2.98-5.112 7.813.06 10.793zm28.258 9.623l-4.138-2.385c-2.977 1.17-6.28 1.943-9.696 2.325l.018 3.373h-10.068l-.018-3.373c-3.418-.382-6.73-1.155-9.722-2.325l-4.118 2.389-7.142-4.116 4.116-2.39c-2.028-1.724-3.382-3.636-4.052-5.61h-5.833l-.032-5.822h5.833c.647-1.974 1.986-3.883 3.99-5.612l-4.14-2.385 7.098-4.116 4.138 2.385c2.983-1.165 6.28-1.942 9.696-2.325l-.02-3.373h10.069l.02 3.373c3.417.383 6.723 1.16 9.72 2.323l4.111-2.383 7.144 4.116-4.11 2.385c2.022 1.73 3.382 3.638 4.052 5.612h5.833l.034 5.821h-5.835c-.648 1.975-1.978 3.887-3.988 5.61l4.138 2.387-7.098 4.116z"/>
            <path fill="#4C0620" d="M343.782 486.208c6.202.06 4.166-4.648 4.166-4.648 9.204-2.799 13.722-1.24 13.732-1.239 2.301 8.109 1.375 13.007 1.459 14.96.044.962-.675 1.554-1.581 1.89-4.949 1.84-9.456 3.062-18.674 2.166-6.787-.662-13.971-6.933-12.339-13.374 1.018-4.004 6.947.185 13.237.245"/>
            <path fill="#7B08B3" d="M346.437 428.01c1.823-2.357 4.937-4.373 10.103-3.01L412 435.68l-2.084 14.214s-8.495 11.179-23.365 6.94c-14.87-4.24-24.523-11.18-24.523-11.18l1.87 39.23s-8.699 2.69-16.44-1.975c-1.3-.785-2.513-38.605-2.902-48.319-.11-2.678.241-4.46 1.88-6.58"/>
            <path fill="#4C0620" d="M317.161 497.556c6.442.062 4.328-4.825 4.328-4.825 9.556-2.908 14.247-1.289 14.257-1.287 2.391 8.42 1.427 13.506 1.517 15.532.044 1-.703 1.613-1.643 1.964-5.14 1.909-9.82 3.18-19.39 2.247-7.047-.685-14.507-7.198-12.81-13.886 1.056-4.157 7.212.194 13.741.255"/>
            <path fill="#DBDBDB" d="M380.189 481.953l47.602-27.464v6.681l-47.606 27.397z"/>
            <path fill="#FFF" d="M384.528 429.675l43.263 24.813-47.603 27.465-43.322-24.85z"/>
            <path fill="#B5B5B5" d="M336.864 457.103l43.325 24.851-.004 6.614-43.321-25.016z"/>
            <path fill="#8606C4" d="M319.92 437.128c1.892-2.448 5.124-4.54 10.488-3.123l57.589 11.084-2.166 14.763s-8.821 11.604-24.26 7.201c-15.438-4.398-25.462-11.604-25.462-11.604l1.942 40.733s-9.033 2.793-17.073-2.052c-1.348-.813-2.607-40.086-3.013-50.17-.111-2.78.25-4.63 1.955-6.832"/>
            <path fill="#FED4BD" d="M365.494 349.883c.954 9.653 8.089 16.85 15.932 16.078 7.847-.771 13.434-9.224 12.478-18.875-.952-9.652-8.085-16.85-15.932-16.079-7.847.773-13.434 9.224-12.478 18.876"/>
            <path fill="#F4C5A2" d="M353.77 372.385s-3.409.817-4.593.939c-1.181.117-5.66 1.047-7.493.492-1.833-.558 1.609-1.77 2.457-2.397.847-.628.809-2.207-1.042-2.763-1.846-.558-6.028-.297-8.24-.61-2.21-.315 2.2-6.997 5.803-7.616 3.6-.62 6.687-.241 9.873 1.329 3.072 1.514 4.75 4.064 6.18 4.56l-2.944 6.066z"/>
            <path fill="#E64A54" d="M353.38 363.268l23.326 5.838 1.17 14.788-27.531-9.417c-.575-5.238 3.036-11.209 3.036-11.209"/>
            <path fill="#0F4463" d="M410.907 369.527s6.45 8.11 0 19.283c0 0-4.513 6.228-16.895.13l16.895-19.413z"/>
            <path fill="url(#v)" d="M391.005 360.549s-10.05-.686-17.942 4.819c0 0-.582 1.655-2.161 2.703-1.577 1.052-9.4 4.182-9.4 4.182s3.447 45.823-.511 68.134c0 0 16.997 13.248 43.544 0 0 0 3.883-56.26 5.59-70.36 0 0-4.426-5.46-19.12-9.478" transform="translate(.782 -.5)"/>
            <path fill="#E0E0E0" d="M396.215 435.693l47.602-27.465-16.027 46.329-47.605 27.397z"/>
            <path fill="#FFF" d="M438.561 405.183l5.256 3.044-47.603 27.465-5.315-3.08z"/>
            <path fill="#B5B5B5" d="M390.897 432.611l5.317 3.082-16.029 46.261-5.376-3.092z"/>
            <path fill="#F4C5A2" d="M322.415 392.677s-2.6-2.614-3.593-3.359c-.994-.745-4.492-4.032-6.452-4.468-1.962-.435 1.387 2.956 1.793 4.016.405 1.06-2.004-.847-3.84-1.534-1.895-.707-3.993-.584-6.239.215-4.505 1.6-4.286 10.595-.603 9.53 6.059-1.748 8.785 3.053 12.402 4.063 2.502.7 3.56.655 5.125.936l1.407-9.399z"/>
            <path fill="#E64A54" d="M362.284 371.753l-19.687 26.032-20.458-6.026s-4.392 5.522-2.969 11.375l27.308 10.609 22.19-24.365s7.431-15.456-6.384-17.625"/>
            <path fill="#8606C4" d="M373.725 323.06s-1.516 3.626 5.73 4.608c7.227.982 16.2 4.58 18.553 12.205 1.507 4.883-.24 10.114-2.695 14.371-.836 1.459-1.775 2.905-2.876 4.184 0 0-4.843 1.303-10.682-1.833 0 0-3.589-2.39-5.745-6.992 0 0-4.314 1.793-5.659-1.793-.992-2.636-4.108-3.292-5.805-4.73 0 0-9.783-15.956 9.179-20.02"/>
            <path fill="#900EBA" d="M270.166 404.741h-3.697v3.979h3.697a2.493 2.493 0 0 1 2.49 2.486v6.467a2.492 2.492 0 0 1-2.49 2.486h-5.42v3.978h5.42c3.57 0 6.477-2.9 6.477-6.464v-6.467c0-3.564-2.906-6.465-6.477-6.465"/>
            <path fill="#8808C2" d="M268.776 402.543v22.402c0 3.473-5.188 6.288-11.586 6.288-6.4 0-11.586-2.815-11.586-6.288v-22.402h23.172z"/>
            <path fill="#FFF" d="M245.603 402.543c0 3.47 5.188 6.285 11.588 6.285 6.398 0 11.584-2.815 11.584-6.285 0-3.473-5.186-6.288-11.584-6.288-6.4 0-11.588 2.815-11.588 6.288"/>
            <path fill="#A8A8A8" d="M247.912 402.463c0 2.716 4.154 4.919 9.278 4.919 5.126 0 9.28-2.203 9.28-4.919 0-2.713-4.154-4.917-9.28-4.917-5.124 0-9.278 2.204-9.278 4.917"/>
            <path fill="#8606C4" d="M257.19 400.765c-4.06 0-7.503 1.382-8.76 3.307 1.257 1.926 4.7 3.309 8.76 3.309 4.059 0 7.502-1.383 8.762-3.31-1.26-1.924-4.703-3.306-8.761-3.306"/>
            <path fill="#8808C2" d="M261.569 408.362v22.402c2.276-.504 4.18-1.39 5.46-2.512V405.85c-1.28 1.121-3.184 2.006-5.46 2.512"/>
            <path fill="#E5E5E5" d="M301.586 275.368l-98.326-56.966a13.47 13.47 0 0 0-13.474-.016L34.89 307.817c-3.947 2.275-3.953 7.957-.012 10.24l96.141 55.698a16.014 16.014 0 0 0 16.017.02l154.538-89.225c3.54-2.038 3.547-7.136.012-9.182"/>
            <path fill="url(#w)" d="M300.792 285.05l-154.538 89.224a16.005 16.005 0 0 1-16.017-.02l-96.141-55.698c-1.96-1.136-2.94-3.112-2.949-5.092V320.944l.012.002c.038 1.947 1.008 3.881 2.937 4.997l96.141 55.698a16.01 16.01 0 0 0 16.017.02l154.538-89.223c1.784-1.028 2.664-2.83 2.656-4.626v-7.334c-.007 1.78-.89 3.556-2.656 4.573" transform="translate(.782 -.5)"/>
            <path fill="#FFF" d="M207.308 276.95L165.2 252.661a3.762 3.762 0 0 0-3.763-.006l-61.113 35.209a1.648 1.648 0 0 0-.004 2.857l41.496 23.936a4.48 4.48 0 0 0 4.474.006l61.015-35.15a1.48 1.48 0 0 0 .002-2.565"/>
            <path fill="url(#x)" d="M206.523 280.014l-61.014 35.15a4.48 4.48 0 0 1-4.474-.006L99.54 291.222a1.636 1.636 0 0 1-.823-1.423v2.957l.002.002a1.64 1.64 0 0 0 .82 1.396l41.497 23.935a4.47 4.47 0 0 0 4.474.004l61.014-35.149a1.47 1.47 0 0 0 .741-1.293v-2.914c-.002.496-.25.992-.74 1.277" transform="translate(.782 -.5)"/>
            <path fill="#BBCEE1" d="M179.8 267.555l-3.1-1.793-3.521 2.026 3.088 1.789zM175.406 270.08l-3.1-1.795-3.521 2.026 3.088 1.79zM171.012 272.603l-3.1-1.793-3.521 2.026 3.088 1.79zM166.618 275.127l-3.1-1.793-3.521 2.026 3.088 1.79zM162.224 277.652l-3.1-1.795-3.52 2.028 3.087 1.789zM157.83 280.175l-3.1-1.793-3.52 2.026 3.087 1.79zM153.437 282.7l-3.1-1.795-3.522 2.028 3.088 1.79zM149.043 285.224l-3.1-1.793-3.522 2.026 3.089 1.79z"/>
            <path fill="#E5E5E5" d="M144.649 287.749l-3.1-1.795-3.521 2.026 3.088 1.791zM140.255 290.272l-3.1-1.793-3.521 2.026 3.088 1.79zM135.86 292.796l-3.1-1.793-3.52 2.026 3.088 1.79zM131.467 295.321l-3.1-1.795-3.521 2.028 3.088 1.79zM123.974 296.05l-3.524 2.029 3.09 1.789 3.534-2.024zM180.278 271.895l3.533-2.022-3.098-1.795-3.525 2.03zM172.794 272.63l3.092 1.787 3.53-2.02-3.099-1.795zM168.402 275.154l3.09 1.789 3.53-2.02-3.099-1.797zM164.006 277.679l3.09 1.787 3.532-2.02-3.099-1.795zM159.612 280.202l3.092 1.79 3.53-2.02-3.098-1.798zM155.22 282.728l3.09 1.787 3.53-2.02-3.096-1.797zM150.826 285.251l3.088 1.789 3.532-2.022-3.098-1.795zM146.43 287.776l3.09 1.787 3.534-2.02-3.1-1.795zM142.039 290.3l3.09 1.789 3.529-2.022-3.098-1.795zM137.645 292.823l3.09 1.789 3.529-2.02-3.098-1.797zM133.25 295.348l3.09 1.79 3.53-2.023-3.098-1.795zM128.857 297.873l3.09 1.787 3.531-2.02-3.098-1.797zM127.984 298.37l-3.522 2.028 3.09 1.787 3.532-2.022zM184.29 274.214l3.533-2.022-3.1-1.795-3.524 2.028zM176.806 274.95l3.09 1.786 3.531-2.02-3.098-1.797zM179.034 277.24l-3.1-1.794-3.521 2.026 3.088 1.791zM168.018 279.998l3.09 1.787 3.531-2.02-3.098-1.797zM163.624 282.521l3.09 1.787 3.531-2.02-3.098-1.795zM159.23 285.045l3.09 1.789 3.531-2.02-3.098-1.797zM154.836 287.57l3.09 1.79 3.532-2.023-3.099-1.795zM150.442 290.093l3.09 1.79 3.532-2.02-3.098-1.798zM146.049 292.619l3.09 1.787 3.529-2.02-3.096-1.795zM141.655 295.142l3.09 1.789 3.53-2.022-3.097-1.795zM137.26 297.667l3.09 1.787 3.532-2.02-3.098-1.797zM139.489 299.957l-3.1-1.793-3.522 2.026 3.089 1.791zM131.995 300.687l-3.523 2.03 3.09 1.787 3.533-2.022z"/>
            <path fill="#BBCEE1" d="M188.3 276.533l3.533-2.024-3.1-1.793-3.524 2.028zM187.438 277.035l-3.1-1.795-3.522 2.026 3.088 1.791zM183.044 279.558l-3.1-1.793-3.521 2.027 3.088 1.789zM178.65 282.084l-3.1-1.795-3.521 2.026 3.088 1.79zM174.256 284.607l-3.1-1.793-3.521 2.026 3.088 1.79zM169.862 287.13l-3.1-1.793-3.521 2.027 3.088 1.79zM165.468 289.656l-3.1-1.793-3.521 2.026 3.088 1.789zM161.074 292.18l-3.1-1.794-3.521 2.026 3.088 1.791zM156.68 294.704l-3.1-1.795-3.521 2.028 3.088 1.79zM152.287 297.228l-3.1-1.793-3.522 2.026 3.088 1.789zM147.893 299.753l-3.1-1.795-3.522 2.028 3.088 1.789z"/>
            <path fill="#E5E5E5" d="M143.499 302.276l-3.1-1.793-3.522 2.026 3.088 1.79zM136.005 303.006l-3.523 2.028 3.09 1.789 3.533-2.022z"/>
            <path fill="#BBCEE1" d="M192.31 278.85l3.533-2.022-3.1-1.793-3.524 2.028zM191.448 279.352l-3.1-1.793-3.52 2.026 3.086 1.791zM187.054 281.877l-3.1-1.793-3.522 2.026 3.089 1.79zM182.66 284.4l-3.1-1.792-3.521 2.026 3.09 1.79zM178.266 286.926l-3.1-1.795-3.521 2.026 3.088 1.791zM173.872 289.45l-3.1-1.794-3.521 2.026 3.088 1.791zM169.478 291.975l-3.1-1.795-3.521 2.028 3.09 1.789zM165.084 294.498l-3.1-1.793-3.521 2.026 3.088 1.79zM160.69 297.023l-3.1-1.795-3.52 2.026 3.089 1.791zM156.298 299.547l-3.1-1.793-3.523 2.026 3.09 1.789zM151.902 302.072l-3.098-1.795-3.523 2.026 3.09 1.791zM147.509 304.595l-3.1-1.795-3.522 2.027 3.09 1.79z"/>
            <path fill="#E5E5E5" d="M140.017 305.325l-3.523 2.028 3.09 1.79 3.531-2.025z"/>
            <path fill="#BBCEE1" d="M196.754 277.352l-3.523 2.028 3.09 1.79 3.533-2.023zM188.837 281.905l3.09 1.787 3.53-2.02-3.098-1.795zM184.443 284.428l3.09 1.789 3.532-2.02-3.1-1.797zM180.05 286.953l3.09 1.787 3.529-2.02-3.098-1.795zM175.656 289.477l3.09 1.789 3.531-2.022-3.1-1.795zM171.262 292.002l3.09 1.787 3.531-2.02-3.098-1.795zM170.388 292.498l-4.391 2.526v-.002l-.867.498-3.527 2.026h-.002l-1.79 1.032-2.601 1.494-.004-.002-2.771 1.598-5.142 2.955 3.088 1.787 5.376-3.084 2.55-1.46-.003-.003 2.675-1.536 1.722-.986h-.004l3.478-1.996.92-.528v-.002l4.393-2.524zM144.898 307.146l3.09 1.789 3.532-2.022-3.098-1.795z"/>
            <path fill="#E5E5E5" d="M140.504 309.671l3.09 1.787 3.532-2.02-3.1-1.795zM155.331 273.475l-11.054-6.363a.94.94 0 0 0-.944-.002l-15.331 8.831a.415.415 0 0 0-.002.72l10.901 6.273c.345.203.773.203 1.122.002l15.307-8.82a.37.37 0 0 0 .001-.641"/>
            <path fill="#F4C5A2" d="M152.978 256.31s2.336 3.665 3.278 4.807c.942 1.14 4.128 5.839 6.194 7.02 2.066 1.182.028-2.823-.205-4.068-.234-1.247 1.088-2.464 3.17-1.267 2.082 1.193 4.006 4.275 6.21 5.985 2.203 1.705 4.475-6.509 1.81-10.187-2.665-3.675-5.417-5.193-9.502-6.771-3.938-1.522-7.324-.825-8.986-1.7l-1.969 6.18z"/>
            <path fill="#8606C4" d="M123.28 220.716a1940.318 1940.318 0 0 1-2.871-21.739l16.083 30.786 22.908 19.735-8.176 9.017-25.661-18.845-1.739-2.685c.106-6.353-.004-12.316-.545-16.269"/>
            <path fill="#F4C5A2" d="M115.755 269.693s3.743.878 4.949 1.352c1.207.474 6.044 1.78 7.501 3.28 1.46 1.502-2.533 1.015-3.699 1.235-1.165.22 1.242 1.695 2.715 3.207 1.473 1.508 2.356 2.74 2.76 5.949.304 2.41-7.998 7.178-9.545 3.5-1.493-3.55-1.531-3.552-4.709-5.835-3.755-2.695-5.659-5.56-6.76-6.795l6.788-5.893z"/>
            <path fill="#8606C4" d="M80.235 204.084s-7.926 1.81-8.657 14.324l6.495 26.004c.59 4.1 1.697 7.361 3.863 9.174l26.72 24.524 9.427-8.255-25.799-25.212-5.757-27.311s.647-10.662-6.292-13.248"/>
            <path fill="url(#y)" d="M141.98 261.224l62.58-36.035c.376-.218.814-.208 1.239.051l.002-.002 1.595.89-1.264 1.712-.473.54v49.835c0 .732-.39 1.403-1.022 1.77l-59.46 34.248-.094.516-1.894 2.647-1.787-1.03a.06.06 0 0 1-.016-.008l-.02-.012v-.002a.927.927 0 0 1-.443-.794v-52.5c0-.754.404-1.452 1.056-1.826" transform="translate(.782 -.5)"/>
            <path fill="#FFF" d="M144.536 261.745l62.723-36.119a.919.919 0 0 1 1.378.795v52.56c0 .732-.39 1.405-1.022 1.772l-62.724 36.13a.94.94 0 0 1-1.411-.812v-52.5c0-.754.4-1.451 1.056-1.826"/>
            <path fill="#E2A5FF" d="M61.174 310.555l38.217 21.605 24.355-14.06-38.212-21.603z"/>
            <path fill="#8606C4" d="M61.174 320.442l38.217 21.607 24.355-14.063-38.212-21.601z"/>
            <path fill="#A7BCCE" d="M237.11 252.189l-.014-2.52-.006 2.33.014 2.52z"/>
            <path fill="url(#z)" d="M259.521 255.72l-3.072 1.78-.006 2.332 3.072-1.781z" transform="translate(.782 -.5)"/>
            <path fill="url(#A)" d="M223.783 257.502l-3.092-1.783-.008 2.33 3.092 1.784z" transform="translate(.782 -.5)"/>
            <path fill="url(#B)" d="M230.34 265.576c.017-.086.043-.17.065-.253.026-.098.05-.197.084-.293.03-.08.065-.16.101-.241.044-.102.09-.205.144-.307.04-.074.088-.145.134-.217a4.16 4.16 0 0 1 .231-.345c.048-.065.104-.131.158-.199.128-.151.268-.3.42-.448.053-.054.105-.108.163-.16.094-.085.202-.167.301-.249.092-.073.18-.149.278-.219.112-.081.233-.157.355-.235.122-.082.242-.163.373-.24.296-.172.61-.326.933-.47.092-.043.185-.08.28-.12.253-.106.51-.202.774-.291.095-.034.187-.07.285-.098.166-.054.337-.1.507-.146.128-.035.258-.073.387-.103.18-.046.362-.08.545-.118.124-.024.248-.051.374-.075.369-.064.744-.116 1.121-.156.116-.012.234-.02.348-.03a15.5 15.5 0 0 1 1.096-.056c.181-.001.361-.003.54-.001a16.823 16.823 0 0 1 2.865.284 13.515 13.515 0 0 1 1.02.234c.116.027.228.057.34.09.363.105.714.222 1.058.356.17.068.333.14.497.211.085.038.173.072.257.114.248.115.49.24.725.374 1.942 1.122 2.912 2.59 2.908 4.056l.006-2.33c.004-1.467-.966-2.937-2.91-4.057a9.868 9.868 0 0 0-.723-.376c-.084-.04-.172-.074-.255-.112-.148-.066-.292-.131-.444-.193-.018-.008-.038-.012-.053-.016a12.032 12.032 0 0 0-1.06-.359c-.03-.008-.054-.02-.084-.028-.084-.023-.17-.04-.252-.061a12.565 12.565 0 0 0-.615-.15c-.056-.014-.107-.03-.163-.042-.08-.016-.166-.025-.246-.041a11.865 11.865 0 0 0-.52-.09c-.073-.012-.14-.028-.212-.038-.076-.012-.154-.016-.23-.024-.166-.022-.33-.042-.493-.058-.08-.008-.156-.02-.236-.023-.073-.006-.147-.008-.221-.012a13.812 13.812 0 0 0-.501-.028c-.084-.004-.166-.012-.25-.014-.066-.002-.131.002-.197.002a12.414 12.414 0 0 0-.545.002c-.09.002-.18-.002-.268.002-.052 0-.104.008-.157.01-.224.01-.446.026-.67.043-.089.008-.177.008-.265.018-.03.002-.056.008-.084.012a17.454 17.454 0 0 0-1.175.164c-.108.02-.212.046-.316.065-.183.04-.367.074-.549.12-.13.032-.257.068-.385.104-.17.045-.341.091-.509.143-.036.012-.074.022-.11.032-.06.018-.113.046-.173.066a12.71 12.71 0 0 0-.775.293c-.096.04-.19.077-.281.121-.322.143-.635.297-.933.468-.04.024-.08.048-.117.072-.092.054-.168.113-.254.167-.122.078-.245.156-.357.237-.098.072-.186.146-.276.22a6.306 6.306 0 0 0-.303.249c-.02.017-.044.031-.06.05-.04.035-.068.073-.104.109-.15.147-.291.295-.417.448-.028.034-.064.066-.092.098-.026.034-.042.067-.068.101-.083.114-.16.227-.231.345-.03.048-.07.094-.098.143-.014.024-.022.05-.036.074-.054.102-.098.205-.142.307-.028.06-.061.118-.083.177-.008.022-.012.042-.018.064-.034.096-.058.193-.086.293-.018.066-.042.133-.056.2-.004.017-.004.033-.006.053-.02.103-.028.207-.036.309-.008.07-.02.135-.022.2-.002.03-.002.059-.002.089l-.006 2.33c0-.095.016-.193.022-.288.01-.102.018-.208.036-.31" transform="translate(.782 -.5)"/>
            <path fill="url(#C)" d="M259.502 266.043c-.044.14-.102.279-.156.418a5.874 5.874 0 0 1-.122.287c-.038.086-.08.175-.122.265-.047.094-.095.187-.145.28a7.07 7.07 0 0 1-.345.582c-.053.08-.102.16-.156.238-.076.111-.16.22-.242.33-.054.072-.106.144-.164.216-.161.203-.33.404-.513.6-.023.027-.053.053-.075.079-.164.171-.332.339-.511.506-.14.133-.28.263-.43.39l-.006 2.331c.122-.105.242-.21.358-.318.026-.022.048-.048.072-.072a11 11 0 0 0 .507-.504l.08-.082c.181-.195.35-.396.512-.6.012-.013.028-.031.042-.05.044-.053.082-.11.124-.167.082-.11.164-.217.24-.326.054-.08.104-.16.155-.24.068-.107.136-.215.2-.322.022-.036.046-.07.066-.108.028-.05.052-.101.08-.151.05-.094.096-.185.143-.281.042-.09.086-.18.124-.27.042-.09.082-.186.12-.28.018-.044.038-.084.054-.127.036-.096.07-.196.104-.293h4.357l.008-2.331h-4.36z" transform="translate(.782 -.5)"/>
            <path fill="url(#D)" d="M223.848 272.566l.006-2.33c-1.516-1.29-2.528-2.718-3.029-4.192h-4.355l-.008 2.33h4.357c.501 1.475 1.511 2.903 3.029 4.192" transform="translate(.782 -.5)"/>
            <path fill="url(#E)" d="M251.219 273.31c-.523.207-1.06.39-1.61.563-.3.096-.612.175-.921.26-.288.08-.573.167-.865.236-.313.078-.636.14-.956.205-.295.06-.59.128-.89.184-.659.113-1.328.213-2.002.289l-.006 2.33a30.073 30.073 0 0 0 2.002-.29l.098-.012c.271-.05.533-.116.798-.172.318-.065.637-.125.948-.2.296-.073.583-.16.873-.24.307-.086.616-.163.914-.259.038-.012.076-.02.11-.032a24.59 24.59 0 0 0 1.499-.53l3.092 1.78 5.304-3.075.006-2.33-5.302 3.075-3.092-1.783z" transform="translate(.782 -.5)"/>
            <path fill="url(#F)" d="M236.454 275.047a29.715 29.715 0 0 1-1.403-.2c-.336-.051-.667-.11-.998-.173a28.495 28.495 0 0 1-2.03-.46c-.304-.082-.607-.16-.907-.25a25.911 25.911 0 0 1-1.922-.653h-.002l-3.078 1.781-5.338-3.074-.004 2.331 5.336 3.076 3.076-1.783c.497.194 1.01.367 1.53.532.13.042.263.082.394.124.136.038.266.083.4.121.165.048.341.08.509.126.385.101.772.199 1.167.285.128.028.25.065.38.091.157.034.321.056.48.084.332.064.665.121 1 .173.153.024.3.058.454.08.315.044.63.084.946.12h.002l.016 2.52h7.52l.008-2.331h-7.522l-.014-2.52z" transform="translate(.782 -.5)"/>
            <path fill="#FFF" d="M233.983 267.403c3.865 2.225 10.105 2.223 13.943-.004 3.84-2.226 3.825-5.833-.04-8.06-3.864-2.228-10.11-2.228-13.949 0-3.838 2.227-3.82 5.836.046 8.064zm21.11 7.188L252 272.81c-2.223.872-4.69 1.452-7.244 1.737l.016 2.52h-7.521l-.014-2.52c-2.553-.285-5.03-.865-7.264-1.737l-3.076 1.783-5.338-3.074 3.076-1.783c-1.513-1.291-2.525-2.718-3.026-4.194h-4.358l-.026-4.347h4.36c.483-1.476 1.483-2.903 2.98-4.194l-3.092-1.78 5.304-3.077 3.09 1.781c2.23-.868 4.693-1.452 7.242-1.737l-.012-2.518h7.52l.016 2.518c2.553.285 5.024.869 7.262 1.737l3.072-1.78 5.338 3.075-3.075 1.78c1.514 1.292 2.53 2.719 3.029 4.193h4.36l.023 4.349h-4.357c-.484 1.476-1.48 2.903-2.98 4.194l3.09 1.779-5.302 3.076z"/>
            <path fill="#A7BCCE" d="M246.364 278.171l-.012-2.058-.004 1.905.01 2.058z"/>
            <path fill="url(#G)" d="M264.53 281.148l-2.51 1.454-.006 1.907 2.511-1.457z" transform="translate(.782 -.5)"/>
            <path fill="url(#H)" d="M235.331 282.603l-2.525-1.454-.006 1.904 2.527 1.455z" transform="translate(.782 -.5)"/>
            <path fill="url(#I)" d="M240.69 289.2c.014-.067.034-.137.052-.207.02-.08.042-.161.07-.239.022-.066.054-.131.084-.195.034-.084.072-.168.116-.251.034-.062.071-.12.11-.18a3.308 3.308 0 0 1 .319-.444c.102-.123.215-.245.341-.364.044-.044.086-.088.132-.132.078-.07.164-.135.247-.203a5.153 5.153 0 0 1 .515-.37c.102-.066.2-.134.308-.196.241-.141.497-.267.76-.386l.23-.098c.206-.086.417-.165.633-.239l.231-.08a9.07 9.07 0 0 1 .415-.115c.106-.03.21-.062.316-.086.148-.036.297-.066.445-.096.102-.02.204-.043.305-.061.304-.054.61-.096.917-.128.095-.01.191-.016.285-.024.182-.016.363-.028.545-.036.118-.006.234-.008.35-.01.147-.002.295-.004.443-.002.121.002.245.006.367.01.138.006.273.014.409.022a11.772 11.772 0 0 1 1.136.128c.144.022.285.046.427.074.112.02.224.043.335.065.168.038.334.08.5.124.091.026.183.048.275.074.297.087.585.183.866.29.138.056.272.114.405.174.07.032.142.06.21.09.204.097.401.199.59.31 1.588.915 2.382 2.114 2.378 3.313l.006-1.904c.004-1.2-.79-2.4-2.38-3.315a7.825 7.825 0 0 0-.59-.307c-.068-.032-.138-.06-.208-.092-.121-.054-.237-.107-.363-.157l-.044-.016c-.28-.108-.569-.203-.864-.291-.024-.006-.046-.016-.07-.024-.066-.02-.136-.03-.206-.05a12.267 12.267 0 0 0-.5-.123c-.047-.01-.088-.022-.134-.03-.066-.014-.134-.024-.2-.036a11.288 11.288 0 0 0-.427-.074c-.06-.01-.114-.022-.172-.032-.062-.008-.128-.012-.19-.02a12.483 12.483 0 0 0-.403-.043c-.064-.008-.127-.018-.191-.024-.058-.004-.118-.004-.18-.008-.136-.008-.271-.016-.411-.022-.066-.002-.134-.01-.202-.01-.056-.002-.11 0-.163 0-.148-.002-.298 0-.446.002-.071.002-.143-.002-.217 0-.044.002-.086.008-.13.01-.182.008-.361.02-.545.036-.072.006-.146.008-.22.014-.021.002-.043.008-.065.01-.31.032-.615.073-.917.125-.016.004-.03.004-.044.008-.087.016-.171.038-.257.056-.15.028-.301.06-.45.096-.105.023-.209.055-.315.085a9.84 9.84 0 0 0-.415.116l-.09.028c-.048.016-.093.036-.141.051-.218.074-.428.154-.635.24-.078.033-.154.063-.23.097-.261.12-.519.245-.76.385-.032.02-.066.037-.096.06-.076.041-.138.091-.208.135a4.017 4.017 0 0 0-.517.373c-.083.067-.17.133-.247.203l-.05.041c-.032.028-.054.06-.082.09-.126.12-.24.243-.343.367-.022.028-.052.053-.074.08-.022.027-.036.055-.056.081-.07.094-.132.187-.19.28-.024.04-.058.079-.077.118-.012.02-.02.042-.03.062a3.547 3.547 0 0 0-.118.251c-.02.048-.05.098-.07.146-.006.016-.008.034-.014.05-.028.08-.046.159-.068.239-.016.055-.036.11-.046.163-.004.014-.004.03-.006.044-.016.083-.022.17-.03.253-.004.054-.018.11-.018.165v.07l-.006 1.904c0-.077.012-.157.018-.235.008-.085.014-.169.03-.253" transform="translate(.782 -.5)"/>
            <path fill="url(#J)" d="M264.513 289.582c-.037.115-.081.227-.125.342-.032.078-.066.156-.1.233l-.1.218c-.04.077-.078.155-.12.23l-.115.21-.166.265c-.042.064-.082.13-.128.195a7.56 7.56 0 0 1-.196.267c-.045.062-.087.12-.135.177-.13.166-.27.329-.42.49-.017.022-.041.044-.061.066-.132.14-.272.277-.418.414-.113.106-.227.214-.35.32l-.007 1.902c.102-.086.2-.172.296-.261.02-.018.036-.04.057-.058.144-.135.284-.273.414-.412.022-.022.046-.044.064-.068.151-.16.289-.323.42-.488.01-.014.025-.026.037-.04.034-.046.064-.092.1-.137.065-.088.131-.178.193-.267.046-.066.086-.132.128-.196.058-.087.112-.177.164-.265.018-.028.037-.057.053-.087.024-.04.044-.082.064-.124.042-.076.08-.151.12-.229.036-.074.068-.145.102-.22.032-.075.066-.152.098-.23.012-.036.03-.068.042-.104.032-.08.058-.16.085-.239h3.56l.006-1.904h-3.562z" transform="translate(.782 -.5)"/>
            <path fill="url(#K)" d="M235.386 294.91l.004-1.902c-1.238-1.054-2.064-2.221-2.471-3.427h-3.564l-.004 1.905h3.562c.407 1.205 1.233 2.373 2.473 3.424" transform="translate(.782 -.5)"/>
            <path fill="url(#L)" d="M257.747 295.52c-.427.167-.868.318-1.313.458-.248.081-.501.145-.753.215-.235.064-.469.133-.708.193-.258.062-.52.112-.78.167-.242.048-.482.104-.73.148-.536.095-1.081.177-1.632.237l-.006 1.904c.55-.06 1.096-.141 1.634-.237.026-.004.054-.006.08-.012.222-.04.436-.093.655-.137.258-.056.517-.104.773-.165.241-.06.477-.13.712-.196.252-.07.503-.133.749-.21l.09-.025c.417-.135.824-.28 1.223-.436l2.527 1.456 4.332-2.514.006-1.902-4.332 2.51-2.527-1.455z" transform="translate(.782 -.5)"/>
            <path fill="url(#M)" d="M245.684 296.938c-.385-.042-.766-.104-1.147-.162a26.055 26.055 0 0 1-1.52-.287 21.4 21.4 0 0 1-.952-.233c-.247-.063-.499-.127-.742-.2-.108-.033-.216-.069-.324-.1a21.28 21.28 0 0 1-1.245-.435l-.004-.002-2.511 1.459-4.362-2.513-.006 1.905 4.362 2.512 2.51-1.458a23.09 23.09 0 0 0 1.574.536c.11.032.217.07.33.1.133.04.275.067.412.1.316.085.633.162.955.234.103.024.205.056.309.078.13.026.263.042.395.067.268.05.541.1.815.142.123.02.245.046.37.064.256.035.514.067.773.097h.002l.012 2.058h6.147l.004-1.904h-6.145l-.012-2.058z" transform="translate(.782 -.5)"/>
            <path fill="#FFF" d="M243.808 290.601c3.158 1.819 8.256 1.817 11.394-.002 3.136-1.819 3.122-4.767-.036-6.586-3.156-1.821-8.258-1.821-11.396 0-3.136 1.819-3.118 4.77.038 6.588zm17.249 5.873l-2.527-1.454c-1.817.711-3.833 1.185-5.917 1.418l.01 2.058h-6.144l-.012-2.058c-2.088-.233-4.108-.707-5.935-1.418l-2.51 1.456-4.363-2.512 2.514-1.456c-1.238-1.054-2.064-2.222-2.472-3.427h-3.563l-.018-3.552h3.56c.395-1.205 1.211-2.37 2.435-3.427l-2.525-1.454 4.331-2.512 2.525 1.456c1.823-.711 3.833-1.187 5.917-1.42l-.012-2.058h6.148l.01 2.058c2.086.233 4.104.709 5.933 1.42l2.511-1.456 4.358 2.512-2.507 1.454c1.235 1.056 2.064 2.222 2.473 3.427h3.56l.02 3.552h-3.56c-.396 1.205-1.208 2.373-2.436 3.427l2.528 1.454-4.332 2.512z"/>
            <path fill="#F4C5A2" d="M55.246 284.99s-2.687-2.647-3.455-3.661c-.769-1.015-4.156-4.579-4.607-6.58-.455-2.003 2.645.443 3.735.854 1.09.408 2.639-.546 2.18-2.564-.464-2.02-3.02-5.696-3.923-7.907-.9-2.208 8.174-2.064 10.77.876 2.594 2.939 3.912 5.989 4.1 9.82.181 3.7-1.438 6.724-1.144 8.323l-7.656.84z"/>
            <path fill="#FFF" d="M64.247 280.998l-12.235 1.807 1.715 20.171 18.163 16.358s-.74-19.169-7.643-38.336"/>
            <path fill="#4C0620" d="M22.386 462.305s-1.084 4.79 5.455 5.646c6.542.855 9.386.787 9.955 5.142.567 4.36-1.272 6.214-8.508 6.654-6.236.379-16.841-1.068-22.764-2.715-.99-.275-1.818-.807-1.878-1.831-.124-2.132.778-7.913 2.427-11.852 2.363-5.638 15.313-1.044 15.313-1.044"/>
            <path fill="#4C0620" d="M47.745 468.01s-.513 1.524 6.074 1.882c6.588.359 13.592.359 14.489 4.66.898 4.301-4.22 7.706-11.404 8.692-6.189.849-18.575 1.433-23.493 1.636a1.918 1.918 0 0 1-2.01-1.686c-.286-2.113-.651-5.889-.356-9.897.45-6.092 16.7-5.287 16.7-5.287"/>
            <path fill="url(#N)" d="M12.609 359.163s-1.87 52.84-2.348 59.269c-.477 6.427-5.398 46.47-5.398 46.47s11.061 5.56 19.647 1.752l9.563-101.542-21.464-5.949z" transform="translate(.782 -.5)"/>
            <path fill="url(#O)" d="M28.112 362.494l2.591 51.957c-.477 15.472-1.1 59.86-1.1 59.86 12.642 1.429 20.67-5.436 20.67-5.436-.714-6.901 0-48.778 0-48.778 2.591-20.255 1.296-52.8 1.567-58.782.026-.626.042-.96.042-.96l-23.77 2.14z" transform="translate(.782 -.5)"/>
            <g transform="translate(.782 283.455)">
                <mask id="Q" fill="#fff">
                    <use xlink:href="#P"/>
                </mask>
                <path fill="#FFF" d="M4.977.586S-1.45 25.363.302 38.693c0 0 4.675 6.833 13.348 6.148L4.977.586z" mask="url(#Q)"/>
            </g>
            <path fill="#FED4BD" d="M49.852 260.757c-.026 9.694-6.435 17.537-14.316 17.517-7.881-.021-14.249-7.897-14.223-17.593.026-9.694 6.436-17.537 14.315-17.515 7.88.02 14.25 7.895 14.224 17.59"/>
            <path fill="#B3248F" d="M59.502 287.652s-11.953-4.536-13.57-5.612c-1.615-1.074-2.214-2.77-2.214-2.77-8.08-5.637-18.377-4.938-18.377-4.938-15.049 4.116-19.582 9.71-19.582 9.71 1.55 12.814 4.859 63.335 5.583 74.549.088 1.374.906 2.606 2.16 3.18 18.524 8.492 32.25 4.408 38.624 1.346 2.375-1.14 3.68-3.694 3.391-6.307-2.692-24.224 3.985-69.158 3.985-69.158"/>
            <path fill="#8606C4" d="M40.757 242.375s11.136 2.128 11.256 11.472l-10.398 3.424s1.623 7.883-4.206 9.892c0 0-1.687 7.142-12.263 6.472 0 0-15.905-20.677 3.526-30.47 0 0 5.45-1.973 12.085-.79"/>
            <path fill="#FFF" d="M59.907 287.652c-10.863 0-6.545 23.337-6.545 23.337l3.725 16.26c.509 2.217 2.694 3.443 4.95 3.126 8.753-1.22 9.853-9.2 9.853-9.2-.126-21.34-11.983-33.523-11.983-33.523M43.718 279.27c-8.08-5.638-18.377-4.938-18.377-4.938a75.349 75.349 0 0 0-6.296 2.02c9.103.022 21.161 3.309 25.745 4.662-.761-.883-1.072-1.744-1.072-1.744"/>
            <g transform="translate(232.338 -.5)">
                <mask id="T" fill="#fff">
                    <use xlink:href="#R"/>
                </mask>
                <path fill="url(#S)" d="M251.546 140.19L10.505 1.434c-1.475-.85-3.17-.815-4.83.189l-5.37 3 4.922 6.666 1.837 2.1v152.016a7.95 7.95 0 0 0 3.982 6.887l228.904 131.81.372 2.003 7.366 10.304 6.11-3.544c.022-.01.038-.022.058-.034l.076-.042v-.006c1.012-.631 1.73-1.739 1.73-3.1V147.298a8.202 8.202 0 0 0-4.116-7.106" mask="url(#T)"/>
            </g>
        </g>
        <g transform="translate(229.782 4.5)">
            <mask id="V" fill="#fff">
                <use xlink:href="#U"/>
            </mask>
            <path fill="#FFF" d="M.518 3.727v162.78a7.966 7.966 0 0 0 3.975 6.892l241.171 139.267c2.437 1.41 5.488-.351 5.488-3.169V146.962a8.21 8.21 0 0 0-4.109-7.115L5.866.632A3.534 3.534 0 0 0 4.091.15C2.228.15.518 1.64.518 3.727" mask="url(#V)"/>
        </g>
        <g>
            <path fill="url(#W)" d="M234.526 3.724l.004-.16c.054.034.127.074.133.078l241.642 139.082a4.741 4.741 0 0 1 2.376 4.098V308.96c0 .177-.188.189-.19.189L236.768 169.982a4.494 4.494 0 0 1-2.242-3.88V3.725zm-3.48 0v162.628a7.952 7.952 0 0 0 3.98 6.885L476.664 312.37c.59.34 1.22.496 1.828.496 1.913 0 3.67-1.526 3.67-3.66V146.823a8.2 8.2 0 0 0-4.115-7.106L236.402.632a3.546 3.546 0 0 0-1.779-.48c-1.866 0-3.577 1.49-3.577 3.572z" transform="translate(-.218 4.5)"/>
            <g transform="translate(-.218 510.516)">
                <mask id="Y" fill="#fff">
                    <use xlink:href="#X"/>
                </mask>
            </g>
            <path fill="#BBCEE1" d="M480.095 316.879l-.07.041-.006-.008c.026-.013.052-.02.076-.033"/>
            <path fill="url(#Z)" d="M482.159 309.207l.002-162.385c0-.978-.232-1.906-.56-2.797l6.102-3.404c.301.858.513 1.75.513 2.691l-.002 162.381c0 1.36-.715 2.47-1.727 3.098v.006l-.076.044c-.02.012-.038.024-.058.034l-6.013 3.488a3.616 3.616 0 0 0 1.819-3.156" transform="translate(-.218 4.5)"/>
            <path fill="#E2D4E6" d="M256.571 29.58v3.324l13.999 8.057v-3.325z"/>
            <path fill="#EDF0F8" d="M256.571 35.653v3.325l13.999 8.057V43.71zM256.571 41.727v3.325l13.999 8.058v-3.327zM362.21 111.928v-3.325L275.82 58.88v3.325zM256.571 47.801v3.325l13.999 8.058v-3.327zM256.571 53.875v3.327l13.999 8.056v-3.325z"/>
            <path fill="#E2D4E6" d="M362.21 118.004v-3.327l-86.39-49.723v3.327z"/>
            <path fill="#EDF0F8" d="M256.571 72.098v3.325l13.999 8.056v-3.324z"/>
            <path fill="#E2D4E6" d="M256.571 78.172v3.325l13.999 8.056v-3.325z"/>
            <path fill="#EDF0F8" d="M256.571 102.467v3.327l13.999 8.057v-3.325zM256.571 108.541v3.327l13.999 8.057V116.6z"/>
            <path fill="#E2D4E6" d="M330.32 150.99l-54.5-31.37v3.326l54.5 31.369z"/>
            <path fill="#EDF0F8" d="M333.194 152.644v3.325l29.016 16.702v-3.325zM303.202 129.307l-27.383-15.76v3.325l27.383 15.76zM306.074 130.961v3.325l56.136 32.31v-3.326zM354.825 140.798v3.324l7.385 4.252v-3.325z"/>
            <path fill="#E2D4E6" d="M314.637 111.594L275.82 89.25v3.325l38.817 22.343z"/>
            <path fill="#EDF0F8" d="M298.732 53.845L275.819 40.66v3.325l22.913 13.186zM336.288 75.462l-34.684-19.964v3.325l34.684 19.964zM316.074 69.902l-24.418-14.057v3.327l24.418 14.055z"/>
            <path fill="#E2D4E6" d="M341.696 84.648l-22.751-13.092v3.325l22.751 13.092z"/>
            <path fill="#EDF0F8" d="M344.568 86.302v3.325l17.642 10.154v-3.325z"/>
            <path fill="#E2D4E6" d="M280.333 55.404v3.325l18.4 10.59v-3.327z"/>
            <path fill="#EDF0F8" d="M355.012 98.388l-53.408-30.742v3.327l53.408 30.74zM324.434 99.01l-34.9-20.089v3.325l34.9 20.09zM355.012 116.61l-27.704-15.946v3.325l27.704 15.945zM351.951 133.07l-34.44-19.822v3.325l34.44 19.824z"/>
            <path fill="#E2D4E6" d="M333.194 128.348v3.325l18.758 10.798v-3.327z"/>
            <path fill="#EDF0F8" d="M282.575 99.213l-6.756-3.887v3.325l6.756 3.887zM295.229 106.496v3.325l35.09 20.2v-3.326zM292.357 104.843l-6.908-3.977v3.325l6.908 3.977zM323.83 129.031l-38.382-22.091v3.325l38.382 22.091z"/>
            <path fill="#E2D4E6" d="M256.571 126.436v3.325l13.999 8.056v-3.325z"/>
            <path fill="#EDF0F8" d="M256.571 132.51v3.325l13.999 8.056v-3.325zM256.571 138.584v3.325l13.999 8.056v-3.325zM362.21 208.785v-3.325l-86.39-49.723v3.325zM256.571 144.657v3.325l13.999 8.057v-3.325zM256.571 150.731v3.325l13.999 8.057v-3.325z"/>
            <path fill="#E2D4E6" d="M362.21 214.859v-3.325l-86.39-49.723v3.325z"/>
            <path fill="#EDF0F8" d="M256.571 168.953v3.327l13.999 8.056v-3.325z"/>
            <path fill="#E2D4E6" d="M256.571 175.027v3.327l13.999 8.056v-3.325zM314.637 208.45l-38.817-22.344v3.325l38.817 22.344z"/>
            <path fill="#EDF0F8" d="M298.732 150.702l-22.913-13.188v3.327l22.913 13.186zM336.288 172.318l-34.684-19.963v3.325l34.684 19.963zM316.074 166.758l-24.418-14.057v3.325l24.418 14.057z"/>
            <path fill="#E2D4E6" d="M341.696 181.505l-22.751-13.095v3.327l22.751 13.093z"/>
            <path fill="#EDF0F8" d="M344.568 183.157v3.325l17.642 10.156v-3.325z"/>
            <path fill="#E2D4E6" d="M280.333 152.26v3.325l18.4 10.589v-3.325z"/>
            <path fill="#EDF0F8" d="M355.012 195.242l-53.408-30.74v3.326l53.408 30.74zM324.434 195.867l-34.9-20.09v3.325l34.9 20.09zM355.012 213.466l-27.704-15.948v3.325l27.704 15.948zM351.951 229.927l-34.44-19.825v3.325l34.44 19.825z"/>
            <path fill="#E2D4E6" d="M427.153 127.646v1.32l5.558 3.202v-1.322zM427.153 130.058v1.321l5.558 3.202v-1.323zM427.153 132.47v1.322l5.558 3.201v-1.323zM469.103 160.35v-1.321l-34.309-19.745v1.32zM427.153 134.883v1.321l5.558 3.2v-1.321zM427.153 137.296v1.32l5.558 3.2v-1.323zM469.103 162.762v-1.32l-34.309-19.745v1.319zM427.153 144.53v1.322l5.558 3.201v-1.323zM427.153 146.943v1.321l5.558 3.202v-1.323zM427.153 156.593v1.32l5.558 3.2v-1.323zM427.153 159.004v1.32l5.558 3.202v-1.323zM456.44 175.861l-21.645-12.457v1.32l21.645 12.458zM457.58 176.519v1.319l11.522 6.632v-1.32zM445.67 167.25l-10.874-6.26v1.322l10.874 6.26zM446.81 167.908v1.32l22.293 12.832v-1.322zM466.17 171.815v1.318l2.934 1.69v-1.321zM450.21 160.218l-15.416-8.874v1.321l15.417 8.871zM443.894 137.284l-9.1-5.238v1.321l9.1 5.236zM458.809 145.867l-13.773-7.926v1.32l13.773 7.927zM450.782 143.66l-9.696-5.583v1.321l9.696 5.582zM460.955 149.515l-9.031-5.197v1.319l9.031 5.2zM462.098 150.173v1.32l7.005 4.033v-1.32zM436.589 137.903v1.32l7.305 4.204v-1.319zM466.245 154.973l-21.21-12.209v1.321l21.21 12.206zM454.103 155.22l-13.86-7.98v1.322l13.86 7.978zM466.245 162.208l-11.002-6.333v1.32l11.002 6.334zM465.03 168.745l-13.68-7.872v1.321l13.68 7.871zM457.58 166.87v1.32l7.45 4.287v-1.32zM437.478 155.3l-2.683-1.543v1.32l2.683 1.543zM442.504 158.192v1.321l13.935 8.02v-1.32zM441.364 157.535l-2.744-1.578v1.32l2.744 1.578zM453.86 167.141l-15.24-8.771v1.319l15.24 8.773z"/>
            <path fill="#EDF0F8" d="M427.153 168.462v1.32l5.558 3.2v-1.322zM427.153 170.875v1.319l5.558 3.201v-1.323zM427.153 173.285v1.321l5.558 3.202v-1.323zM469.103 201.164v-1.32l-34.309-19.745v1.319zM427.153 175.698v1.32l5.558 3.2v-1.32zM427.153 178.11v1.321l5.558 3.2v-1.321zM469.103 203.577v-1.321l-34.309-19.745v1.32zM427.153 185.347v1.32l5.558 3.2v-1.322zM427.153 187.758v1.32l5.558 3.202v-1.323zM427.153 197.407v1.32l5.558 3.2v-1.322zM427.153 199.82v1.319l5.558 3.201v-1.322zM456.44 216.676l-21.645-12.457v1.32l21.645 12.458zM457.58 217.333v1.321l11.522 6.632v-1.32zM445.67 208.065l-10.874-6.26v1.321l10.874 6.26zM446.81 208.723v1.32l22.293 12.832v-1.323zM466.17 212.63v1.318l2.934 1.69v-1.32zM450.21 201.03l-15.416-8.871v1.32l15.417 8.872zM443.894 178.098l-9.1-5.237v1.32l9.1 5.238zM458.809 186.682l-13.773-7.927v1.32l13.773 7.928zM450.782 184.474l-9.696-5.582v1.32l9.696 5.583zM460.955 190.33l-9.031-5.198v1.321l9.031 5.198zM462.098 190.987v1.321l7.005 4.032v-1.32zM436.589 178.717v1.321l7.305 4.204v-1.32zM466.245 195.787l-21.21-12.208v1.32l21.21 12.209zM454.103 196.034l-13.86-7.979v1.321l13.86 7.979zM466.245 203.022l-11.002-6.333v1.32l11.002 6.334zM465.03 209.559l-13.68-7.871v1.32l13.68 7.872zM457.58 207.684v1.32l7.45 4.288v-1.321zM437.478 196.116l-2.683-1.544v1.32l2.683 1.543zM442.504 199.007v1.32l13.935 8.021v-1.32zM441.364 198.351l-2.744-1.58v1.321l2.744 1.578zM453.86 207.956l-15.24-8.771v1.32l15.24 8.772z"/>
            <path fill="#E2D4E6" d="M427.153 209.277v1.32l5.558 3.2v-1.323zM427.153 211.69v1.318l5.558 3.202v-1.323zM427.153 214.1v1.32l5.558 3.202V217.3zM469.103 241.979v-1.32l-34.309-19.745v1.32zM427.153 216.512v1.321l5.558 3.202v-1.323zM427.153 218.925v1.32l5.558 3.2v-1.32zM469.103 244.391v-1.32l-34.309-19.745v1.319zM427.153 226.162v1.319l5.558 3.201v-1.323zM427.153 228.574v1.32l5.558 3.2v-1.322zM427.153 238.222v1.32l5.558 3.2v-1.32zM427.153 240.635v1.32l5.558 3.2v-1.323zM456.44 257.492l-21.645-12.459v1.321l21.645 12.457zM457.58 258.148v1.32l11.522 6.633v-1.321zM445.67 248.881l-10.874-6.261v1.323l10.874 6.257zM446.81 249.537v1.32l22.293 12.833v-1.323zM466.17 253.444v1.32l2.934 1.688v-1.32zM450.21 241.847l-15.416-8.874v1.321l15.417 8.871zM443.894 218.913l-9.1-5.237v1.32l9.1 5.238zM458.809 227.497l-13.773-7.927v1.32l13.773 7.927zM450.782 225.29l-9.696-5.584v1.321l9.696 5.582zM460.955 231.146l-9.031-5.2v1.322l9.031 5.197zM462.098 231.802v1.32l7.005 4.033v-1.32zM436.589 219.532v1.32l7.305 4.204v-1.319zM466.245 236.602l-21.21-12.209v1.321l21.21 12.208zM454.103 236.849l-13.86-7.977v1.319l13.86 7.978zM466.245 243.839l-11.002-6.333v1.318l11.002 6.334zM465.03 250.376l-13.68-7.874v1.321l13.68 7.871zM457.58 248.5v1.319l7.45 4.287v-1.319zM437.478 236.93l-2.683-1.544v1.321l2.683 1.542zM442.504 239.821v1.321l13.935 8.02v-1.32zM441.364 239.166l-2.744-1.58v1.32l2.744 1.579zM453.86 248.77L438.62 240v1.32l15.24 8.771z"/>
            <path fill="#EDF0F8" d="M427.153 250.091v1.321l5.558 3.2v-1.323zM427.153 252.504v1.319l5.558 3.201v-1.323zM427.153 254.916v1.32l5.558 3.2v-1.322zM469.103 282.793v-1.318l-34.309-19.747v1.32zM427.153 257.329v1.319l5.558 3.201v-1.323zM427.153 259.741v1.32l5.558 3.199v-1.321zM469.103 285.206v-1.321l-34.309-19.745v1.321zM427.153 266.976v1.321l5.558 3.2v-1.323zM427.153 269.389v1.32l5.558 3.2v-1.323zM466.17 294.258v1.321l2.934 1.687v-1.318zM450.21 282.661l-15.416-8.873v1.32l15.417 8.874zM443.894 259.728l-9.1-5.236v1.32l9.1 5.237zM458.809 268.313l-13.773-7.927v1.32l13.773 7.926zM450.782 266.105l-9.696-5.582v1.319l9.696 5.582zM460.955 271.96l-9.031-5.199v1.321l9.031 5.2zM462.098 272.617v1.32l7.005 4.035v-1.323zM436.589 260.346v1.321l7.305 4.206v-1.321zM466.245 277.416l-21.21-12.208v1.32l21.21 12.209zM454.103 277.663l-13.86-7.977v1.32l13.86 7.978zM466.245 284.653l-11.002-6.333v1.319l11.002 6.335zM465.03 291.19l-13.68-7.873v1.32l13.68 7.874zM457.58 289.315v1.32l7.45 4.286v-1.32zM437.478 277.745l-2.683-1.544v1.32l2.683 1.545zM442.504 280.636v1.32l13.935 8.021v-1.32zM441.364 279.98l-2.744-1.58v1.321l2.744 1.58zM453.86 289.585l-15.24-8.771v1.32l15.24 8.772z"/>
            <path fill="#E2D4E6" d="M247.607 24.416l-4.614-2.655a.336.336 0 0 0-.505.29v5.509c0 .269.143.518.375.651l4.612 2.66a.344.344 0 0 0 .519-.297v-5.487a.772.772 0 0 0-.387-.67M247.607 32.657l-4.614-2.655a.336.336 0 0 0-.505.29v5.509c0 .269.143.518.375.651l4.612 2.66a.344.344 0 0 0 .519-.297v-5.486a.772.772 0 0 0-.387-.672M247.607 40.898l-4.614-2.655a.336.336 0 0 0-.505.29v5.509c0 .269.143.518.375.651l4.612 2.66a.344.344 0 0 0 .519-.297V41.57a.772.772 0 0 0-.387-.672M247.607 49.14l-4.614-2.656a.336.336 0 0 0-.505.29v5.509c0 .269.143.518.375.651l4.612 2.66a.344.344 0 0 0 .519-.297v-5.486a.772.772 0 0 0-.387-.672M247.607 57.38l-4.614-2.655a.336.336 0 0 0-.505.29v5.511c0 .267.143.516.375.65l4.612 2.66a.344.344 0 0 0 .519-.298v-5.486a.772.772 0 0 0-.387-.672M247.607 65.622l-4.614-2.656a.336.336 0 0 0-.505.291v5.508c0 .27.143.518.375.652l4.612 2.66a.344.344 0 0 0 .519-.297v-5.487a.772.772 0 0 0-.387-.671M247.607 73.863l-4.614-2.656a.336.336 0 0 0-.505.291v5.51c0 .267.143.516.375.65l4.612 2.66a.344.344 0 0 0 .519-.297v-5.487a.774.774 0 0 0-.387-.671M247.607 82.104l-4.614-2.656a.337.337 0 0 0-.505.291v5.51c0 .267.143.517.375.65l4.612 2.66a.344.344 0 0 0 .519-.297v-5.487a.772.772 0 0 0-.387-.671M247.607 90.345l-4.614-2.656a.336.336 0 0 0-.505.291v5.51c0 .268.143.517.375.65l4.612 2.66a.344.344 0 0 0 .519-.297v-5.487a.774.774 0 0 0-.387-.671M247.607 98.586l-4.614-2.656a.337.337 0 0 0-.505.291v5.51c0 .268.143.517.375.65l4.612 2.66a.344.344 0 0 0 .519-.297v-5.487a.774.774 0 0 0-.387-.671M247.607 106.827l-4.614-2.655a.337.337 0 0 0-.505.29v5.511a.75.75 0 0 0 .375.65l4.612 2.661a.346.346 0 0 0 .519-.299V107.5a.774.774 0 0 0-.387-.672M247.607 115.068l-4.614-2.655a.337.337 0 0 0-.505.29v5.511a.75.75 0 0 0 .375.65l4.612 2.661a.346.346 0 0 0 .519-.299v-5.486a.774.774 0 0 0-.387-.672"/>
            <path fill="#EDF0F8" d="M380.085 103.253c-.276.28-.406.821-.408 1.618l-.01 3.544v.092c-.002.673-.217 1.034-.65 1.081-.432.048-1.049-.157-1.843-.617l-.008 2.466c.796.458 1.411.962 1.842 1.514.43.552.641 1.194.64 1.925l-.01 3.504c-.003.795.125 1.488.397 2.088.263.595.684 1.161 1.265 1.701.581.54 1.384 1.102 2.402 1.688l.006-2.335c-.66-.405-1.102-.8-1.338-1.192-.237-.398-.35-.858-.349-1.394l.01-3.355v-.13c.004-1.34-.733-2.555-2.224-3.67v-.13c1.473.601 2.212.187 2.238-1.23l.008-3.357c.002-.541.126-.864.363-.984.238-.12.683.006 1.336.359l.006-2.337c-1.004-.578-1.8-.938-2.388-1.07-.595-.14-1.02-.062-1.285.221M393.958 118.197a2.885 2.885 0 0 1-.625-1.82v-.089l.008-3.542c.004-1.145-.295-2.124-.91-2.946-.607-.821-1.661-1.658-3.168-2.524l-.004 2.332c.652.403 1.102.793 1.337 1.184.238.384.35.852.348 1.394l-.008 3.355c.023 1.448.774 2.72 2.244 3.813l-.002.13c-.731-.29-1.29-.347-1.673-.164-.388.188-.583.61-.583 1.285v.1l-.01 3.353c-.002.544-.118.88-.356.998-.235.11-.689-.01-1.341-.36l-.006 2.334c1.497.863 2.551 1.231 3.17 1.118.61-.116.92-.745.924-1.897l.01-3.502c.002-.731.218-1.126.635-1.191.423-.06 1.034.145 1.845.61l.006-2.465c-.809-.468-1.418-.966-1.84-1.506M402.874 116.035c-.276.28-.405.821-.407 1.618l-.01 3.544v.092c-.002.673-.218 1.034-.65 1.081-.43.048-1.05-.159-1.844-.617l-.008 2.464c.799.46 1.413.964 1.843 1.514a3.04 3.04 0 0 1 .64 1.927l-.011 3.502c-.002.797.127 1.488.399 2.09.261.595.685 1.161 1.264 1.699.58.542 1.383 1.104 2.401 1.69l.006-2.335c-.659-.405-1.102-.8-1.337-1.192-.238-.4-.35-.86-.348-1.394l.008-3.355.002-.132c.004-1.34-.734-2.554-2.226-3.667l.002-.132c1.472.6 2.212.188 2.236-1.23l.01-3.356c.002-.542.126-.864.364-.984.235-.12.682.006 1.333.357l.008-2.335c-1.004-.578-1.803-.938-2.39-1.07-.594-.14-1.018-.064-1.285.221M416.747 130.979a2.893 2.893 0 0 1-.625-1.82v-.089l.008-3.544c.004-1.144-.293-2.122-.91-2.946-.607-.82-1.66-1.656-3.166-2.523l-.006 2.333c.653.403 1.102.793 1.337 1.184.238.384.35.852.35 1.394l-.01 3.355c.026 1.448.774 2.72 2.244 3.811v.132c-.733-.29-1.292-.347-1.673-.166-.39.19-.585.612-.585 1.287v.098l-.01 3.353c0 .543-.118.88-.356.998-.235.111-.688-.008-1.341-.36l-.006 2.336c1.497.86 2.551 1.231 3.17 1.118.611-.118.923-.747.927-1.897l.008-3.502c.004-.731.22-1.126.634-1.192.426-.06 1.037.144 1.845.61l.008-2.464c-.81-.468-1.42-.967-1.843-1.506M385.998 231.856c2.759 1.59 5.007.313 5.015-2.854.01-3.164-2.224-7.02-4.981-8.61-2.761-1.592-5.01-.313-5.017 2.85-.01 3.166 2.222 7.023 4.983 8.614zm12.022 3.375l-2.208-1.27c-.263 1.386-.792 2.51-1.537 3.336l1.56 2.692-2.708 1.537-1.555-2.689c-1.096.217-2.342.1-3.684-.373L387.88 241l-3.813-2.2.006-2.532c-1.34-1.072-2.581-2.389-3.671-3.867l-1.567.893-2.69-4.646 1.57-.893c-.737-1.675-1.254-3.406-1.512-5.092l-2.21-1.275.012-4.372 2.21 1.273c.266-1.387.793-2.513 1.536-3.34l-1.558-2.69 2.705-1.539 1.558 2.692c1.094-.217 2.34-.102 3.681.372l.008-2.536 3.813 2.2-.006 2.532c1.338 1.073 2.582 2.388 3.672 3.867l1.569-.893 2.687 4.646-1.567.892c.735 1.678 1.258 3.409 1.511 5.092l2.208 1.275-.012 4.373z"/>
            <path fill="#EDF0F8" d="M404.137 253.675c2.256 1.297 4.093.255 4.099-2.335.008-2.583-1.815-5.737-4.07-7.034-2.259-1.3-4.094-.257-4.102 2.329-.008 2.588 1.817 5.74 4.073 7.04zm9.827 2.757l-1.805-1.04c-.216 1.136-.651 2.054-1.256 2.728l1.272 2.201-2.21 1.257-1.274-2.2c-.894.178-1.913.083-3.009-.304l-.006 2.072-3.116-1.797.006-2.07c-1.096-.876-2.112-1.952-3.003-3.158l-1.281.728-2.194-3.795 1.28-.732c-.6-1.37-1.025-2.783-1.237-4.161l-1.804-1.042.01-3.574 1.804 1.042c.218-1.134.65-2.056 1.256-2.732l-1.274-2.197 2.213-1.259 1.271 2.201c.897-.177 1.915-.081 3.009.303l.006-2.07 3.12 1.795-.008 2.07c1.096.879 2.11 1.954 3.003 3.16l1.28-.727 2.198 3.795-1.284.73c.603 1.37 1.03 2.786 1.236 4.163l1.807 1.04-.01 3.573zM401.858 142.237l-24.674-14.258v1.253l24.674 14.258zM415.038 152.288l-37.855-21.849v1.251l37.855 21.85z"/>
            <path fill="#E2D4E6" d="M415.038 149.828l-11.53-6.663v1.253l11.53 6.664z"/>
            <path fill="#EDF0F8" d="M401.858 147.037l-24.674-14.258v1.25l24.674 14.26zM415.038 157.087l-37.855-21.85v1.253l37.855 21.848z"/>
            <path fill="#E2D4E6" d="M415.038 154.626l-11.53-6.662v1.253l11.53 6.662z"/>
            <path fill="#EDF0F8" d="M401.858 153.97l-24.674-14.258v1.253l24.674 14.259zM415.038 164.02l-37.855-21.85v1.254l37.855 21.848zM415.038 161.562l-11.53-6.664v1.253l11.53 6.662zM401.858 158.77l-24.674-14.26v1.253l24.674 14.258zM415.038 168.818l-37.855-21.848v1.251l37.855 21.85zM415.038 166.36l-11.53-6.664v1.253l11.53 6.664zM401.858 165.704l-24.674-14.26v1.253l24.674 14.26zM415.038 175.752l-37.855-21.848v1.251l37.855 21.85zM415.038 173.293l-11.53-6.662v1.251l11.53 6.664z"/>
            <path fill="#E2D4E6" d="M401.858 170.501l-24.674-14.258v1.251l24.674 14.26z"/>
            <path fill="#EDF0F8" d="M415.038 180.552l-37.855-21.85v1.253l37.855 21.85zM415.038 178.093l-11.53-6.664v1.253l11.53 6.664zM401.858 177.435l-24.674-14.258v1.253l24.674 14.258zM415.038 187.486l-37.855-21.85v1.252l37.855 21.85z"/>
            <path fill="#E2D4E6" d="M415.038 185.026l-11.53-6.663v1.253l11.53 6.664z"/>
            <path fill="#EDF0F8" d="M401.858 182.235l-24.674-14.26v1.253l24.674 14.258zM415.038 192.283l-37.855-21.848v1.253l37.855 21.848z"/>
            <path fill="#E2D4E6" d="M415.038 189.824l-11.53-6.662v1.251l11.53 6.664z"/>
            <path fill="#EDF0F8" d="M401.858 189.168l-24.674-14.258v1.251l24.674 14.26zM415.038 199.217l-37.855-21.849v1.254l37.855 21.848z"/>
            <path fill="#E2D4E6" d="M415.038 196.758l-11.53-6.662v1.253l11.53 6.662z"/>
            <path fill="#EDF0F8" d="M401.858 193.968l-24.674-14.26v1.253l24.674 14.258z"/>
            <path fill="#E2D4E6" d="M415.038 204.016l-37.855-21.85v1.253l37.855 21.85z"/>
            <path fill="#EDF0F8" d="M415.038 201.557l-11.53-6.664v1.253l11.53 6.664z"/>
        </g>
    </g>
</svg>
